<?xml version="1.0" standalone="no"?>
<!DOCTYPE svg PUBLIC "-//W3C//DTD SVG 20010904//EN"
 "http://www.w3.org/TR/2001/REC-SVG-20010904/DTD/svg10.dtd">
<svg version="1.0" xmlns="http://www.w3.org/2000/svg"
 viewBox="0 0 4841.000000 3346.000000"
 preserveAspectRatio="xMidYMid meet">
<metadata>
Created by potrace 1.16, written by Peter Selinger 2001-2019
</metadata>
<g transform="translate(0.000000,3346.000000) scale(0.100000,-0.100000)"
stroke="none">
<path d="M13671 32870 c-68 -10 -129 -37 -136 -61 -4 -10 -19 -26 -35 -36 -17
-9 -46 -44 -66 -76 -58 -94 -58 -158 0 -382 24 -88 26 -112 21 -205 -8 -141
-24 -245 -47 -305 -47 -123 -83 -180 -159 -256 -166 -165 -196 -247 -145 -410
25 -81 53 -121 99 -138 44 -17 73 -13 166 18 50 17 120 32 166 36 77 7 84 5
213 -40 113 -40 142 -47 187 -43 63 5 127 44 152 91 27 53 28 135 3 205 -13
34 -26 62 -30 62 -15 0 -101 213 -110 273 -28 176 -31 209 -24 297 7 106 31
173 83 232 17 20 31 39 31 42 0 4 11 22 24 39 13 18 37 59 52 92 26 55 28 70
28 180 1 108 -2 124 -23 160 -75 130 -144 184 -279 219 -68 17 -87 18 -171 6z"/>
<path d="M34515 32861 c-128 -37 -193 -89 -266 -216 -21 -36 -24 -52 -23 -160
0 -110 2 -125 28 -180 15 -33 39 -74 52 -92 13 -17 24 -35 24 -39 0 -3 14 -22
31 -42 52 -59 76 -126 83 -232 7 -88 4 -121 -24 -297 -9 -60 -95 -273 -110
-273 -4 0 -17 -28 -30 -62 -25 -70 -24 -152 3 -205 25 -47 89 -86 152 -91 45
-4 74 3 187 43 129 45 136 47 213 40 46 -4 116 -19 166 -36 93 -31 122 -35
166 -18 46 17 74 57 99 138 51 163 21 245 -145 410 -76 76 -112 133 -159 256
-23 60 -39 164 -47 305 -5 93 -3 117 21 205 58 224 58 288 0 382 -20 32 -49
67 -66 76 -16 10 -31 26 -34 35 -9 26 -66 51 -144 62 -86 12 -104 11 -177 -9z"/>
<path d="M9680 31351 c-49 -10 -101 -47 -145 -106 -21 -28 -42 -52 -47 -53 -5
-2 -20 -26 -33 -52 -14 -27 -29 -51 -35 -55 -18 -11 -47 -78 -66 -155 -28
-112 -25 -263 8 -366 44 -134 44 -271 2 -421 -26 -92 -91 -187 -183 -268 -57
-50 -106 -153 -121 -255 -20 -136 54 -271 119 -217 9 7 36 21 61 31 25 10 52
21 60 26 25 12 122 38 170 45 52 7 172 -10 209 -30 46 -24 123 -45 169 -45
113 0 222 135 222 276 0 62 -36 150 -81 196 -36 38 -69 97 -121 218 -20 48
-23 71 -23 175 1 150 6 163 136 350 80 114 97 152 108 228 10 70 9 78 -19 156
-15 45 -44 103 -64 130 -19 27 -44 67 -55 90 -45 87 -148 126 -271 102z"/>
<path d="M38540 31348 c-52 -17 -98 -54 -121 -99 -11 -23 -36 -63 -55 -90 -20
-27 -49 -85 -64 -130 -28 -78 -29 -86 -19 -156 11 -76 28 -114 108 -228 130
-187 135 -200 136 -350 0 -104 -3 -127 -23 -175 -52 -121 -85 -180 -121 -218
-45 -46 -81 -134 -81 -196 0 -141 109 -276 222 -276 46 0 123 21 169 45 37 20
157 37 209 30 48 -7 145 -33 170 -45 8 -5 35 -16 60 -26 25 -10 52 -24 61 -31
65 -54 139 81 119 217 -15 102 -64 205 -121 255 -92 81 -157 176 -183 268 -42
150 -42 287 2 421 33 103 36 254 8 366 -19 77 -48 144 -66 155 -6 3 -20 25
-32 48 -11 23 -34 56 -50 72 -16 17 -37 43 -46 58 -30 50 -99 86 -177 91 -39
3 -86 0 -105 -6z"/>
<path d="M13475 30895 c-28 -6 -60 -17 -71 -23 -12 -6 -42 -16 -67 -22 -46
-10 -140 -59 -209 -108 -68 -49 -110 -131 -128 -252 -10 -69 -9 -83 16 -175
45 -172 58 -329 34 -410 -4 -16 -14 -77 -20 -135 -7 -58 -18 -121 -26 -140 -7
-19 -18 -75 -24 -125 -6 -49 -25 -132 -41 -183 -16 -51 -29 -105 -29 -120 0
-86 -79 -380 -114 -427 -13 -16 -26 -39 -30 -50 -3 -11 -26 -52 -51 -90 -25
-39 -45 -75 -45 -81 0 -6 -11 -21 -24 -34 -45 -41 -124 -191 -132 -247 -9 -73
3 -157 28 -185 11 -13 26 -35 34 -51 20 -38 77 -71 159 -90 67 -16 76 -16 190
2 108 18 129 19 210 7 50 -8 112 -22 138 -31 53 -19 153 -70 177 -90 26 -22
134 -40 216 -36 44 2 185 154 221 238 11 25 16 69 16 133 1 84 -2 102 -27 155
-65 138 -81 195 -80 285 0 114 12 363 28 575 8 105 12 193 10 197 -5 8 13 274
27 398 6 52 21 124 34 160 12 36 29 85 36 109 7 25 24 60 36 78 13 19 23 38
23 44 0 5 7 20 15 33 9 13 19 68 25 131 6 59 13 112 16 116 8 13 -15 138 -39
212 -12 37 -33 78 -47 92 -43 41 -298 138 -390 147 -25 3 -68 0 -95 -7z"/>
<path d="M34780 30900 c-97 -15 -330 -107 -370 -145 -14 -14 -35 -55 -47 -92
-24 -74 -47 -199 -39 -212 3 -4 10 -57 16 -116 6 -63 16 -118 25 -131 8 -13
15 -28 15 -33 0 -6 10 -25 23 -44 12 -18 29 -53 36 -78 7 -24 24 -73 36 -109
13 -36 28 -108 34 -160 14 -124 32 -390 27 -398 -2 -4 2 -92 10 -197 16 -212
28 -461 28 -575 1 -90 -15 -147 -80 -285 -25 -53 -28 -71 -27 -155 0 -64 5
-108 16 -133 36 -84 177 -236 221 -238 82 -4 190 14 216 36 24 20 124 71 177
90 26 9 89 23 138 31 81 12 102 11 210 -7 114 -18 123 -18 190 -2 82 19 139
52 159 90 8 16 23 38 34 51 25 28 37 112 28 185 -8 56 -87 206 -132 247 -13
13 -24 28 -24 34 0 6 -20 42 -45 81 -25 38 -48 79 -51 90 -4 11 -17 34 -30 50
-35 47 -114 341 -114 427 0 15 -13 69 -29 120 -16 51 -35 134 -41 183 -6 50
-17 106 -24 125 -8 19 -19 82 -26 140 -6 58 -16 119 -20 135 -24 81 -11 238
34 410 25 92 26 106 16 175 -18 121 -60 203 -128 252 -69 49 -163 98 -209 108
-25 6 -55 16 -66 22 -19 10 -126 38 -137 36 -3 0 -25 -4 -50 -8z"/>
<path d="M17305 30570 c-30 -12 -75 -43 -111 -77 -81 -77 -99 -131 -96 -288 1
-60 7 -140 13 -176 9 -59 7 -82 -15 -192 -25 -120 -58 -217 -75 -217 -4 0 -16
-17 -25 -38 -9 -21 -53 -76 -97 -122 -43 -46 -79 -90 -79 -98 0 -7 -14 -27
-30 -44 -37 -37 -42 -46 -74 -137 -41 -118 -34 -150 48 -230 l45 -44 175 -3
c163 -3 180 -6 238 -30 35 -14 70 -32 78 -38 8 -7 47 -30 85 -51 61 -34 79
-38 140 -39 63 -1 74 2 109 29 47 36 86 117 86 178 0 85 -40 243 -76 302 -7
11 -29 70 -50 130 -33 96 -38 125 -42 225 -5 132 9 241 39 306 12 24 64 88
115 141 127 132 148 197 95 299 -36 71 -178 190 -261 220 -54 20 -176 16 -235
-6z"/>
<path d="M30830 30576 c-83 -30 -225 -149 -261 -220 -53 -102 -32 -167 95
-299 51 -53 103 -117 115 -141 30 -65 44 -174 39 -306 -4 -100 -9 -129 -42
-225 -21 -60 -43 -119 -50 -130 -36 -59 -76 -217 -76 -302 0 -61 39 -142 86
-178 35 -27 46 -30 109 -29 61 1 79 5 140 39 39 21 77 44 85 51 8 6 43 24 78
38 58 24 75 27 238 30 l175 3 45 44 c82 80 89 112 48 230 -32 91 -37 100 -74
137 -16 17 -30 37 -30 44 0 8 -36 52 -79 98 -44 46 -88 101 -97 122 -9 21 -21
38 -25 38 -17 0 -50 97 -75 217 -22 110 -24 133 -15 192 6 36 12 116 13 176 3
157 -15 211 -96 288 -76 72 -139 97 -239 97 -40 -1 -88 -7 -107 -14z"/>
<path d="M9321 29304 c-172 -88 -321 -257 -321 -366 0 -53 17 -123 45 -183 13
-27 33 -72 45 -100 12 -27 31 -68 41 -89 11 -23 19 -62 19 -90 0 -28 5 -91 11
-141 6 -49 12 -124 13 -165 1 -41 10 -172 20 -290 25 -311 27 -401 15 -529
-10 -108 -38 -251 -72 -371 -28 -97 -48 -204 -47 -250 1 -66 28 -150 58 -180
15 -15 44 -48 64 -73 35 -42 42 -45 98 -52 l60 -7 76 58 c42 31 108 70 148 87
66 28 76 29 156 23 47 -3 112 -13 145 -21 81 -20 202 -19 251 1 59 24 174 113
174 134 0 10 7 35 16 56 25 61 3 162 -50 225 -13 16 -30 45 -36 66 -7 21 -25
59 -41 84 -52 82 -109 239 -135 369 -17 86 -47 399 -63 671 -11 175 -8 281 9
304 4 6 12 24 18 42 6 18 29 57 52 87 32 43 43 67 49 113 11 79 7 157 -12 223
-9 30 -21 76 -28 103 -22 90 -165 208 -271 223 -58 8 -103 22 -166 51 -41 19
-75 26 -150 30 l-97 4 -94 -47z"/>
<path d="M38771 29339 c-24 -5 -53 -15 -65 -22 -27 -18 -109 -44 -164 -51
-106 -15 -249 -133 -271 -223 -7 -27 -19 -73 -28 -103 -19 -66 -23 -144 -12
-223 6 -46 17 -70 49 -113 23 -30 46 -69 52 -87 6 -18 14 -36 18 -42 17 -23
20 -129 9 -304 -16 -272 -46 -585 -63 -671 -26 -130 -83 -287 -135 -369 -16
-25 -34 -63 -41 -84 -6 -21 -23 -50 -36 -66 -53 -63 -75 -164 -50 -225 9 -21
16 -46 16 -56 0 -21 115 -110 174 -134 49 -20 170 -21 251 -1 33 8 98 18 145
21 80 6 90 5 156 -23 40 -17 106 -56 148 -87 l76 -58 60 7 c56 7 63 10 98 52
20 25 49 58 64 73 30 30 57 114 58 180 1 46 -19 153 -47 250 -34 120 -62 263
-72 371 -12 128 -10 218 15 529 10 118 19 249 20 290 1 41 7 116 13 165 6 50
11 113 11 141 0 28 8 67 19 90 10 21 29 62 41 89 12 28 32 73 45 100 28 60 45
130 45 183 0 110 -150 280 -322 365 -86 43 -100 47 -164 46 -38 -1 -89 -5
-113 -10z"/>
<path d="M16829 28716 c-113 -40 -191 -111 -248 -226 -37 -73 -48 -124 -66
-320 -9 -91 -21 -176 -27 -190 -5 -14 -21 -65 -33 -115 -24 -94 -80 -254 -120
-340 -98 -215 -123 -267 -157 -315 -20 -30 -52 -84 -69 -120 -18 -36 -49 -83
-70 -105 -38 -41 -136 -191 -165 -255 -53 -116 -64 -273 -22 -333 34 -48 51
-51 238 -52 134 -1 188 -5 233 -18 31 -10 57 -22 57 -27 0 -5 15 -16 33 -24
17 -7 88 -59 156 -115 190 -155 270 -183 366 -127 70 42 121 122 156 247 27
98 38 221 39 424 0 192 20 455 45 595 8 47 15 96 15 110 0 14 6 37 14 51 7 14
16 43 20 65 15 81 108 357 152 450 19 39 34 79 34 88 0 9 7 31 17 49 9 18 20
72 24 122 9 105 -9 193 -60 297 -27 54 -45 75 -102 117 -103 77 -125 84 -269
88 -111 2 -132 0 -191 -21z"/>
<path d="M31227 28729 c-49 -12 -68 -22 -149 -82 -54 -40 -72 -61 -99 -115
-51 -104 -69 -192 -60 -297 4 -50 15 -104 24 -122 10 -18 17 -40 17 -49 0 -9
15 -49 34 -88 44 -93 137 -369 152 -450 4 -22 13 -51 20 -65 8 -14 14 -37 14
-51 0 -14 7 -63 15 -110 25 -140 45 -403 45 -595 1 -203 12 -326 39 -424 35
-125 86 -205 156 -247 96 -56 176 -28 366 127 68 56 139 108 157 115 17 8 32
19 32 24 0 5 26 17 58 27 44 13 98 17 232 18 187 1 204 4 238 52 42 60 31 217
-22 333 -29 64 -127 214 -165 255 -21 22 -52 69 -70 105 -17 36 -49 90 -69
120 -34 48 -59 100 -157 315 -40 86 -96 246 -120 340 -12 50 -28 101 -33 115
-6 14 -18 99 -27 190 -18 196 -29 247 -66 320 -59 117 -137 187 -252 226 -57
19 -90 24 -171 23 -56 -1 -118 -5 -139 -10z"/>
<path d="M12980 27811 c-14 -5 -50 -14 -80 -20 -30 -7 -84 -24 -120 -38 -75
-30 -242 -137 -283 -182 -16 -17 -32 -31 -37 -31 -4 0 -17 -22 -29 -49 -29
-68 -28 -147 4 -236 89 -248 96 -273 105 -425 9 -165 4 -272 -17 -313 -8 -16
-23 -97 -33 -180 -20 -164 -34 -253 -51 -332 -5 -27 -21 -122 -34 -210 -28
-193 -38 -251 -74 -430 -6 -27 -19 -120 -31 -205 -25 -183 -38 -264 -51 -307
-5 -17 -17 -80 -25 -140 -9 -59 -20 -128 -24 -153 -5 -25 -16 -94 -24 -155 -9
-60 -20 -120 -26 -133 -5 -13 -10 -35 -10 -50 0 -50 -50 -183 -97 -260 -46
-76 -118 -162 -136 -162 -13 0 -186 -160 -199 -185 -38 -69 -69 -186 -74 -280
-6 -87 -3 -110 16 -174 50 -164 186 -238 374 -205 117 21 395 20 436 -1 17 -9
64 -24 103 -35 87 -22 123 -36 131 -49 3 -5 20 -13 37 -16 28 -6 136 -55 200
-90 14 -8 47 -21 74 -30 65 -23 108 -13 141 30 14 19 34 37 44 40 38 12 102
185 121 322 19 150 -6 284 -73 377 -15 21 -28 46 -28 55 0 9 -11 47 -25 85
-21 57 -25 87 -25 170 0 56 5 130 10 166 6 36 17 112 25 170 8 58 19 134 25
170 5 36 26 166 45 290 18 124 43 275 54 335 30 164 29 160 47 305 8 74 22
162 29 195 13 56 29 154 70 430 10 61 23 150 30 199 8 48 20 123 28 165 9 42
21 114 27 161 7 47 18 99 25 115 8 17 25 55 38 85 14 30 35 78 46 105 12 28
28 63 36 78 8 16 15 33 15 39 0 6 18 40 41 75 63 101 107 204 115 271 7 65 -9
211 -32 279 -16 51 -93 154 -126 170 -12 6 -74 18 -136 27 -109 16 -186 44
-242 91 -34 28 -120 57 -195 65 -44 5 -91 11 -105 14 -14 3 -36 1 -50 -3z"/>
<path d="M35320 27811 c-8 -5 -49 -11 -90 -14 -71 -5 -155 -32 -190 -62 -56
-47 -133 -75 -242 -91 -62 -9 -124 -21 -136 -27 -33 -16 -110 -119 -126 -170
-23 -68 -39 -214 -32 -279 8 -67 52 -170 115 -271 23 -35 41 -69 41 -75 0 -6
7 -23 15 -39 8 -15 24 -50 36 -78 11 -27 32 -75 46 -105 13 -30 30 -68 38 -85
7 -16 18 -68 25 -115 6 -47 18 -119 27 -161 8 -42 20 -117 28 -165 7 -49 20
-138 30 -199 41 -276 57 -374 70 -430 7 -33 21 -121 29 -195 18 -145 17 -141
47 -305 11 -60 36 -211 54 -335 19 -124 40 -254 45 -290 6 -36 17 -112 25
-170 8 -58 19 -134 25 -170 5 -36 10 -110 10 -166 0 -83 -4 -113 -25 -170 -14
-38 -25 -76 -25 -85 0 -9 -13 -34 -28 -55 -107 -150 -105 -407 5 -641 14 -29
33 -55 43 -58 10 -3 30 -21 44 -40 33 -43 76 -53 141 -30 27 9 60 22 74 30 64
35 172 84 200 90 17 3 34 11 37 16 8 13 44 27 131 49 39 11 86 26 103 35 41
21 319 22 436 1 188 -33 324 41 374 205 19 64 22 87 16 174 -5 94 -36 211 -74
280 -13 25 -186 185 -199 185 -18 0 -90 86 -136 162 -47 77 -97 210 -97 260 0
15 -5 37 -10 50 -6 13 -17 73 -26 133 -8 61 -19 130 -24 155 -4 25 -15 94 -24
153 -8 60 -20 123 -25 140 -13 43 -26 124 -51 307 -12 85 -25 178 -31 205 -36
179 -46 237 -74 430 -13 88 -29 183 -34 210 -17 79 -31 168 -51 332 -10 83
-25 164 -33 180 -21 41 -26 148 -17 313 9 152 16 177 105 425 32 89 33 168 4
236 -12 27 -25 49 -29 49 -5 0 -21 14 -37 31 -41 45 -208 152 -283 182 -36 14
-90 31 -120 38 -30 6 -68 15 -84 20 -35 11 -47 11 -66 0z"/>
<path d="M4233 27636 c-105 -22 -158 -97 -170 -242 -6 -64 23 -172 60 -229 33
-49 31 -47 107 -120 54 -51 104 -115 145 -185 6 -10 16 -24 22 -31 6 -8 14
-25 18 -39 4 -14 16 -36 25 -50 10 -14 24 -45 31 -70 7 -25 18 -49 24 -55 7
-5 17 -30 24 -55 8 -25 17 -56 21 -70 5 -14 14 -69 20 -122 12 -97 5 -173 -20
-203 -16 -19 -33 -99 -31 -149 2 -67 24 -113 77 -163 40 -39 55 -47 76 -44 4
0 19 -4 33 -9 43 -16 107 6 162 56 90 84 100 92 124 99 13 4 31 13 39 20 20
16 77 35 107 35 13 0 38 7 56 15 103 49 120 78 133 226 5 55 4 57 -41 107 -34
37 -59 55 -98 68 -29 9 -63 25 -77 34 -14 10 -34 20 -46 24 -22 7 -134 111
-134 125 0 5 -6 16 -12 23 -7 8 -29 44 -48 82 -19 37 -41 70 -47 73 -7 3 -13
10 -13 15 0 5 -13 39 -30 75 -16 35 -30 67 -30 71 -1 4 -9 25 -20 47 -11 22
-19 45 -20 51 0 6 -8 33 -19 60 -35 92 -41 120 -46 213 -3 52 -9 99 -14 105
-5 6 -12 26 -16 44 -3 17 -11 32 -16 32 -5 0 -9 6 -9 14 0 24 -84 90 -138 109
-62 23 -139 27 -209 13z"/>
<path d="M43970 27636 c-25 -7 -57 -18 -72 -24 -35 -15 -108 -81 -108 -98 0
-8 -4 -14 -9 -14 -5 0 -13 -15 -16 -32 -4 -18 -11 -38 -16 -44 -5 -6 -11 -53
-14 -105 -5 -93 -11 -121 -46 -213 -11 -27 -19 -54 -19 -60 -1 -6 -9 -29 -20
-51 -11 -22 -19 -43 -20 -47 0 -4 -13 -36 -30 -71 -16 -36 -30 -70 -30 -75 0
-5 -6 -12 -12 -15 -7 -3 -29 -36 -48 -73 -19 -38 -41 -74 -47 -82 -7 -7 -13
-18 -13 -23 0 -14 -112 -118 -134 -125 -12 -4 -32 -14 -46 -24 -14 -9 -48 -25
-77 -34 -39 -13 -64 -31 -98 -68 -45 -50 -46 -52 -41 -107 13 -148 30 -177
133 -226 18 -8 43 -15 56 -15 30 0 87 -19 107 -35 8 -7 26 -16 39 -20 24 -7
34 -15 124 -99 55 -50 119 -72 162 -56 14 5 29 9 33 9 21 -3 36 5 76 44 53 50
75 96 77 163 2 50 -15 130 -31 149 -25 30 -32 106 -20 203 6 53 15 108 20 122
4 14 13 45 21 70 7 25 17 50 24 55 6 6 17 30 24 55 7 25 21 56 31 70 9 14 21
36 25 50 4 14 12 31 18 39 6 7 16 21 22 31 41 70 91 134 145 185 76 73 74 71
107 120 89 136 74 361 -28 437 -51 38 -175 55 -249 34z"/>
<path d="M9659 26433 c-26 -3 -57 -21 -115 -69 -128 -106 -154 -135 -192 -214
-31 -64 -36 -88 -40 -163 -4 -81 -3 -90 21 -125 14 -20 28 -53 32 -72 4 -19
18 -55 30 -80 42 -85 53 -174 60 -488 9 -424 36 -866 76 -1282 5 -58 14 -147
19 -198 5 -51 12 -97 15 -102 4 -6 10 -59 15 -118 13 -150 55 -476 64 -490 9
-14 -16 -247 -29 -277 -55 -126 -82 -171 -146 -249 -122 -148 -158 -217 -171
-334 l-10 -83 48 -96 c27 -53 64 -111 83 -128 44 -42 140 -90 223 -112 65 -16
73 -16 190 1 68 9 141 22 163 28 59 16 264 -12 347 -48 131 -55 254 -55 340 2
21 13 43 24 50 24 16 0 63 57 113 135 42 64 62 149 72 290 6 89 -19 194 -57
242 -11 14 -25 43 -30 65 -6 21 -23 60 -38 86 -28 48 -57 112 -87 192 -9 25
-27 68 -40 95 -28 59 -41 100 -54 175 -5 30 -14 75 -20 100 -5 25 -15 83 -21
130 -5 47 -19 150 -30 230 -11 80 -20 162 -20 182 0 21 -4 57 -10 80 -5 24
-16 104 -25 178 -15 138 -27 227 -45 360 -39 289 -62 473 -66 522 -2 32 -8 67
-15 79 -19 36 -40 426 -29 541 5 54 12 104 16 109 3 5 10 35 14 67 5 31 23
109 40 172 49 188 38 376 -29 473 -18 26 -36 47 -41 47 -5 0 -22 12 -39 26
-42 35 -107 53 -210 59 -125 7 -190 15 -239 31 -40 13 -101 15 -183 7z"/>
<path d="M38528 26426 c-42 -15 -112 -24 -239 -31 -103 -6 -168 -24 -210 -59
-17 -14 -34 -26 -39 -26 -5 0 -23 -21 -41 -47 -67 -97 -78 -285 -29 -473 17
-63 35 -141 40 -172 4 -32 11 -62 14 -67 4 -5 11 -55 16 -109 11 -115 -10
-505 -29 -541 -7 -12 -13 -47 -15 -79 -4 -49 -27 -233 -66 -522 -18 -133 -30
-222 -45 -360 -9 -74 -20 -154 -25 -178 -6 -23 -10 -59 -10 -80 0 -20 -9 -102
-20 -182 -11 -80 -25 -183 -30 -230 -6 -47 -16 -105 -21 -130 -6 -25 -15 -70
-20 -100 -13 -75 -26 -116 -54 -175 -13 -27 -31 -70 -40 -95 -30 -80 -59 -144
-87 -192 -15 -26 -32 -65 -38 -86 -5 -22 -19 -51 -30 -65 -38 -48 -63 -153
-57 -242 10 -141 30 -226 72 -290 50 -78 97 -135 113 -135 7 0 29 -11 50 -24
86 -57 209 -57 340 -2 83 36 288 64 347 48 22 -6 95 -19 163 -28 117 -17 125
-17 190 -1 83 22 179 70 223 112 19 17 56 75 83 128 l48 96 -10 83 c-13 117
-49 186 -171 334 -64 78 -91 123 -146 249 -13 30 -38 263 -29 277 9 14 51 340
64 490 5 59 11 112 15 118 3 5 10 51 15 102 5 51 14 140 19 198 40 416 67 858
76 1282 7 314 18 403 60 488 12 25 26 61 30 80 4 19 18 52 32 72 24 35 25 44
21 125 -4 75 -9 99 -40 163 -38 79 -64 108 -191 213 -68 56 -85 65 -130 71
-78 9 -128 7 -169 -8z"/>
<path d="M15736 26178 c-33 -10 -74 -29 -92 -43 -44 -34 -123 -174 -177 -314
-69 -178 -75 -200 -112 -381 -8 -41 -20 -95 -26 -120 -6 -25 -17 -75 -25 -112
-7 -37 -18 -76 -23 -87 -6 -11 -16 -55 -22 -98 -5 -43 -21 -109 -33 -148 -13
-38 -29 -97 -36 -130 -25 -122 -86 -314 -179 -560 -17 -44 -35 -99 -41 -122
-6 -23 -15 -45 -20 -48 -10 -6 -62 -114 -90 -185 -20 -50 -66 -124 -102 -162
-17 -18 -37 -47 -44 -65 -8 -17 -17 -33 -21 -35 -7 -3 -72 -96 -152 -217 -13
-20 -38 -52 -56 -71 -18 -19 -36 -45 -40 -58 -3 -12 -25 -43 -47 -69 -22 -26
-51 -63 -64 -82 -55 -81 -76 -108 -119 -156 -50 -54 -115 -143 -141 -190 -9
-16 -37 -54 -61 -82 -24 -29 -49 -67 -54 -85 -14 -49 -1 -124 28 -159 41 -49
76 -60 207 -69 157 -11 273 -37 476 -108 80 -28 219 -99 265 -136 123 -98 236
-116 356 -55 39 20 127 120 134 153 12 60 26 167 40 311 16 158 37 312 56 410
5 28 13 75 18 106 5 31 15 78 24 105 8 27 18 72 22 99 4 28 11 55 16 61 5 6
21 58 35 115 14 57 32 111 40 120 8 8 14 24 14 35 1 10 9 37 20 59 11 22 19
47 20 56 0 15 30 94 49 129 5 8 15 40 24 71 9 31 25 67 35 80 9 13 23 42 31
64 7 22 37 90 66 150 30 61 63 135 75 165 12 30 27 62 34 70 22 26 73 124 80
154 4 15 20 45 36 65 15 20 57 90 91 156 34 66 75 136 90 155 31 40 123 217
156 300 12 30 32 91 43 135 12 44 26 94 31 110 5 17 14 78 20 137 l11 107 -51
103 c-46 91 -60 110 -126 167 -117 101 -243 190 -283 200 -20 5 -107 11 -192
13 -131 4 -164 2 -214 -14z"/>
<path d="M32370 26190 c-163 -6 -162 -6 -280 -95 -179 -134 -215 -172 -271
-283 l-51 -103 11 -107 c6 -59 15 -120 20 -137 5 -16 19 -66 31 -110 11 -44
31 -105 43 -135 33 -83 125 -260 156 -300 15 -19 56 -89 90 -155 34 -66 76
-136 91 -156 16 -20 32 -50 36 -65 7 -30 58 -128 80 -154 7 -8 22 -40 34 -70
12 -30 45 -104 75 -165 29 -60 59 -128 66 -150 8 -22 22 -51 31 -64 10 -13 26
-49 35 -80 9 -31 19 -63 24 -71 19 -35 49 -114 49 -129 1 -9 9 -34 20 -56 11
-22 19 -49 20 -59 0 -11 6 -27 14 -35 8 -9 26 -63 40 -120 14 -57 30 -109 35
-115 5 -6 12 -33 16 -61 4 -27 14 -72 22 -99 9 -27 19 -74 24 -105 5 -31 13
-78 18 -106 19 -98 40 -252 56 -410 14 -144 28 -251 40 -311 7 -33 95 -133
134 -153 120 -61 233 -43 356 55 143 114 485 227 741 244 131 9 166 20 207 69
29 35 42 110 28 159 -5 18 -30 56 -54 85 -24 28 -52 66 -61 82 -26 47 -91 136
-141 190 -43 48 -64 75 -119 156 -13 19 -42 56 -64 82 -22 26 -44 57 -47 69
-4 13 -22 39 -40 58 -18 19 -43 51 -56 71 -80 121 -145 214 -152 217 -4 2 -13
18 -21 35 -7 18 -27 47 -44 65 -36 38 -82 112 -102 162 -28 71 -80 179 -90
185 -5 3 -14 25 -20 48 -6 23 -24 78 -41 122 -93 246 -154 438 -179 560 -7 33
-23 92 -36 130 -12 39 -28 105 -33 148 -6 43 -16 87 -22 98 -5 11 -16 50 -23
87 -8 37 -19 87 -25 112 -6 25 -18 79 -26 120 -37 181 -43 203 -112 381 -53
140 -133 280 -177 314 -36 27 -148 66 -186 63 -14 -1 -90 -4 -170 -8z"/>
<path d="M5395 25898 c-25 -15 -130 -37 -175 -38 -42 0 -167 -58 -195 -90 -11
-12 -36 -33 -57 -46 -29 -19 -40 -35 -58 -89 -20 -59 -21 -78 -15 -198 6 -117
10 -139 35 -193 24 -48 40 -67 82 -94 67 -43 163 -134 190 -180 12 -19 31 -46
44 -60 12 -14 42 -63 66 -110 25 -47 49 -94 55 -105 11 -22 29 -77 61 -195 20
-73 35 -172 52 -357 6 -64 16 -104 32 -134 13 -23 30 -54 38 -69 25 -46 79
-100 101 -100 11 0 29 5 40 10 23 13 99 93 115 122 18 33 134 117 193 139 42
15 92 22 202 28 173 9 203 21 239 99 20 42 21 52 11 92 -9 37 -26 58 -93 120
-44 41 -180 174 -301 295 -227 228 -280 296 -312 403 -19 61 -19 204 0 266 26
86 20 176 -22 298 -36 107 -37 109 -96 153 -58 44 -60 45 -135 45 -43 0 -86
-6 -97 -12z"/>
<path d="M42743 25865 c-59 -44 -60 -46 -96 -153 -42 -122 -48 -212 -22 -298
19 -62 19 -205 0 -266 -32 -107 -85 -175 -312 -403 -121 -121 -257 -254 -301
-295 -67 -62 -84 -83 -93 -120 -10 -40 -9 -50 11 -92 36 -78 66 -90 239 -99
110 -6 160 -13 202 -28 59 -22 175 -106 193 -139 16 -29 92 -109 115 -122 11
-5 29 -10 40 -10 22 0 76 54 101 100 8 15 25 46 38 69 16 30 26 70 32 134 17
185 32 284 52 357 32 118 50 173 61 195 6 11 30 58 55 105 24 47 54 96 66 110
13 14 32 41 44 60 27 46 123 137 190 180 42 27 58 46 82 94 25 54 29 76 35
193 6 120 5 139 -15 198 -18 54 -29 70 -58 89 -21 13 -46 34 -57 46 -28 32
-153 90 -195 90 -45 1 -148 23 -177 38 -12 7 -55 12 -96 12 -73 0 -76 -1 -134
-45z"/>
<path d="M6495 24040 c-16 -5 -57 -18 -90 -30 -41 -14 -95 -22 -170 -26 -60
-3 -128 -10 -151 -15 -56 -15 -154 -90 -170 -131 -7 -18 -29 -73 -50 -123 -67
-159 -59 -265 30 -403 23 -37 51 -84 61 -105 21 -46 110 -128 167 -156 24 -11
70 -27 102 -35 33 -9 67 -23 76 -31 9 -8 20 -15 24 -15 22 0 82 -55 110 -101
80 -133 107 -180 153 -269 59 -112 113 -211 123 -225 4 -5 37 -66 73 -135 35
-69 74 -141 85 -160 12 -19 33 -57 47 -85 37 -71 82 -152 159 -290 63 -111 85
-158 122 -259 8 -21 21 -48 29 -60 8 -11 15 -33 15 -48 0 -15 6 -42 14 -60 22
-53 54 -207 61 -288 3 -41 9 -115 14 -163 l9 -88 53 -51 52 -51 98 5 c94 5
100 6 155 44 31 21 70 55 85 74 16 19 56 70 90 113 61 78 119 123 229 182 52
27 92 40 225 70 73 16 175 74 209 118 52 67 79 146 79 227 0 65 -4 83 -31 135
-17 33 -48 74 -69 91 -21 17 -110 66 -198 109 -163 80 -318 177 -390 244 -22
20 -59 50 -82 65 -24 16 -43 33 -43 37 0 5 -46 55 -101 112 -56 56 -120 127
-142 157 -49 67 -164 198 -195 223 -12 10 -29 31 -37 45 -7 15 -31 45 -52 67
-21 22 -65 74 -98 115 -33 41 -72 89 -86 105 -76 85 -119 140 -119 150 0 6
-11 26 -25 45 -42 57 -101 260 -109 375 -9 116 -36 225 -78 310 -80 162 -155
215 -263 185z"/>
<path d="M41747 24029 c-67 -35 -147 -170 -185 -309 -11 -41 -24 -120 -28
-175 -8 -115 -67 -318 -109 -375 -14 -19 -25 -39 -25 -45 0 -10 -43 -65 -119
-150 -14 -16 -53 -64 -86 -105 -33 -41 -77 -93 -98 -115 -21 -22 -45 -52 -52
-67 -8 -14 -25 -35 -37 -45 -31 -25 -146 -156 -195 -223 -22 -30 -86 -101
-142 -157 -55 -57 -101 -107 -101 -112 0 -4 -19 -21 -42 -37 -24 -15 -61 -45
-83 -65 -72 -67 -227 -164 -390 -244 -88 -43 -177 -92 -198 -109 -21 -17 -52
-58 -69 -91 -27 -52 -31 -70 -31 -135 0 -81 27 -160 79 -227 34 -44 136 -102
209 -118 133 -30 173 -43 225 -70 110 -59 168 -104 229 -182 34 -43 74 -94 90
-113 15 -19 54 -53 85 -74 55 -38 61 -39 155 -44 l98 -5 52 51 53 51 9 88 c5
48 11 122 14 163 7 81 39 235 61 288 8 18 14 45 14 60 0 15 7 37 15 48 8 12
21 39 29 60 37 101 59 148 122 259 77 138 122 219 159 290 14 28 35 66 47 85
11 19 50 91 85 160 36 69 69 130 73 135 10 14 64 113 123 225 46 89 73 136
153 269 28 46 88 101 110 101 4 0 15 7 24 15 9 8 43 22 76 31 32 8 78 24 102
35 57 28 146 110 167 156 10 21 38 68 61 105 89 138 97 244 30 403 -21 50 -43
105 -50 123 -16 41 -114 116 -170 131 -23 5 -90 12 -151 15 -74 4 -129 12
-170 26 -131 46 -162 49 -218 19z"/>
<path d="M12065 22800 c-62 -18 -174 -40 -206 -40 -76 -1 -205 -64 -305 -150
-40 -34 -92 -116 -105 -165 -7 -22 -18 -59 -27 -83 -22 -62 -22 -249 -1 -283
9 -13 20 -44 24 -67 4 -27 27 -73 61 -122 69 -102 122 -208 146 -290 15 -55
18 -99 18 -290 0 -124 -4 -256 -10 -295 -9 -67 -22 -260 -35 -520 -3 -66 -10
-138 -15 -160 -5 -22 -14 -139 -20 -260 -11 -228 -45 -719 -56 -815 -4 -30 -8
-89 -9 -130 -5 -153 -26 -426 -36 -470 -11 -50 -29 -408 -22 -427 3 -7 -2 -56
-11 -110 -9 -54 -20 -192 -26 -307 -10 -203 -20 -263 -66 -426 -18 -65 -91
-220 -103 -220 -13 0 -79 -144 -113 -243 l-30 -91 8 -161 c8 -159 7 -536 -2
-566 -13 -45 40 -192 104 -289 32 -48 125 -115 196 -141 50 -18 87 -22 245
-26 167 -5 194 -3 265 16 43 11 99 33 125 49 25 15 60 34 78 41 35 14 151 133
198 202 34 49 75 134 75 154 0 7 9 40 20 74 15 49 19 88 18 197 0 88 -5 145
-13 162 -34 70 -75 172 -75 185 0 13 -28 45 -63 74 -9 7 -19 34 -23 60 -3 27
-11 57 -17 67 -5 11 -16 47 -23 80 -59 264 -65 346 -39 534 8 59 22 206 30
327 9 121 20 245 25 275 9 54 28 284 35 425 2 39 10 129 19 200 8 72 20 199
25 282 6 84 15 172 20 195 5 24 15 120 21 213 6 94 15 208 20 255 6 47 15 139
20 205 6 66 17 188 25 270 8 83 22 224 30 315 33 352 55 522 73 556 6 10 20
48 32 84 13 36 35 90 50 120 32 63 146 219 166 227 7 3 29 26 48 51 20 26 53
69 74 95 87 109 192 371 200 498 5 89 -16 176 -56 228 -14 19 -41 57 -60 85
-68 102 -142 158 -327 250 -146 73 -248 97 -430 102 -77 2 -153 -1 -170 -6z"/>
<path d="M36010 22800 c-107 -14 -196 -42 -305 -96 -185 -92 -259 -148 -327
-250 -19 -28 -46 -66 -60 -85 -40 -52 -61 -139 -56 -228 8 -127 113 -389 200
-498 21 -26 54 -69 74 -95 19 -25 41 -48 48 -51 20 -8 134 -164 166 -227 15
-30 37 -84 50 -120 12 -36 26 -74 32 -84 18 -34 40 -204 73 -556 8 -91 22
-232 30 -315 8 -82 19 -204 25 -270 5 -66 14 -158 20 -205 5 -47 14 -161 20
-255 6 -93 16 -189 21 -213 5 -23 14 -111 20 -195 5 -83 17 -210 25 -282 9
-71 17 -161 19 -200 7 -141 26 -371 35 -425 5 -30 16 -154 25 -275 8 -121 22
-268 30 -327 26 -188 20 -270 -39 -534 -7 -33 -18 -69 -23 -80 -6 -10 -14 -40
-17 -67 -4 -26 -14 -53 -23 -60 -35 -29 -63 -61 -63 -74 0 -13 -41 -115 -75
-185 -8 -17 -13 -74 -13 -162 -1 -109 3 -148 18 -197 11 -34 20 -67 20 -74 0
-20 41 -105 75 -154 47 -69 163 -188 198 -202 18 -7 53 -26 78 -41 26 -16 82
-38 125 -49 71 -19 98 -21 265 -16 158 4 195 8 245 26 71 26 164 93 196 141
64 97 117 244 104 289 -9 30 -10 407 -2 566 l8 161 -30 91 c-34 99 -100 243
-113 243 -12 0 -85 155 -103 220 -46 163 -56 223 -66 426 -6 115 -17 253 -26
307 -9 54 -14 103 -11 110 7 19 -11 377 -22 427 -10 44 -31 317 -36 470 -1 41
-5 100 -9 130 -11 96 -45 587 -56 815 -6 121 -15 238 -20 260 -5 22 -12 94
-15 160 -13 260 -26 453 -35 520 -6 39 -10 171 -10 295 0 191 3 235 18 290 24
82 77 188 146 290 34 49 57 95 61 122 4 23 15 54 24 67 21 34 21 221 -1 283
-9 24 -20 61 -27 83 -13 49 -65 131 -105 165 -100 86 -229 149 -305 150 -30 0
-122 18 -212 41 -41 10 -207 10 -289 -1z"/>
<path d="M14150 22087 c-68 -16 -147 -56 -180 -92 -14 -15 -36 -33 -50 -40
-41 -21 -153 -256 -187 -390 -26 -101 -28 -125 -28 -305 0 -201 8 -261 55
-415 10 -33 21 -78 25 -100 4 -22 15 -71 25 -110 39 -151 34 -356 -14 -510
-14 -44 -31 -107 -37 -140 -7 -33 -18 -74 -25 -91 -16 -39 -57 -208 -73 -299
-7 -38 -21 -101 -31 -140 -10 -38 -23 -99 -29 -135 -6 -36 -16 -81 -21 -100
-9 -34 -65 -325 -96 -500 -8 -47 -19 -103 -24 -125 -5 -22 -12 -67 -15 -100
-4 -33 -14 -89 -22 -125 -14 -59 -27 -143 -54 -345 -5 -38 -13 -123 -19 -187
-5 -65 -17 -153 -26 -195 -9 -43 -20 -125 -25 -183 -16 -190 -27 -284 -37
-330 -6 -25 -13 -92 -17 -150 -4 -58 -15 -150 -26 -205 -10 -55 -24 -127 -30
-160 -12 -62 -129 -310 -174 -370 -14 -17 -25 -35 -25 -39 0 -4 -21 -31 -46
-60 -25 -28 -72 -101 -104 -161 -76 -143 -96 -239 -86 -419 9 -164 32 -226
136 -371 105 -147 259 -228 465 -246 55 -4 112 -10 127 -13 71 -14 325 37 439
88 65 29 169 127 223 210 78 119 85 243 23 401 -68 172 -115 330 -148 490 -18
89 -22 152 -25 330 -2 124 1 238 7 260 24 98 39 172 39 198 0 15 7 53 15 85 8
31 24 118 36 192 12 74 26 158 31 185 15 81 26 144 42 240 8 50 22 128 31 175
17 87 29 159 44 265 5 33 18 103 29 155 11 52 26 129 32 170 6 41 18 107 26
145 16 79 65 367 95 555 11 69 24 139 29 155 5 17 16 73 25 125 13 83 43 247
75 415 5 28 19 113 30 190 48 315 149 543 284 639 63 45 182 164 228 226 23
32 68 116 103 195 27 60 35 112 34 240 0 187 -14 248 -84 390 -39 78 -62 110
-122 168 -40 39 -81 76 -91 81 -9 5 -31 21 -48 36 -28 24 -172 86 -256 111
-122 35 -393 55 -478 36z"/>
<path d="M34025 22094 c-79 -7 -211 -26 -265 -40 -86 -21 -250 -90 -279 -117
-14 -13 -34 -28 -43 -33 -10 -6 -51 -42 -91 -81 -60 -58 -83 -90 -122 -168
-70 -142 -84 -203 -84 -390 -1 -128 7 -180 34 -240 35 -79 80 -163 103 -195
46 -62 165 -181 228 -226 135 -96 236 -324 284 -639 11 -77 25 -162 30 -190
32 -168 62 -332 75 -415 9 -52 20 -108 25 -125 5 -16 18 -86 29 -155 30 -188
79 -476 95 -555 8 -38 20 -104 26 -145 6 -41 21 -118 32 -170 11 -52 24 -122
29 -155 15 -106 27 -178 44 -265 9 -47 23 -125 31 -175 16 -96 27 -159 42
-240 5 -27 19 -111 31 -185 12 -74 28 -161 36 -192 8 -32 15 -70 15 -85 0 -26
15 -100 39 -198 6 -22 9 -136 7 -260 -3 -178 -7 -241 -25 -330 -33 -160 -80
-318 -148 -490 -62 -158 -55 -282 23 -401 54 -83 158 -181 223 -210 114 -51
368 -102 439 -88 15 3 72 9 127 13 206 18 360 99 465 246 104 145 127 207 136
371 10 180 -10 276 -86 419 -32 60 -79 133 -104 161 -25 29 -46 56 -46 60 0 4
-11 22 -25 39 -45 60 -162 308 -174 370 -6 33 -20 105 -30 160 -11 55 -22 147
-26 205 -4 58 -11 125 -17 150 -10 46 -21 140 -37 330 -5 58 -16 140 -25 183
-9 42 -21 130 -26 195 -6 64 -14 149 -19 187 -27 202 -40 286 -54 345 -8 36
-18 92 -22 125 -3 33 -10 78 -15 100 -5 22 -16 78 -24 125 -31 175 -87 466
-96 500 -5 19 -15 64 -21 100 -6 36 -19 97 -29 135 -10 39 -24 102 -31 140
-16 91 -57 260 -73 299 -7 17 -18 58 -25 91 -6 33 -23 96 -37 140 -48 154 -53
359 -14 510 10 39 21 88 25 110 4 22 15 67 25 100 47 154 55 214 55 415 0 180
-2 204 -28 305 -34 134 -146 369 -187 390 -14 7 -36 25 -50 40 -35 38 -125 81
-195 94 -56 11 -91 11 -180 5z"/>
<path d="M9945 21674 c-103 -15 -201 -56 -269 -113 -26 -23 -52 -41 -56 -41
-5 0 -23 -28 -39 -62 -41 -84 -58 -220 -56 -448 3 -244 27 -406 84 -565 77
-216 90 -257 109 -345 26 -117 51 -258 50 -285 0 -11 4 -58 10 -105 12 -90 29
-300 72 -875 6 -82 15 -188 21 -235 13 -103 15 -140 27 -445 9 -243 8 -289 -2
-515 -9 -207 -36 -460 -71 -685 -13 -82 -27 -184 -30 -225 -7 -78 -48 -235
-65 -245 -6 -3 -8 -16 -5 -28 3 -12 1 -51 -5 -87 -38 -241 -54 -397 -51 -488
2 -53 74 -183 130 -233 48 -44 126 -97 166 -112 20 -8 198 -41 309 -57 42 -6
76 -5 117 5 65 15 196 72 207 90 4 6 27 25 52 42 44 30 62 57 113 173 27 62
47 199 42 290 -7 136 -25 243 -111 665 -14 66 -31 161 -38 210 -7 50 -18 103
-24 118 -7 16 -12 56 -12 90 0 34 -7 94 -15 132 -28 125 -38 206 -80 673 -14
150 -25 306 -25 346 0 40 -4 96 -10 124 -17 89 -28 921 -16 1207 9 204 16 253
65 441 42 164 181 474 232 520 21 19 116 202 146 279 47 125 55 270 19 357
-31 75 -116 175 -190 223 -50 32 -78 42 -200 66 -137 27 -231 59 -251 85 -25
33 -257 71 -350 58z"/>
<path d="M38248 21670 c-77 -14 -162 -41 -173 -54 -20 -26 -114 -58 -251 -85
-122 -24 -150 -34 -200 -66 -74 -48 -159 -148 -190 -223 -36 -87 -28 -232 19
-357 30 -77 125 -260 146 -279 51 -46 190 -356 232 -520 49 -188 56 -237 65
-441 12 -286 1 -1118 -16 -1207 -6 -28 -10 -84 -10 -124 0 -40 -11 -196 -25
-346 -42 -467 -52 -548 -80 -673 -8 -38 -15 -98 -15 -132 0 -34 -5 -74 -12
-90 -6 -15 -17 -68 -24 -118 -7 -49 -24 -144 -38 -210 -86 -422 -104 -529
-111 -665 -5 -91 15 -228 42 -290 51 -116 69 -143 113 -173 25 -17 48 -36 52
-42 11 -18 142 -75 207 -90 41 -10 75 -11 117 -5 111 16 289 49 309 57 40 15
118 68 166 112 56 50 128 180 130 233 3 91 -13 247 -51 488 -6 36 -8 75 -5 87
3 12 1 25 -5 28 -17 10 -58 167 -65 245 -3 41 -17 143 -30 225 -35 225 -62
478 -71 685 -10 226 -11 272 -2 515 12 305 14 342 27 445 6 47 15 153 21 235
43 575 60 785 72 875 6 47 10 94 10 105 -1 27 24 168 50 285 19 88 32 129 109
345 57 159 81 321 84 565 2 228 -15 364 -56 448 -16 34 -34 62 -39 62 -4 0
-30 18 -56 41 -83 70 -184 106 -314 113 -47 3 -106 1 -132 -4z"/>
<path d="M7974 20717 c-61 -12 -111 -40 -195 -111 -20 -17 -55 -46 -78 -64
-74 -60 -112 -158 -156 -404 -42 -237 -33 -379 31 -529 13 -31 24 -67 24 -81
0 -13 4 -28 8 -33 8 -10 23 -49 81 -205 37 -101 109 -371 117 -438 3 -26 12
-64 20 -85 8 -20 14 -54 14 -74 0 -19 4 -52 9 -72 5 -20 15 -74 21 -121 6 -47
18 -108 26 -135 8 -28 18 -97 24 -153 5 -57 14 -120 19 -140 5 -20 17 -82 26
-137 9 -55 22 -128 30 -162 11 -44 12 -69 5 -88 -6 -15 -8 -31 -5 -36 4 -5 13
-55 21 -111 9 -57 19 -107 24 -113 4 -5 15 -55 24 -110 22 -135 65 -370 76
-423 6 -23 10 -57 10 -75 0 -17 7 -63 14 -102 8 -39 16 -135 17 -215 1 -136
-3 -189 -31 -348 -6 -35 -8 -67 -6 -71 3 -4 1 -64 -5 -132 -16 -190 8 -321 88
-503 65 -146 172 -300 240 -345 60 -40 147 -57 213 -41 28 7 56 17 63 24 32
30 125 96 136 96 6 0 14 7 17 15 11 29 135 78 244 97 144 24 252 76 309 148
23 28 41 55 41 58 0 4 7 63 15 132 l15 125 -26 80 c-34 101 -55 144 -112 225
-70 98 -120 148 -197 198 -38 25 -76 54 -84 65 -8 11 -25 29 -38 41 -21 18
-53 70 -114 187 -11 19 -26 71 -33 115 -8 43 -22 99 -30 123 -9 24 -16 65 -16
90 0 26 -9 90 -21 142 -11 52 -24 121 -29 155 -4 34 -12 70 -18 81 -6 11 -16
60 -23 109 -6 49 -17 103 -25 119 -7 17 -15 55 -18 85 -4 53 -33 187 -61 280
-7 25 -21 99 -30 165 -17 123 -31 200 -61 340 -9 44 -23 114 -30 155 -8 41
-21 107 -29 145 -36 162 -52 433 -36 589 25 228 69 438 115 546 32 72 59 233
58 341 0 86 -16 157 -52 234 -10 22 -28 62 -40 90 -12 27 -37 69 -57 93 -50
61 -158 140 -217 158 -65 20 -243 26 -322 11z"/>
<path d="M40113 20715 c-73 -16 -90 -24 -165 -82 -71 -54 -121 -114 -148 -178
-12 -28 -30 -68 -40 -90 -36 -77 -52 -148 -52 -234 -1 -108 26 -269 58 -341
46 -108 90 -318 115 -546 16 -156 0 -427 -36 -589 -8 -38 -21 -104 -29 -145
-7 -41 -21 -111 -30 -155 -30 -140 -44 -217 -61 -340 -9 -66 -23 -140 -30
-165 -28 -93 -57 -227 -61 -280 -3 -30 -11 -68 -18 -85 -8 -16 -19 -70 -25
-119 -7 -49 -17 -98 -23 -109 -6 -11 -14 -47 -18 -81 -5 -34 -18 -103 -29
-155 -12 -52 -21 -116 -21 -142 0 -25 -7 -66 -16 -90 -8 -24 -22 -80 -30 -123
-7 -44 -22 -96 -33 -115 -61 -117 -93 -169 -114 -187 -13 -12 -30 -30 -38 -41
-8 -11 -45 -40 -84 -65 -77 -50 -127 -100 -197 -198 -57 -81 -78 -124 -112
-225 l-26 -80 15 -125 c8 -69 15 -128 15 -132 0 -3 18 -30 41 -58 57 -72 165
-124 309 -148 109 -19 233 -68 244 -97 3 -8 11 -15 17 -15 11 0 104 -66 136
-96 7 -7 35 -17 63 -24 66 -16 153 1 213 41 68 45 175 199 240 345 80 182 104
313 88 503 -6 68 -8 128 -5 132 2 4 0 36 -6 71 -28 159 -32 212 -31 348 1 80
9 176 17 215 7 39 14 85 14 102 0 18 4 52 10 75 11 53 54 288 76 423 9 55 20
105 24 110 5 6 15 56 24 113 8 56 17 106 21 111 3 5 1 21 -5 36 -7 19 -6 44 5
88 8 34 21 107 30 162 9 55 21 117 26 137 5 20 14 83 19 140 6 56 16 125 24
153 8 27 20 88 26 135 6 47 16 101 21 121 5 20 9 53 9 72 0 20 6 54 14 74 8
21 17 59 20 85 8 67 80 337 117 438 58 156 73 195 81 205 4 5 8 20 8 33 0 14
11 50 24 81 64 150 73 292 31 529 -44 246 -82 344 -156 404 -23 18 -58 47 -78
64 -92 77 -135 100 -209 112 -92 15 -190 14 -269 -3z"/>
<path d="M21385 19114 c-27 -7 -60 -14 -72 -14 -12 0 -39 -11 -59 -25 -20 -14
-43 -25 -51 -25 -8 0 -33 -15 -56 -34 -62 -49 -122 -81 -214 -110 -80 -27 -85
-27 -195 -16 -260 25 -436 38 -488 36 -55 -3 -160 -28 -192 -46 -10 -6 -24
-10 -31 -10 -23 0 -121 -58 -145 -85 -12 -14 -27 -25 -32 -25 -18 0 -51 -91
-57 -155 -4 -48 -2 -63 11 -74 9 -7 16 -22 16 -32 0 -10 14 -34 30 -52 17 -19
30 -39 30 -43 0 -5 25 -33 55 -63 30 -30 55 -59 55 -64 0 -5 14 -25 30 -44 17
-18 30 -42 30 -51 0 -10 14 -38 32 -63 81 -113 145 -159 238 -169 75 -8 90 -4
162 46 121 85 148 106 148 115 0 5 8 9 17 9 9 0 30 12 46 27 39 39 183 118
332 183 22 9 72 31 110 48 39 17 87 33 108 36 21 3 51 12 68 20 17 9 47 18 68
22 20 4 44 11 55 16 10 6 42 14 70 18 120 18 254 42 292 51 46 12 127 77 150
121 26 49 43 161 32 210 -5 24 -12 55 -15 70 -7 34 -69 90 -137 122 -90 44
-355 74 -441 50z"/>
<path d="M26845 19123 c-112 -8 -252 -35 -301 -59 -68 -32 -130 -88 -137 -122
-3 -15 -10 -46 -15 -70 -11 -49 6 -161 32 -210 23 -44 104 -109 150 -121 38
-9 172 -33 292 -51 28 -4 60 -12 70 -18 11 -5 35 -12 55 -16 21 -4 51 -13 68
-22 17 -8 47 -17 68 -20 21 -3 70 -19 108 -36 39 -17 88 -39 110 -48 149 -65
293 -144 332 -183 16 -15 37 -27 46 -27 9 0 17 -4 17 -9 0 -9 27 -30 148 -115
72 -50 87 -54 162 -46 93 10 157 56 238 169 18 25 32 53 32 63 0 9 14 33 30
51 17 19 30 39 30 44 0 5 25 34 55 64 30 30 55 58 55 63 0 4 14 24 30 43 17
18 30 42 30 52 0 10 7 25 16 32 13 11 15 26 11 74 -6 64 -39 155 -57 155 -5 0
-20 11 -32 25 -24 27 -122 85 -145 85 -7 0 -21 4 -31 10 -32 18 -137 43 -192
46 -52 2 -228 -11 -488 -36 -110 -11 -115 -11 -195 16 -92 29 -152 61 -214
110 -23 19 -48 34 -56 34 -8 0 -31 11 -51 25 -20 14 -47 25 -59 25 -12 0 -47
7 -77 15 -30 8 -62 14 -70 13 -8 -1 -37 -3 -65 -5z"/>
<path d="M19157 18607 c-82 -86 -134 -203 -158 -347 -10 -63 -23 -131 -28
-150 -35 -128 -88 -257 -120 -292 -12 -12 -21 -27 -21 -34 0 -7 -4 -14 -8 -16
-5 -1 -26 -28 -48 -58 -51 -73 -67 -90 -113 -120 -21 -14 -63 -43 -92 -66 -30
-22 -65 -47 -79 -54 -14 -7 -31 -21 -38 -32 -7 -10 -20 -18 -28 -18 -8 0 -54
-21 -102 -46 -122 -64 -217 -104 -287 -119 -33 -7 -96 -23 -140 -35 -44 -12
-117 -25 -162 -30 -52 -6 -101 -18 -136 -34 -29 -14 -60 -26 -67 -26 -17 0
-165 -75 -197 -100 -14 -11 -31 -20 -38 -20 -7 0 -21 -12 -31 -27 -64 -96 -70
-141 -25 -197 16 -21 31 -40 33 -44 7 -15 88 -72 102 -72 8 0 18 -4 21 -10 7
-11 92 -50 109 -50 14 0 130 -71 159 -98 12 -10 27 -21 33 -23 28 -10 110
-122 149 -204 45 -95 124 -195 155 -195 10 0 35 -7 56 -16 95 -40 247 22 340
138 65 81 179 231 202 265 13 19 29 36 37 39 8 3 56 54 107 112 109 125 284
302 383 387 39 32 95 83 125 112 30 29 78 70 107 91 28 20 83 63 122 95 38 31
72 57 75 57 3 0 35 21 72 48 36 26 92 65 123 87 31 22 69 52 85 68 16 15 35
27 42 27 19 0 99 99 123 154 15 35 21 69 21 123 0 68 -4 83 -45 168 -24 51
-58 105 -75 121 -16 16 -30 33 -30 39 0 5 -26 37 -58 70 -31 33 -71 76 -87 95
-41 47 -160 150 -174 150 -6 0 -15 9 -21 20 -6 10 -48 37 -94 60 -77 37 -91
40 -166 40 -80 0 -83 -1 -113 -33z"/>
<path d="M28933 18599 c-46 -22 -87 -49 -93 -59 -6 -11 -15 -20 -21 -20 -14 0
-133 -103 -174 -150 -16 -19 -56 -62 -87 -95 -32 -33 -58 -65 -58 -70 0 -6
-14 -23 -30 -39 -17 -16 -51 -70 -75 -121 -41 -85 -45 -100 -45 -168 0 -54 6
-88 21 -123 24 -55 104 -154 123 -154 7 0 26 -12 42 -27 16 -16 54 -46 85 -68
31 -22 87 -61 123 -87 37 -27 69 -48 72 -48 3 0 37 -26 75 -57 39 -32 94 -75
122 -95 29 -21 77 -62 107 -91 30 -29 86 -80 125 -112 99 -85 274 -262 383
-387 51 -58 99 -109 107 -112 8 -3 24 -20 37 -39 23 -34 137 -184 202 -265 93
-116 245 -178 340 -138 21 9 46 16 56 16 31 0 110 100 155 195 39 82 121 194
149 204 6 2 21 13 33 23 29 27 145 98 159 98 17 0 102 39 109 50 3 6 13 10 21
10 14 0 95 57 102 72 2 4 17 23 33 44 45 56 39 101 -25 197 -10 15 -24 27 -31
27 -7 0 -24 9 -38 20 -32 25 -180 100 -197 100 -7 0 -38 12 -67 26 -35 16 -84
28 -136 34 -45 5 -118 18 -162 30 -44 12 -107 28 -140 35 -70 15 -165 55 -287
119 -48 25 -94 46 -102 46 -8 0 -21 8 -28 18 -7 11 -24 25 -38 32 -14 7 -49
32 -79 54 -29 23 -71 52 -92 66 -46 30 -62 47 -113 120 -22 30 -43 57 -48 58
-4 2 -8 9 -8 16 0 7 -9 22 -21 34 -32 35 -85 164 -120 292 -5 19 -18 87 -28
150 -24 144 -76 261 -157 347 -31 32 -34 33 -115 33 -77 -1 -91 -4 -166 -41z"/>
<path d="M17030 16551 c-19 -4 -48 -15 -65 -24 -16 -10 -37 -21 -45 -26 -8 -4
-31 -16 -50 -26 -94 -50 -300 -228 -300 -260 0 -7 -4 -15 -8 -17 -14 -6 -52
-79 -52 -101 0 -12 -11 -40 -24 -63 -13 -23 -26 -59 -30 -80 -16 -85 -59 -221
-85 -264 -14 -25 -28 -49 -31 -55 -16 -33 -50 -75 -87 -108 -23 -21 -45 -47
-48 -58 -4 -10 -13 -19 -21 -19 -8 0 -14 -4 -14 -9 0 -5 -24 -27 -54 -50 -30
-22 -70 -56 -88 -74 -18 -19 -85 -78 -148 -132 -63 -54 -117 -102 -120 -105
-15 -19 -311 -259 -345 -280 -22 -13 -42 -27 -45 -31 -9 -11 -161 -89 -175
-89 -7 0 -15 -4 -17 -8 -4 -12 -212 -78 -268 -86 -25 -3 -122 -10 -217 -16
-94 -5 -198 -17 -230 -26 -32 -9 -75 -20 -96 -25 -51 -12 -104 -65 -123 -123
-25 -72 -3 -131 80 -216 72 -74 91 -106 101 -170 3 -25 11 -58 16 -75 5 -16
10 -44 12 -60 7 -54 39 -139 63 -166 13 -14 24 -30 24 -35 0 -25 181 -194 207
-194 5 0 24 -13 43 -28 70 -56 136 -92 171 -92 52 0 139 49 155 87 8 17 22 34
33 38 10 3 39 27 65 53 52 53 63 65 125 124 24 24 108 106 186 183 78 77 180
177 226 221 46 45 129 128 184 184 55 56 120 116 145 133 25 17 51 39 58 49 8
10 20 24 29 31 8 7 38 33 66 59 29 27 61 51 71 54 11 4 38 24 60 46 23 22 59
52 81 66 22 15 62 44 88 65 56 46 164 117 177 117 5 0 17 11 26 24 8 14 30 30
49 36 18 6 41 20 51 31 10 11 32 27 49 34 39 18 116 64 135 80 8 7 26 16 40
20 14 4 44 20 67 36 24 15 76 44 118 64 41 20 77 40 80 46 4 5 31 25 60 44 53
33 225 193 225 208 0 5 9 18 21 30 12 12 29 40 39 62 9 22 27 49 39 59 11 11
21 31 21 45 0 15 6 35 14 46 7 11 21 53 31 93 25 104 18 218 -18 294 -15 31
-27 63 -27 70 0 8 -13 28 -30 46 -16 18 -30 37 -30 42 0 5 -12 18 -27 27 -15
10 -41 33 -57 51 -25 28 -122 103 -160 123 -97 52 -163 70 -266 74 -52 2 -111
1 -130 -4z"/>
<path d="M31140 16554 c-14 -3 -51 -14 -83 -25 -51 -17 -69 -25 -113 -48 -38
-20 -135 -95 -160 -123 -16 -18 -42 -41 -57 -51 -15 -9 -27 -22 -27 -27 0 -5
-13 -24 -30 -42 -16 -18 -30 -38 -30 -46 0 -7 -12 -39 -27 -70 -36 -76 -43
-190 -18 -294 10 -40 24 -82 31 -93 8 -11 14 -31 14 -46 0 -14 10 -34 21 -45
12 -10 30 -37 39 -59 10 -22 27 -50 39 -62 12 -12 21 -25 21 -30 0 -15 172
-175 225 -208 29 -19 56 -39 60 -44 3 -6 39 -26 80 -46 42 -20 94 -49 118 -64
23 -16 53 -32 67 -36 14 -4 32 -13 40 -20 19 -16 96 -62 135 -80 17 -7 39 -23
49 -34 10 -11 33 -25 51 -31 19 -6 41 -22 49 -36 9 -13 21 -24 26 -24 13 0
121 -71 177 -117 26 -21 66 -50 88 -65 22 -14 58 -44 81 -66 22 -22 49 -42 60
-46 10 -3 42 -27 71 -54 28 -26 58 -52 66 -59 9 -7 21 -21 29 -31 7 -10 33
-32 58 -49 25 -17 90 -77 145 -133 55 -56 138 -139 184 -184 46 -44 148 -144
226 -221 78 -77 162 -159 186 -183 62 -59 73 -71 125 -124 26 -26 55 -50 65
-53 11 -4 25 -21 33 -38 16 -38 103 -87 155 -87 35 0 101 36 171 92 19 15 38
28 43 28 26 0 207 169 207 194 0 5 11 21 24 35 24 27 56 112 63 166 2 16 7 44
12 60 5 17 13 50 16 75 10 64 29 96 101 170 83 85 105 144 80 216 -19 58 -72
111 -123 123 -21 5 -64 16 -96 25 -32 9 -136 21 -230 26 -95 6 -192 13 -217
16 -56 8 -264 74 -268 86 -2 4 -10 8 -17 8 -14 0 -166 78 -175 89 -3 4 -23 18
-45 31 -34 21 -330 261 -345 280 -3 3 -57 51 -120 105 -63 54 -130 113 -148
132 -18 18 -58 52 -88 74 -30 23 -54 45 -54 50 0 5 -6 9 -14 9 -8 0 -17 9 -21
19 -3 11 -25 37 -48 58 -37 33 -71 75 -87 108 -3 6 -17 30 -31 55 -26 43 -69
179 -85 264 -4 21 -17 57 -30 80 -13 23 -24 51 -24 63 0 22 -38 95 -52 101 -4
2 -8 10 -8 17 0 32 -206 210 -300 260 -19 10 -42 22 -50 26 -85 48 -95 51
-189 54 -53 2 -107 1 -121 -1z"/>
</g>
</svg>
