<?xml version="1.0" standalone="no"?>
<!DOCTYPE svg PUBLIC "-//W3C//DTD SVG 20010904//EN"
 "http://www.w3.org/TR/2001/REC-SVG-20010904/DTD/svg10.dtd">
<svg version="1.0" xmlns="http://www.w3.org/2000/svg"
 viewBox="0 0 4841.000000 3346.000000"
 preserveAspectRatio="xMidYMid meet">
<metadata>
Created by potrace 1.16, written by Peter Selinger 2001-2019
</metadata>
<g transform="translate(0.000000,3346.000000) scale(0.100000,-0.100000)"
stroke="none">
<path d="M0 16730 l0 -16730 24205 0 24205 0 0 16730 0 16730 -24205 0 -24205
0 0 -16730z m13856 16132 c109 -24 206 -104 270 -223 15 -27 19 -56 19 -149 0
-100 -3 -123 -25 -175 -13 -33 -37 -76 -52 -96 -15 -20 -28 -40 -28 -44 0 -4
-16 -26 -35 -49 -48 -59 -62 -97 -75 -212 -12 -103 -9 -137 24 -316 15 -80 73
-228 103 -260 27 -30 46 -88 50 -155 6 -82 -19 -141 -78 -180 -37 -24 -52 -28
-113 -28 -58 1 -90 8 -171 39 -88 34 -110 38 -187 38 -70 0 -104 -5 -184 -32
-152 -50 -220 -30 -256 73 -44 127 -45 132 -38 188 12 86 66 177 144 242 55
45 111 121 147 197 55 116 66 164 80 345 10 139 5 181 -46 365 -17 63 -20 166
-5 206 18 46 71 121 95 134 12 7 28 23 35 36 12 21 30 33 99 60 31 13 163 11
227 -4z m20902 -2 c39 -12 92 -52 92 -70 0 -3 11 -12 24 -20 25 -13 78 -87 96
-134 15 -41 12 -144 -6 -211 -28 -101 -28 -101 0 -128 14 -14 26 -30 26 -34 0
-4 13 -16 29 -25 35 -19 76 -96 92 -169 12 -56 5 -106 -31 -219 -9 -30 -23
-87 -30 -127 -13 -71 -13 -73 13 -112 14 -21 50 -60 80 -86 50 -43 93 -98 127
-164 22 -42 29 -132 14 -170 -8 -18 -14 -41 -14 -50 0 -9 -11 -38 -24 -64
l-24 -48 64 -64 c120 -120 143 -223 83 -381 -4 -12 -3 -55 2 -95 9 -65 7 -85
-14 -169 l-24 -95 33 -30 c18 -16 48 -59 65 -95 54 -107 52 -220 -7 -408 -32
-101 -26 -307 10 -377 8 -16 18 -54 21 -84 10 -85 32 -196 59 -297 31 -111 40
-137 58 -155 8 -8 25 -36 38 -63 13 -27 38 -72 57 -100 18 -28 33 -55 33 -60
0 -5 15 -25 33 -46 79 -92 122 -182 128 -270 3 -46 -11 -139 -21 -145 -5 -3
-23 -26 -40 -51 l-31 -46 28 -33 c46 -54 105 -155 114 -194 12 -53 11 -99 -5
-161 -9 -33 -11 -56 -5 -58 5 -2 21 -26 34 -53 19 -36 25 -64 25 -110 0 -67
-6 -93 -51 -210 -16 -41 -29 -82 -29 -91 0 -8 22 -40 49 -71 67 -76 86 -130
73 -199 -20 -100 -25 -113 -79 -246 l-55 -133 11 -87 c25 -187 41 -299 51
-342 17 -83 31 -162 56 -334 14 -94 29 -191 34 -216 22 -109 32 -165 55 -330
14 -96 30 -195 35 -220 12 -64 38 -213 51 -295 5 -38 14 -86 19 -105 5 -20 17
-83 25 -140 36 -230 57 -304 116 -398 41 -65 123 -163 144 -171 11 -4 90 -73
148 -129 71 -68 115 -188 124 -339 5 -89 3 -112 -16 -173 -12 -39 -33 -83 -47
-99 l-24 -29 25 -73 c18 -51 28 -106 32 -176 3 -57 9 -103 13 -103 17 0 122
-90 148 -126 16 -22 35 -59 44 -84 8 -25 21 -61 27 -80 7 -19 18 -73 26 -120
15 -88 8 -152 -19 -195 -7 -11 -16 -39 -19 -62 -4 -23 -18 -58 -31 -78 -23
-34 -24 -37 -9 -88 43 -151 46 -285 8 -327 -8 -8 -18 -34 -23 -57 -5 -23 -34
-80 -64 -125 -30 -46 -67 -106 -82 -133 -27 -50 -27 -52 -17 -145 6 -52 18
-216 26 -365 8 -148 17 -286 20 -305 11 -67 26 -266 30 -410 3 -80 9 -172 14
-205 5 -33 9 -96 10 -140 1 -44 4 -92 7 -107 6 -32 24 -274 30 -418 2 -58 11
-177 19 -265 22 -219 33 -371 40 -560 4 -88 9 -163 12 -168 5 -9 20 -209 28
-381 8 -173 57 -376 119 -486 17 -30 45 -77 63 -105 18 -27 33 -53 33 -57 0
-3 13 -35 29 -70 58 -129 65 -177 54 -386 -5 -103 -8 -216 -7 -252 2 -36 4
-132 6 -215 l3 -150 -35 -75 c-33 -72 -98 -171 -120 -185 -7 -4 -10 -57 -8
-153 l3 -147 -33 -69 c-65 -139 -138 -208 -270 -258 -51 -19 -78 -22 -247 -22
-218 -1 -296 13 -380 68 -28 18 -62 37 -75 41 -81 24 -280 300 -280 387 0 14
-7 42 -15 62 -12 29 -15 67 -12 179 l4 142 42 82 c22 46 41 89 41 96 0 8 14
33 30 56 31 42 31 44 32 173 0 130 1 132 38 213 21 45 41 96 45 113 3 17 17
42 31 57 l25 27 -16 227 c-33 474 -76 1074 -90 1261 -15 198 -31 419 -60 835
-9 127 -22 307 -30 400 -8 94 -22 258 -31 365 -42 511 -53 616 -68 645 -9 17
-16 38 -16 49 0 10 -22 64 -49 120 -50 102 -110 190 -212 307 -113 130 -169
230 -229 404 -24 68 -33 114 -37 191 -7 119 8 176 64 248 l36 47 -32 97 c-19
58 -31 117 -31 149 0 48 -2 52 -30 61 -16 6 -35 22 -41 35 -6 14 -22 30 -36
36 -22 10 -83 118 -83 147 0 6 -7 24 -15 40 -31 64 -34 328 -4 379 3 6 12 31
19 58 7 26 16 50 21 52 4 3 2 20 -5 38 -21 50 -39 221 -32 290 8 74 40 166 79
223 19 28 28 55 28 80 0 48 -37 387 -56 509 -7 50 -23 158 -34 240 -12 83 -24
161 -26 175 -7 33 -33 223 -45 325 -5 44 -14 107 -19 140 -24 137 -62 401 -81
565 -12 96 -25 189 -30 205 -5 17 -14 68 -20 115 -14 103 -35 179 -66 242 -13
26 -24 52 -24 57 0 6 -16 44 -35 85 -19 41 -35 78 -35 81 0 4 -21 41 -46 82
-65 107 -92 185 -94 269 -2 81 12 197 28 237 10 24 7 37 -30 114 -39 81 -42
93 -43 173 0 123 5 167 27 234 18 56 18 62 3 122 -18 74 -9 194 19 236 9 14
21 40 26 58 8 30 5 38 -36 91 -66 86 -77 119 -78 229 0 98 -2 93 59 225 27 58
47 131 48 175 2 84 -13 434 -23 515 -5 44 -12 170 -15 280 l-6 200 -40 74
c-36 65 -42 87 -53 185 -8 67 -10 123 -4 141 16 57 5 107 -40 185 -35 59 -45
94 -58 199 -10 86 -12 132 -4 163 5 24 10 58 10 76 0 18 9 54 21 80 11 26 27
63 35 82 8 19 19 42 24 50 6 8 27 49 49 91 l39 77 -63 4 c-123 8 -191 86 -182
211 4 67 23 125 50 155 31 34 88 181 102 262 8 44 17 85 20 91 4 5 2 15 -4 22
-5 7 -24 49 -42 92 -31 79 -32 82 -26 201 6 112 5 123 -13 139 -11 10 -20 22
-20 28 0 5 -13 26 -28 46 -15 20 -39 63 -52 96 -22 52 -25 75 -25 175 0 123 5
139 64 220 52 72 165 149 221 151 14 0 34 4 45 9 27 12 151 6 203 -10z m4162
-1481 c42 -34 131 -140 160 -190 8 -15 28 -46 44 -70 16 -23 42 -81 58 -128
28 -82 29 -92 24 -203 -5 -96 -11 -129 -33 -185 -26 -64 -28 -77 -27 -213 1
-122 4 -154 22 -200 39 -101 93 -190 153 -253 111 -117 140 -171 164 -308 10
-57 -12 -160 -43 -191 -31 -34 -34 -34 -90 -7 l-43 21 -33 -31 c-34 -33 -60
-39 -85 -18 -9 8 -32 20 -51 27 -19 7 -48 19 -65 26 -116 49 -176 54 -260 23
-33 -12 -98 -26 -145 -31 -47 -5 -107 -12 -133 -15 -26 -3 -58 -2 -70 1 -38 9
-103 73 -132 128 -59 112 -40 254 47 352 46 53 123 210 139 286 13 62 6 189
-15 247 -15 42 -43 90 -127 215 -86 129 -86 130 -98 205 -16 104 18 235 89
342 20 31 44 70 53 86 23 44 77 92 122 109 30 11 78 14 186 12 l146 -3 43 -34z
m-29095 -30 c44 -11 125 -71 125 -92 0 -6 22 -45 49 -86 27 -42 61 -110 75
-152 25 -72 26 -81 15 -150 -12 -77 -12 -78 -98 -207 -127 -189 -138 -215
-147 -336 -5 -60 -2 -98 10 -146 23 -87 90 -227 132 -270 18 -19 45 -61 60
-94 23 -51 26 -68 22 -130 -7 -104 -52 -182 -138 -239 -46 -32 -159 -16 -285
38 -80 35 -227 22 -350 -29 -16 -7 -46 -19 -65 -26 -19 -7 -42 -19 -51 -27
-26 -21 -52 -15 -80 20 -81 103 -36 348 85 455 143 128 211 288 208 490 -1 76
-7 120 -22 163 -45 132 -51 284 -16 406 27 90 40 118 67 148 10 11 25 37 33
57 9 20 21 41 28 45 7 4 29 30 50 56 43 57 105 104 144 110 56 8 106 7 149 -4z
m3884 -479 c184 -66 280 -119 281 -154 1 -6 9 -29 20 -51 11 -22 20 -56 20
-75 0 -19 5 -54 10 -78 13 -55 -12 -273 -35 -308 -8 -13 -15 -28 -15 -35 0 -6
-8 -21 -18 -34 -10 -12 -26 -49 -36 -81 -11 -33 -25 -73 -32 -89 -35 -82 -61
-313 -69 -600 -3 -110 -10 -236 -15 -280 -10 -81 -25 -431 -23 -515 1 -44 21
-117 48 -175 61 -132 59 -127 59 -225 -1 -110 -12 -143 -78 -228 -57 -74 -114
-128 -147 -141 -17 -6 -53 -6 -100 0 -85 10 -108 17 -129 34 -28 24 -126 71
-191 93 -67 22 -224 46 -240 36 -5 -3 -57 -12 -115 -19 -93 -13 -114 -12 -172
1 -81 18 -134 51 -167 103 -13 22 -28 42 -34 45 -21 14 -28 141 -12 217 9 42
70 143 119 199 17 21 32 41 32 46 0 5 15 32 33 60 19 28 44 73 57 100 13 27
30 55 38 63 33 34 98 284 117 452 3 30 12 67 20 82 15 29 28 91 46 212 6 44
17 94 24 110 6 17 22 114 35 216 26 214 23 290 -24 464 -25 92 -26 106 -16
179 14 106 59 198 120 242 70 51 164 102 212 114 24 6 52 15 63 21 88 43 191
43 314 -1z m17344 -170 c52 -16 78 -32 132 -83 63 -58 68 -66 85 -135 16 -65
17 -91 8 -255 -10 -171 -9 -188 11 -287 32 -152 68 -219 184 -345 41 -44 82
-96 92 -115 9 -19 28 -44 40 -55 13 -11 37 -58 54 -105 31 -82 32 -88 25 -188
-6 -96 -9 -107 -38 -145 -62 -80 -66 -81 -269 -88 -157 -5 -189 -9 -237 -28
-30 -12 -64 -31 -75 -40 -11 -10 -49 -33 -83 -52 -55 -28 -74 -33 -135 -33
-64 -1 -76 2 -114 29 -51 36 -88 116 -87 185 5 173 21 249 88 416 81 202 92
253 79 381 -15 140 -38 185 -157 304 -82 83 -94 100 -105 146 -7 30 -10 70 -6
92 4 22 8 64 9 93 2 29 10 67 19 85 26 49 105 125 185 178 63 41 82 48 145 55
39 4 75 8 78 9 4 0 36 -8 72 -19z m-13549 -115 c59 -6 166 -73 239 -147 78
-81 98 -140 76 -230 -11 -47 -23 -64 -105 -147 -109 -109 -140 -163 -154 -271
-25 -193 -7 -301 86 -534 83 -207 96 -299 56 -396 -16 -40 -34 -63 -65 -85
-38 -27 -50 -30 -114 -29 -61 0 -80 5 -135 33 -34 19 -72 42 -83 52 -11 9 -45
28 -75 40 -48 19 -80 23 -237 28 -204 7 -207 8 -270 90 -26 33 -33 52 -33 86
0 55 55 204 85 230 12 11 31 36 40 55 10 19 51 71 92 115 121 132 153 194 188
371 15 71 23 138 20 149 -3 11 -10 81 -14 155 -8 109 -6 148 6 205 14 66 19
74 84 137 57 55 80 71 131 87 35 11 79 18 98 16 19 -2 57 -7 84 -10z m21677
-1252 c99 -45 167 -93 241 -168 135 -136 150 -243 61 -433 -51 -110 -83 -205
-83 -248 0 -22 -5 -57 -10 -79 -5 -22 -14 -128 -20 -235 -5 -107 -15 -233 -20
-280 -6 -47 -14 -159 -19 -250 -13 -243 17 -527 73 -698 39 -117 57 -285 37
-342 -5 -14 -12 -37 -15 -52 -3 -15 -14 -29 -24 -33 -9 -3 -33 -28 -52 -56
-19 -28 -44 -55 -55 -61 -11 -6 -79 -12 -151 -14 l-132 -3 -83 61 c-84 62
-159 98 -203 98 -14 0 -51 -7 -84 -15 -92 -24 -334 -27 -397 -5 -62 21 -184
105 -195 134 -46 125 -38 238 25 320 18 23 38 59 44 79 7 20 24 53 38 74 29
43 75 148 105 238 43 134 72 368 83 675 3 91 11 187 17 213 6 29 8 81 4 128
-9 97 -26 140 -99 243 -39 53 -39 54 -40 157 -2 73 3 121 15 159 9 30 22 77
29 104 10 38 26 63 73 111 81 83 138 115 227 126 45 5 93 20 130 39 71 36 144
47 299 44 105 -1 121 -4 181 -31z m-29587 7 c32 -5 66 -16 75 -23 23 -20 108
-47 148 -47 90 0 259 -136 282 -227 7 -27 20 -73 29 -103 12 -38 17 -86 15
-159 -1 -103 -1 -104 -40 -157 -73 -103 -90 -146 -99 -243 -4 -47 -2 -99 4
-128 6 -26 14 -122 17 -213 11 -307 40 -541 83 -675 30 -90 76 -195 105 -238
14 -21 31 -54 38 -74 6 -20 26 -56 44 -79 45 -59 67 -163 46 -216 -5 -13 -12
-35 -15 -50 -7 -32 -128 -126 -187 -146 -50 -17 -184 -15 -254 4 -34 9 -102
17 -155 17 -114 1 -166 -19 -285 -108 l-75 -57 -61 7 c-65 8 -78 17 -130 91
-15 23 -35 44 -42 47 -18 7 -46 108 -47 167 -1 49 20 156 50 260 10 36 22 83
25 105 4 22 11 54 16 71 5 17 16 99 23 181 14 154 9 375 -14 563 -5 47 -15
171 -21 275 -5 105 -14 208 -19 230 -5 22 -10 59 -10 81 0 41 -9 68 -56 172
-13 29 -24 55 -24 58 0 3 -8 18 -18 32 -10 15 -24 51 -30 80 -30 136 -9 196
118 322 81 81 109 103 190 143 104 51 150 58 274 37z m21954 -504 c162 -56
263 -177 296 -357 9 -46 20 -136 26 -199 11 -128 17 -166 30 -195 5 -11 15
-52 24 -91 8 -39 33 -118 55 -174 23 -56 41 -106 41 -112 0 -9 33 -80 129
-278 28 -58 69 -130 91 -160 21 -30 42 -67 45 -83 4 -15 28 -51 54 -80 83 -93
201 -297 201 -349 0 -12 5 -40 11 -62 16 -56 -4 -262 -29 -296 -37 -50 -68
-57 -251 -58 -183 -1 -239 -10 -284 -48 -16 -13 -34 -24 -40 -24 -11 0 -108
-77 -215 -171 -42 -37 -110 -74 -167 -91 -48 -14 -118 8 -170 54 -45 40 -115
165 -115 206 0 11 -7 39 -16 63 -12 34 -17 116 -24 349 -5 168 -14 355 -20
415 -13 128 -45 333 -59 379 -5 17 -22 72 -36 121 -50 169 -107 330 -136 382
-16 29 -29 61 -29 72 0 10 -10 40 -22 67 -18 42 -21 67 -21 179 0 229 52 384
155 462 117 89 153 101 299 102 86 1 118 -3 177 -23z m-14358 -122 c25 -12 73
-43 108 -69 50 -38 70 -61 96 -114 67 -133 82 -311 35 -420 -11 -24 -19 -52
-19 -62 0 -11 -13 -43 -29 -72 -29 -52 -86 -213 -136 -382 -14 -49 -31 -104
-36 -121 -14 -46 -46 -251 -59 -379 -6 -60 -15 -247 -20 -415 -7 -233 -12
-315 -24 -349 -9 -24 -16 -52 -16 -63 0 -41 -70 -166 -115 -206 -52 -46 -122
-68 -170 -54 -57 17 -125 54 -167 91 -107 94 -204 171 -215 171 -6 0 -24 11
-40 24 -45 38 -101 47 -284 48 -184 1 -214 8 -252 60 -22 30 -28 125 -13 213
16 91 115 270 207 372 26 29 50 65 54 80 3 16 24 53 45 83 22 30 63 102 91
160 96 198 129 269 129 278 0 6 18 56 41 112 22 56 47 135 55 174 9 39 19 80
24 91 13 29 19 67 30 195 14 154 37 274 62 324 60 117 140 190 256 232 59 21
82 23 192 21 102 -2 133 -6 170 -23z m27001 -835 c30 -16 76 -65 84 -89 4 -14
16 -41 26 -61 14 -28 18 -61 19 -140 3 -196 -20 -345 -61 -401 -10 -15 -19
-31 -19 -36 0 -6 -28 -36 -61 -68 -34 -33 -67 -65 -73 -72 -6 -7 -18 -21 -27
-30 -10 -9 -25 -31 -35 -48 -11 -16 -29 -45 -41 -64 -28 -43 -38 -113 -38
-266 l0 -120 49 -98 c63 -124 69 -174 32 -242 -41 -75 -71 -104 -129 -123 -44
-15 -52 -22 -55 -46 -3 -24 -25 -68 -42 -85 -3 -3 -18 -20 -34 -37 -29 -32
-29 -32 -12 -73 11 -27 16 -70 16 -133 -1 -199 -31 -290 -119 -349 -74 -51
-143 -115 -189 -176 -66 -89 -109 -155 -117 -182 -4 -14 -19 -42 -32 -63 -53
-83 -94 -265 -128 -560 -17 -143 -31 -180 -113 -284 -48 -62 -91 -58 -158 13
-36 39 -54 43 -54 14 0 -18 -16 -54 -57 -124 -15 -25 -17 -58 -4 -71 39 -44
55 -230 25 -301 -17 -40 -97 -179 -142 -247 -39 -58 -141 -126 -220 -147 -119
-32 -213 -100 -257 -186 -10 -22 -42 -79 -71 -129 -61 -107 -182 -329 -239
-440 -47 -90 -50 -96 -98 -180 -19 -33 -53 -96 -77 -140 -79 -150 -173 -320
-185 -335 -7 -8 -29 -58 -50 -110 -20 -52 -43 -104 -50 -115 -7 -11 -15 -38
-17 -60 -3 -22 -10 -53 -16 -70 -27 -77 -54 -239 -71 -427 -7 -82 -10 -90 -46
-130 -21 -24 -45 -47 -53 -52 -16 -9 -163 -10 -191 -1 -15 4 -20 -1 -25 -27
-4 -18 -25 -53 -47 -77 -46 -51 -85 -62 -192 -50 -87 9 -184 69 -232 144 -44
68 -150 182 -197 211 -64 41 -160 87 -198 95 -178 40 -271 80 -323 139 -39 45
-89 151 -94 203 -2 23 0 86 5 139 10 110 44 194 96 240 17 15 112 68 211 117
337 166 497 303 849 724 49 59 93 107 98 107 5 0 21 19 36 43 15 24 57 77 94
118 37 40 80 92 96 114 17 22 55 67 86 100 31 33 67 83 82 112 14 29 32 57 40
64 7 6 25 50 39 97 14 48 30 97 35 110 5 12 14 73 20 135 13 146 33 224 81
324 46 96 87 146 140 174 49 25 95 24 164 -2 80 -30 99 -19 48 29 -51 46 -71
105 -55 160 6 20 8 50 5 65 -12 59 21 105 171 242 79 71 154 143 167 160 13
16 57 61 99 100 120 111 198 204 238 284 43 87 47 144 18 271 -24 107 -10 240
38 375 37 104 66 141 141 182 39 21 157 21 205 0 33 -14 36 -14 62 8 15 13 32
25 38 27 19 6 -40 108 -66 114 -31 8 -68 66 -94 146 l-21 66 25 50 c24 48 86
112 108 112 26 0 160 114 193 163 58 88 147 319 179 467 9 41 22 93 28 115 6
22 12 112 13 200 2 210 22 261 125 324 82 51 148 65 242 52 48 -7 85 -7 92 -2
6 5 34 16 61 25 51 16 172 13 206 -5z m-31034 -79 c68 -9 138 -35 173 -65 46
-39 140 -77 215 -87 44 -6 91 -10 104 -9 86 4 201 -163 212 -309 2 -25 4 -84
4 -131 -1 -93 8 -72 -148 -375 -23 -44 -48 -96 -56 -115 -7 -19 -26 -62 -42
-97 -16 -34 -29 -68 -29 -75 0 -6 -7 -21 -15 -31 -8 -11 -15 -34 -15 -50 0
-29 -16 -124 -40 -241 -6 -27 -15 -84 -20 -125 -5 -41 -14 -102 -20 -135 -5
-33 -21 -136 -36 -230 -14 -93 -33 -204 -41 -245 -16 -78 -22 -118 -47 -305
-8 -60 -24 -162 -36 -225 -11 -63 -25 -140 -30 -170 -6 -30 -17 -104 -26 -165
-8 -60 -19 -137 -24 -170 -5 -33 -20 -139 -34 -235 -14 -96 -30 -204 -36 -240
-18 -114 -11 -255 16 -327 13 -35 24 -72 24 -82 0 -10 13 -36 28 -57 67 -93
93 -230 72 -380 -18 -136 -82 -308 -118 -321 -9 -3 -31 -21 -47 -40 -24 -28
-40 -36 -76 -40 -29 -3 -49 -1 -53 6 -4 6 -15 11 -25 11 -10 0 -65 24 -122 53
-57 30 -117 57 -134 61 -16 4 -37 14 -45 21 -8 7 -58 25 -110 39 -52 15 -107
33 -122 42 -38 21 -322 21 -435 -1 -90 -17 -120 -15 -205 16 -82 30 -139 93
-168 188 -20 63 -22 84 -17 174 9 151 53 271 124 339 58 56 137 125 148 129
21 8 103 106 144 171 59 94 80 168 116 398 8 57 20 120 25 140 5 19 14 67 19
105 13 82 39 231 51 295 5 25 21 124 35 220 23 165 33 221 55 330 5 25 20 122
34 216 25 172 39 251 56 334 10 43 22 127 54 365 8 61 22 130 31 155 14 35 17
78 16 200 -1 172 -10 250 -37 325 -10 28 -30 84 -45 125 -44 123 -49 143 -49
211 1 106 52 172 215 281 89 59 259 128 316 128 13 0 31 5 39 11 8 5 35 7 60
4 25 -3 78 -10 117 -15z m-8692 -186 c110 -53 162 -145 171 -306 2 -50 8 -97
13 -102 5 -6 11 -24 14 -41 5 -30 37 -125 61 -180 7 -16 22 -51 32 -77 11 -27
22 -48 27 -48 4 0 7 -8 7 -18 0 -10 10 -32 23 -49 12 -17 36 -57 52 -89 32
-62 31 -61 74 -116 31 -41 107 -108 123 -108 5 0 22 -8 36 -19 15 -10 50 -26
77 -35 57 -19 78 -35 119 -89 26 -33 28 -43 23 -95 -7 -80 -15 -113 -36 -145
-27 -42 -100 -82 -181 -97 -64 -12 -160 -64 -207 -111 -61 -62 -105 -89 -149
-90 -89 -3 -105 3 -154 50 -60 59 -76 86 -84 143 -7 47 11 132 40 190 29 57
24 188 -12 323 -7 28 -16 61 -20 75 -4 14 -12 30 -18 35 -7 6 -18 30 -25 55
-7 25 -21 57 -31 71 -10 14 -22 37 -25 52 -4 14 -13 31 -21 38 -8 6 -14 17
-14 23 0 7 -11 23 -25 36 -14 13 -25 29 -25 35 0 10 -22 38 -68 90 -5 6 -37
36 -71 69 -33 32 -61 64 -61 71 0 7 -7 18 -15 25 -17 14 -42 92 -54 172 -7 38
-5 62 5 86 7 18 13 33 13 35 -1 1 4 21 10 44 13 49 80 113 120 114 14 0 35 5
46 10 35 16 150 1 210 -27z m5364 -1184 c42 -11 135 -24 207 -29 127 -10 227
-32 239 -52 4 -5 24 -21 44 -34 82 -51 117 -168 108 -354 -3 -70 -14 -138 -31
-201 -15 -52 -30 -118 -34 -145 -5 -28 -11 -56 -16 -63 -30 -48 -15 -576 18
-667 8 -22 15 -60 15 -85 1 -51 28 -240 42 -286 5 -17 9 -64 10 -105 0 -41 4
-96 10 -124 5 -27 14 -86 19 -130 17 -134 40 -310 45 -346 3 -19 10 -74 15
-124 23 -222 31 -285 45 -365 8 -47 19 -114 24 -150 21 -133 51 -256 74 -305
29 -58 45 -97 77 -180 13 -33 39 -86 57 -117 18 -31 33 -64 33 -73 0 -19 18
-56 35 -70 20 -16 55 -149 55 -210 0 -31 -8 -102 -17 -158 -14 -88 -22 -110
-57 -162 -56 -85 -99 -135 -114 -135 -8 0 -27 -9 -42 -20 -57 -40 -109 -52
-199 -45 -46 3 -93 13 -105 20 -40 26 -107 44 -224 61 -105 14 -124 14 -187 1
-197 -43 -271 -46 -364 -17 -142 45 -213 104 -276 230 l-48 95 11 91 c6 51 18
105 26 120 56 99 78 132 141 206 62 74 134 194 135 224 0 6 7 24 15 41 21 42
30 238 15 338 -22 156 -41 311 -49 405 -5 52 -11 102 -15 110 -3 8 -11 62 -16
120 -6 58 -15 150 -21 205 -15 152 -19 194 -24 270 -20 295 -25 373 -34 545
-6 107 -13 317 -16 465 -3 149 -10 284 -15 300 -4 17 -11 54 -15 84 -3 30 -15
72 -27 94 -11 22 -27 63 -35 91 -8 28 -24 61 -34 75 -27 34 -27 181 0 231 10
19 24 52 30 73 14 43 73 103 185 192 72 57 108 72 199 84 5 1 43 -8 86 -19z
m28847 10 c32 -6 75 -19 94 -29 19 -10 58 -22 85 -26 63 -8 78 -18 199 -129
85 -79 104 -102 137 -170 36 -74 39 -86 39 -167 0 -70 -4 -91 -19 -111 -11
-14 -27 -45 -37 -69 -9 -24 -27 -67 -40 -95 -12 -27 -26 -75 -29 -105 -4 -30
-11 -67 -15 -84 -7 -25 -15 -250 -25 -740 -1 -38 -7 -142 -13 -230 -7 -88 -17
-230 -22 -315 -6 -85 -12 -173 -15 -195 -38 -383 -45 -450 -51 -465 -3 -8 -10
-60 -15 -115 -5 -55 -16 -149 -23 -210 -38 -293 -40 -324 -29 -434 6 -59 15
-116 21 -127 6 -10 25 -54 43 -97 19 -44 43 -89 54 -101 94 -102 199 -251 215
-305 4 -16 11 -63 15 -104 7 -74 7 -76 -35 -156 -55 -105 -104 -159 -182 -198
-120 -60 -165 -74 -236 -73 -37 1 -80 1 -96 1 -29 -1 -29 -1 -10 -22 10 -12
31 -27 45 -35 34 -17 73 -84 87 -149 15 -69 33 -194 32 -230 0 -17 2 -86 5
-155 9 -195 7 -318 -5 -341 -6 -11 -9 -28 -5 -37 18 -47 -68 -377 -145 -556
-11 -26 -20 -57 -20 -69 0 -12 -9 -53 -19 -92 -22 -81 -43 -201 -47 -265 -1
-25 -9 -110 -18 -190 -8 -80 -24 -251 -36 -380 -11 -129 -23 -260 -26 -290 -3
-30 -7 -77 -8 -105 -8 -149 -29 -362 -37 -377 -5 -9 -9 -43 -8 -75 1 -32 -1
-180 -4 -328 -3 -149 -2 -316 4 -370 5 -55 14 -154 20 -220 5 -66 19 -178 30
-250 12 -71 29 -197 39 -280 19 -151 40 -240 66 -280 8 -12 12 -29 9 -36 -3
-8 -1 -46 5 -84 37 -240 50 -344 50 -375 -1 -19 2 -109 6 -200 4 -91 7 -179 7
-195 1 -34 -73 -188 -107 -223 -26 -27 -113 -83 -173 -112 -40 -20 -116 -36
-301 -65 -80 -12 -103 -12 -150 -1 -74 17 -174 59 -214 88 -51 38 -136 127
-144 151 -3 12 -15 40 -25 63 -30 68 -49 207 -42 319 3 55 5 136 5 180 -1 80
22 299 38 365 5 19 23 112 40 205 18 94 40 206 51 250 10 44 21 109 25 145 4
36 13 82 20 104 8 21 14 64 14 95 0 31 7 88 16 126 8 39 19 99 24 135 16 133
59 578 64 675 3 55 11 159 18 230 14 157 16 214 20 705 4 489 -3 623 -37 760
-15 58 -33 132 -42 165 -13 53 -32 103 -90 235 -23 54 -103 191 -135 232 -15
20 -42 67 -60 105 -17 37 -37 75 -44 83 -25 29 -75 195 -80 265 -3 39 -1 129
4 202 11 150 21 177 104 280 67 82 148 132 252 154 58 12 71 17 46 18 -19 1
-73 20 -120 43 -89 43 -106 59 -181 178 -51 79 -74 222 -64 395 7 120 35 250
60 270 17 14 35 51 35 70 0 9 15 42 33 73 18 31 44 84 57 117 32 83 48 122 77
180 23 49 53 172 74 305 5 36 16 103 24 150 14 80 22 143 45 365 5 50 12 105
15 124 5 36 28 212 45 346 5 44 14 103 19 130 6 28 10 83 10 124 1 41 5 88 10
105 14 46 41 235 42 286 0 25 7 63 15 85 28 77 45 487 23 570 -6 22 -14 63
-19 90 -4 28 -20 95 -35 150 -22 78 -29 130 -32 237 -8 221 22 330 108 383 20
13 40 29 44 34 12 20 112 42 240 52 72 5 162 18 200 28 39 11 73 20 76 20 3 1
32 -4 65 -9z m-6033 -141 c103 -32 127 -57 214 -222 36 -68 99 -236 123 -327
13 -47 29 -105 36 -130 7 -25 18 -77 23 -117 6 -39 15 -83 20 -96 6 -14 15
-52 21 -86 6 -33 17 -72 24 -87 8 -14 17 -58 21 -98 4 -39 13 -87 21 -106 7
-19 25 -80 38 -135 49 -199 64 -253 93 -331 16 -43 42 -115 58 -159 66 -191
79 -225 120 -310 24 -49 59 -124 79 -167 20 -42 56 -100 82 -130 25 -29 51
-63 57 -75 26 -49 170 -255 209 -300 22 -26 47 -62 55 -81 7 -18 28 -49 46
-70 59 -67 104 -126 120 -159 9 -17 27 -40 39 -50 13 -10 43 -45 67 -78 25
-33 57 -76 71 -95 15 -19 33 -46 40 -60 7 -14 36 -52 63 -84 l49 -60 -7 -115
c-4 -64 -13 -127 -20 -141 -37 -70 -102 -99 -225 -100 -203 -3 -611 -137 -739
-244 -69 -58 -142 -88 -213 -89 -35 0 -82 5 -105 12 -49 14 -155 106 -171 148
-12 34 -26 129 -52 373 -20 174 -31 254 -50 360 -4 25 -13 74 -20 110 -6 36
-20 94 -30 129 -11 35 -20 76 -20 93 0 16 -6 41 -14 56 -7 15 -24 68 -36 117
-12 50 -26 95 -31 101 -10 12 -45 108 -58 159 -4 17 -22 64 -39 105 -17 41
-36 94 -41 116 -6 23 -19 52 -29 65 -11 13 -32 58 -48 99 -15 41 -40 95 -55
120 -15 25 -31 57 -34 73 -4 15 -11 30 -16 33 -5 3 -9 13 -9 22 0 10 -27 64
-60 122 -33 58 -62 119 -66 135 -3 17 -17 41 -29 55 -13 14 -54 84 -91 155
-37 72 -80 145 -95 163 -41 46 -173 324 -197 412 -50 185 -57 232 -55 365 2
120 4 136 32 203 50 119 75 149 239 279 165 131 178 136 407 141 99 2 132 -2
188 -19z m-16468 -133 c48 -22 236 -165 293 -223 44 -45 71 -87 103 -165 28
-67 30 -79 25 -153 -7 -81 -19 -146 -57 -290 -24 -91 -156 -369 -198 -417 -15
-18 -58 -91 -95 -163 -37 -71 -78 -141 -91 -155 -12 -14 -26 -38 -29 -55 -4
-16 -33 -77 -66 -135 -33 -58 -60 -112 -60 -122 0 -9 -4 -19 -9 -22 -5 -3 -12
-18 -16 -33 -3 -16 -19 -48 -34 -73 -15 -25 -40 -79 -55 -120 -16 -41 -37 -86
-48 -99 -10 -13 -23 -42 -29 -65 -5 -22 -24 -75 -41 -116 -17 -41 -35 -88 -39
-105 -13 -51 -48 -147 -58 -159 -5 -6 -19 -51 -31 -101 -12 -49 -29 -102 -36
-117 -8 -15 -14 -40 -14 -56 0 -17 -9 -58 -20 -93 -10 -35 -24 -93 -30 -129
-7 -36 -16 -85 -20 -110 -19 -106 -30 -186 -50 -360 -26 -244 -40 -339 -52
-373 -16 -42 -122 -134 -171 -148 -23 -7 -70 -12 -105 -12 -71 1 -144 31 -213
89 -128 107 -536 241 -739 244 -165 2 -240 59 -240 184 0 51 3 59 48 113 27
32 55 69 62 83 7 14 25 41 40 60 14 19 46 62 71 95 24 33 54 68 67 78 12 10
30 33 39 50 16 33 61 92 120 159 18 21 39 52 46 70 8 19 33 55 55 81 39 45
183 251 209 300 6 12 32 46 57 75 26 30 62 88 82 130 20 43 55 118 79 167 41
85 54 119 120 310 16 44 42 116 58 159 29 78 44 132 93 331 13 55 31 116 38
135 8 19 17 67 21 106 4 40 13 84 21 98 7 15 18 54 24 87 6 34 15 72 21 86 5
13 14 57 20 96 5 40 16 92 23 117 7 25 23 83 36 130 50 187 162 431 228 494
17 15 61 39 99 52 64 22 78 23 233 18 145 -4 170 -7 215 -28z m-10585 -272
c14 -7 43 -30 66 -51 35 -33 46 -54 79 -156 l39 -119 -18 -91 c-10 -51 -20
-132 -23 -180 -9 -176 63 -305 287 -512 42 -39 86 -84 99 -100 13 -17 88 -89
167 -160 177 -162 197 -199 155 -292 -12 -25 -34 -51 -58 -66 -34 -22 -52 -25
-183 -31 -86 -4 -163 -13 -188 -21 -55 -19 -199 -120 -207 -145 -7 -23 -83
-103 -113 -119 -41 -22 -69 -13 -104 32 -82 104 -96 141 -113 284 -34 295 -75
477 -128 560 -13 21 -28 49 -32 63 -8 27 -51 93 -117 182 -46 61 -115 125
-189 176 -88 60 -119 151 -118 352 0 128 22 181 104 251 71 61 166 109 215
109 19 0 69 9 110 21 131 35 144 37 195 32 28 -3 61 -11 75 -19z m1029 -1863
c53 -28 94 -78 140 -174 48 -100 68 -178 81 -324 6 -62 15 -123 20 -135 5 -13
21 -62 35 -110 14 -47 32 -91 39 -97 8 -7 26 -35 40 -64 15 -29 51 -79 82
-112 31 -33 69 -78 86 -100 16 -22 59 -74 96 -114 37 -41 79 -94 94 -118 15
-24 31 -43 36 -43 5 0 49 -48 98 -107 352 -421 512 -558 849 -724 99 -49 194
-102 211 -117 17 -15 44 -54 60 -87 24 -50 29 -73 29 -135 0 -63 -5 -85 -31
-140 -66 -139 -137 -183 -384 -239 -38 -8 -134 -54 -198 -95 -48 -30 -155
-145 -194 -209 -30 -47 -116 -115 -174 -137 -34 -13 -186 -15 -206 -4 -8 5
-32 28 -53 52 -36 40 -39 48 -46 130 -17 188 -44 350 -71 427 -6 17 -13 48
-16 70 -2 22 -10 49 -17 60 -7 11 -30 63 -50 115 -21 52 -43 102 -50 110 -12
15 -106 185 -185 335 -24 44 -58 107 -77 140 -48 84 -51 90 -98 180 -57 111
-178 333 -239 440 -29 50 -61 107 -71 129 -46 89 -131 151 -257 185 -79 22
-182 90 -220 148 -45 68 -125 207 -142 247 -10 24 -16 67 -16 116 0 88 14 138
73 260 15 30 27 60 27 66 0 13 76 76 120 99 25 13 78 22 180 30 110 9 162 18
215 38 85 31 134 33 184 8z m5669 -1226 c65 -3 146 -14 190 -26 65 -17 209
-82 338 -151 46 -25 156 -136 197 -200 19 -31 40 -59 46 -62 20 -13 51 -137
51 -207 0 -50 -8 -91 -31 -156 -16 -48 -35 -103 -40 -122 -31 -99 -146 -275
-256 -389 -84 -87 -169 -214 -194 -292 -4 -14 -20 -56 -35 -95 -14 -38 -30
-92 -35 -120 -10 -57 -76 -713 -109 -1070 -20 -227 -40 -447 -50 -550 -5 -60
-16 -184 -24 -275 -8 -91 -21 -235 -30 -320 -15 -152 -28 -302 -46 -530 -5
-63 -12 -124 -15 -135 -3 -11 -14 -135 -25 -275 -11 -140 -25 -300 -31 -355
-6 -55 -8 -135 -6 -177 5 -79 49 -296 72 -358 8 -19 16 -52 20 -73 4 -25 19
-52 45 -78 21 -22 42 -54 45 -71 4 -17 24 -68 45 -113 l37 -81 1 -143 c1 -100
-3 -153 -12 -176 -8 -17 -17 -50 -21 -73 -20 -120 -179 -323 -302 -384 -30
-16 -67 -36 -81 -46 -15 -10 -62 -27 -106 -37 -67 -15 -107 -17 -270 -12 -176
5 -196 7 -248 30 -126 56 -182 114 -248 257 l-35 75 3 150 c2 83 4 179 6 215
1 36 -2 149 -7 252 -11 209 -4 257 54 386 16 35 29 67 29 70 0 4 15 30 33 57
18 28 46 75 63 105 62 110 111 313 119 486 8 172 23 372 28 381 3 5 8 80 12
168 7 189 18 341 40 560 8 88 17 207 19 265 6 144 24 386 30 418 3 15 6 63 7
107 1 44 5 107 10 140 5 33 11 125 14 205 5 150 20 353 30 405 3 17 12 156 21
310 8 154 19 316 25 360 11 93 13 337 4 445 -11 131 -52 229 -159 388 -36 53
-58 97 -62 125 -4 23 -13 51 -20 62 -27 43 -34 107 -19 195 8 47 19 101 26
120 6 19 19 55 27 80 28 82 78 136 197 215 59 39 159 75 212 75 21 1 63 9 93
20 30 11 71 20 90 20 19 1 44 5 55 10 11 4 31 6 45 4 14 -2 76 -6 138 -9z
m21938 -596 c61 -11 160 -60 181 -90 7 -10 28 -27 47 -39 28 -17 49 -49 104
-158 43 -87 73 -161 81 -202 7 -36 19 -82 27 -103 17 -45 19 -298 4 -457 -9
-100 -47 -301 -69 -365 -5 -16 -22 -81 -36 -143 -26 -109 -27 -119 -16 -222 7
-67 21 -135 36 -175 14 -36 25 -76 25 -89 0 -13 13 -66 29 -117 32 -107 63
-231 91 -369 23 -118 64 -310 79 -370 11 -45 60 -313 107 -575 13 -77 33 -189
44 -250 11 -60 24 -142 29 -182 5 -39 11 -75 14 -80 3 -4 12 -89 21 -188 9
-99 24 -216 32 -260 9 -44 20 -127 24 -185 12 -144 29 -292 36 -310 6 -14 19
-139 30 -275 2 -33 11 -89 19 -125 7 -36 19 -94 25 -130 20 -114 148 -366 241
-474 53 -62 72 -91 126 -201 68 -136 78 -197 70 -422 -8 -238 -27 -298 -132
-438 -83 -109 -150 -169 -232 -204 -39 -17 -79 -31 -88 -31 -9 0 -30 -7 -47
-16 -48 -25 -259 -35 -383 -18 -203 27 -322 74 -415 165 -82 80 -138 164 -157
238 -22 83 -4 336 28 376 11 15 37 90 60 173 11 41 26 84 33 95 7 12 21 56 31
97 9 41 21 91 26 111 28 113 33 501 7 552 -5 10 -18 71 -28 135 -10 64 -26
158 -35 207 -9 50 -20 115 -25 145 -17 103 -49 285 -58 335 -6 28 -18 95 -27
150 -10 55 -21 113 -26 129 -5 16 -9 43 -9 59 0 40 -34 229 -60 337 -11 44
-29 148 -39 225 -5 33 -13 80 -19 105 -6 25 -16 79 -22 120 -6 41 -21 125 -32
185 -11 61 -24 137 -29 170 -16 119 -28 185 -35 197 -8 13 -13 37 -34 188 -6
47 -16 99 -20 115 -12 39 -69 368 -81 470 -10 83 -80 306 -121 387 -43 84 -97
154 -145 186 -125 83 -241 219 -310 362 -73 153 -79 200 -59 439 9 107 21 202
26 212 6 10 10 25 10 34 0 9 22 63 49 120 44 93 59 113 133 185 45 44 87 80
93 80 5 0 23 13 40 29 41 39 212 107 321 126 49 9 105 20 124 25 52 12 218 12
286 -1z m-19789 -119 c26 -5 86 -17 133 -26 105 -19 275 -87 315 -125 17 -16
35 -29 40 -29 6 0 48 -36 93 -80 74 -72 89 -92 133 -185 27 -57 49 -111 49
-120 0 -9 4 -24 9 -34 6 -10 15 -78 22 -151 15 -173 4 -237 -64 -380 -69 -143
-185 -279 -310 -362 -48 -32 -102 -102 -145 -186 -41 -81 -111 -304 -121 -387
-12 -102 -69 -431 -81 -470 -4 -16 -14 -68 -20 -115 -21 -151 -26 -175 -34
-188 -7 -12 -19 -78 -35 -197 -5 -33 -18 -109 -29 -170 -11 -60 -26 -144 -32
-185 -6 -41 -16 -95 -22 -120 -6 -25 -14 -72 -19 -105 -10 -77 -28 -181 -39
-225 -26 -108 -60 -297 -60 -337 0 -16 -4 -43 -9 -59 -5 -16 -16 -74 -26 -129
-9 -55 -21 -122 -27 -150 -9 -50 -41 -232 -58 -335 -5 -30 -16 -95 -25 -145
-9 -49 -25 -143 -35 -207 -10 -64 -23 -125 -29 -136 -15 -29 -18 -411 -3 -531
6 -57 16 -120 21 -140 5 -20 17 -70 26 -111 10 -41 24 -85 31 -97 7 -11 22
-54 33 -95 23 -83 49 -158 60 -173 15 -18 31 -103 31 -157 0 -119 -52 -223
-170 -337 -93 -91 -212 -138 -415 -165 -124 -17 -335 -7 -383 18 -17 9 -38 16
-47 16 -9 0 -49 14 -88 31 -82 35 -149 95 -232 204 -103 136 -125 206 -125
389 0 166 16 241 75 358 53 104 72 134 124 194 93 108 221 360 241 474 6 36
18 94 25 130 8 36 17 92 19 125 11 136 24 261 30 275 7 18 24 166 36 310 4 58
15 141 24 185 8 44 23 161 32 260 9 99 18 184 21 188 3 5 9 41 14 80 5 40 18
122 29 182 11 61 31 173 44 250 47 262 96 530 107 575 15 60 56 252 79 370 28
138 59 262 91 369 16 51 29 104 29 117 0 13 11 53 24 88 30 79 49 233 41 335
-6 71 -44 259 -66 326 -6 17 -22 82 -36 145 -34 150 -45 479 -19 557 8 27 22
78 31 116 9 38 44 123 81 197 52 101 73 134 100 151 19 11 40 28 47 38 20 28
109 75 167 87 68 15 232 17 297 4z m-4243 -435 c33 -9 71 -22 85 -30 86 -47
151 -69 272 -94 163 -33 229 -68 307 -164 88 -109 97 -135 96 -267 0 -103 -3
-124 -32 -204 -18 -49 -38 -97 -46 -105 -7 -9 -27 -47 -44 -84 -18 -38 -45
-85 -60 -105 -36 -47 -119 -203 -166 -313 -20 -46 -54 -156 -77 -244 -35 -136
-41 -179 -45 -288 -2 -71 -6 -133 -10 -138 -7 -11 -5 -572 3 -799 3 -91 6
-208 7 -260 1 -52 8 -153 14 -225 7 -71 15 -175 18 -230 5 -97 48 -542 64
-675 5 -36 16 -96 24 -135 9 -38 16 -95 16 -126 0 -31 6 -74 14 -95 7 -22 16
-68 20 -104 4 -36 15 -101 25 -145 11 -44 33 -156 51 -250 17 -93 35 -186 40
-205 12 -46 38 -273 39 -330 1 -62 -25 -202 -45 -247 -54 -123 -67 -143 -107
-172 -23 -17 -51 -39 -62 -50 -25 -24 -132 -69 -206 -87 -39 -9 -73 -10 -115
-4 -102 15 -288 48 -309 56 -30 11 -178 109 -196 130 -32 36 -103 189 -102
219 0 16 1 59 2 94 2 56 15 156 51 396 6 38 8 76 5 84 -3 7 1 24 10 37 24 37
53 160 65 279 6 61 20 160 30 220 26 156 57 457 66 650 10 205 10 273 1 505
-13 332 -14 357 -26 450 -5 47 -15 153 -22 235 -6 83 -15 193 -19 245 -4 52
-13 172 -19 265 -7 94 -19 231 -27 305 -9 74 -17 155 -18 180 -2 44 -18 136
-37 215 -5 22 -14 65 -21 95 -6 30 -30 107 -54 170 -23 63 -47 133 -54 155 -6
22 -18 63 -26 90 -17 60 -42 199 -43 240 0 17 -4 62 -9 100 -5 39 -5 101 0
140 4 39 6 88 3 110 -6 39 15 208 34 271 11 38 58 114 70 114 5 0 33 20 61 44
50 43 157 86 245 100 53 8 198 -3 259 -19z m30198 -817 c74 -12 117 -35 209
-112 20 -17 55 -46 78 -64 75 -60 112 -158 156 -405 23 -129 25 -165 20 -280
-3 -73 -6 -149 -6 -171 1 -43 -19 -114 -55 -197 -13 -31 -24 -67 -24 -81 0
-13 -4 -28 -8 -33 -8 -10 -23 -49 -81 -205 -37 -101 -109 -371 -117 -438 -3
-26 -12 -64 -20 -85 -8 -20 -14 -54 -14 -74 0 -19 -4 -52 -9 -72 -5 -20 -15
-74 -21 -121 -6 -47 -18 -108 -26 -135 -8 -28 -18 -96 -24 -151 -5 -55 -14
-121 -19 -145 -27 -118 -51 -276 -57 -374 -4 -73 -34 -258 -44 -270 -4 -5 -18
-68 -29 -140 -12 -71 -29 -164 -37 -205 -27 -128 -52 -307 -63 -450 -8 -101
-3 -185 20 -295 13 -62 25 -287 22 -415 -4 -189 -31 -318 -100 -474 -65 -146
-172 -300 -240 -345 -60 -40 -147 -57 -213 -41 -28 7 -56 17 -63 24 -32 30
-125 96 -136 96 -6 0 -14 7 -17 15 -11 29 -135 78 -244 97 -136 23 -251 76
-302 139 -49 62 -46 54 -63 197 -11 95 -12 137 -5 158 6 15 8 40 5 56 -7 30
31 158 68 233 57 116 165 241 262 303 39 25 76 54 84 65 8 11 25 29 38 41 21
18 53 70 114 187 11 19 26 71 34 115 8 43 21 101 30 128 8 27 15 68 15 91 0
23 9 84 21 136 11 52 24 121 29 155 4 34 12 70 18 81 6 11 16 60 23 109 6 49
17 103 25 119 7 17 15 55 18 85 4 53 33 187 61 280 7 25 21 99 30 165 17 123
31 200 61 340 9 44 23 114 30 155 8 41 21 107 29 145 40 177 41 401 4 650 -16
105 -67 303 -93 365 -21 47 -31 95 -61 290 -6 42 15 252 31 310 8 30 24 73 34
95 10 22 28 62 40 90 27 64 77 124 148 178 75 58 92 66 165 82 79 17 177 18
269 3z m-32096 -132 c59 -18 167 -97 217 -158 20 -24 45 -66 57 -93 12 -28 30
-68 40 -90 36 -77 52 -148 52 -234 1 -108 -26 -269 -58 -341 -46 -108 -90
-318 -115 -546 -16 -156 0 -427 36 -589 8 -38 21 -104 29 -145 7 -41 21 -111
30 -155 30 -140 44 -217 61 -340 9 -66 23 -140 30 -165 28 -93 57 -227 61
-280 3 -30 11 -68 18 -85 8 -16 19 -70 25 -119 7 -49 17 -98 23 -109 6 -11 14
-47 18 -81 5 -34 18 -103 29 -155 12 -52 21 -116 21 -142 0 -25 7 -66 16 -90
8 -24 22 -80 30 -123 7 -44 22 -96 33 -115 61 -117 93 -169 114 -187 13 -12
30 -30 38 -41 8 -11 46 -40 84 -65 77 -50 127 -100 197 -198 57 -81 78 -124
112 -225 l26 -80 -15 -125 c-8 -69 -15 -128 -15 -132 0 -3 -18 -30 -41 -58
-57 -72 -165 -124 -309 -148 -109 -19 -233 -68 -244 -97 -3 -8 -11 -15 -17
-15 -11 0 -104 -66 -136 -96 -7 -7 -35 -17 -63 -24 -66 -16 -153 1 -213 41
-68 45 -175 199 -240 345 -79 180 -103 314 -88 498 5 66 7 124 5 131 -3 7 0
41 6 76 28 160 32 213 31 349 -1 80 -9 176 -17 215 -7 39 -14 85 -14 102 0 18
-4 52 -10 75 -11 53 -54 288 -76 423 -9 55 -20 105 -24 110 -5 6 -15 56 -24
113 -8 56 -17 106 -21 111 -3 5 -1 21 5 36 7 19 6 44 -5 88 -8 34 -21 107 -30
162 -9 55 -21 117 -26 137 -5 20 -14 83 -19 140 -6 56 -16 125 -24 153 -8 27
-20 88 -26 135 -6 47 -16 101 -21 121 -5 20 -9 53 -9 72 0 20 -6 54 -14 74 -8
21 -17 59 -20 85 -8 67 -80 337 -117 438 -58 156 -73 195 -81 205 -4 5 -8 20
-8 33 0 14 -11 50 -24 81 -64 150 -73 292 -31 529 44 246 82 344 156 404 23
18 58 47 78 64 84 71 134 99 195 111 79 15 257 9 322 -11z m18717 -1475 c16
-6 41 -11 56 -11 16 0 34 -7 41 -14 6 -8 34 -22 61 -31 27 -9 52 -22 56 -29
16 -25 109 -79 186 -107 92 -34 145 -36 368 -14 288 27 363 29 426 11 32 -10
81 -24 108 -32 28 -8 73 -27 100 -41 46 -23 66 -39 128 -99 13 -13 52 -28 97
-39 100 -22 141 -36 226 -75 l72 -33 44 22 c34 16 63 21 126 21 77 0 83 -2
117 -31 19 -17 35 -36 35 -42 0 -5 11 -24 24 -41 29 -39 86 -161 86 -185 0
-10 3 -32 6 -50 l6 -31 40 35 c57 48 191 95 274 95 100 0 135 -26 214 -158 59
-100 86 -181 104 -311 20 -139 33 -196 50 -224 8 -12 21 -51 30 -86 17 -67 56
-144 113 -221 97 -134 92 -129 141 -135 26 -4 56 -10 67 -15 31 -13 152 -38
237 -49 42 -6 102 -22 133 -36 32 -14 63 -25 69 -25 17 0 159 -73 192 -99 14
-11 32 -21 39 -21 7 0 29 -24 49 -54 36 -55 47 -113 27 -145 -5 -7 -6 -22 -4
-32 7 -24 102 -52 268 -79 150 -24 199 -38 315 -85 90 -37 177 -82 215 -111
17 -13 37 -24 44 -24 32 0 111 -131 111 -183 0 -13 -13 -42 -28 -63 -16 -21
-31 -46 -34 -55 -7 -17 -115 -94 -148 -104 -25 -8 -25 -12 -1 -51 10 -17 22
-49 26 -72 4 -23 11 -45 16 -48 5 -3 44 6 87 19 163 53 257 42 428 -48 164
-86 330 -222 403 -329 43 -65 71 -121 71 -145 0 -11 11 -44 24 -73 27 -58 74
-210 85 -273 16 -88 117 -247 228 -361 94 -96 105 -99 308 -115 227 -16 318
-26 360 -39 22 -6 57 -15 78 -19 84 -18 152 -132 128 -213 -7 -21 -9 -48 -6
-59 13 -41 -15 -112 -67 -165 l-49 -51 74 -61 c41 -33 92 -71 113 -83 21 -12
48 -30 59 -40 38 -33 241 -128 360 -168 131 -44 208 -55 485 -71 165 -9 182
-12 318 -52 87 -26 130 -66 157 -148 17 -50 17 -56 1 -107 -14 -42 -36 -76
-100 -147 -73 -80 -86 -100 -104 -161 -27 -92 -42 -160 -42 -188 0 -47 -42
-149 -90 -220 -76 -111 -152 -181 -309 -283 -134 -88 -147 -94 -195 -94 -74 0
-152 39 -171 85 -9 19 -27 42 -43 52 -28 17 -108 91 -165 153 -18 19 -52 53
-77 75 -52 47 -476 462 -631 618 -58 59 -110 107 -115 107 -5 0 -29 -14 -54
-30 -56 -38 -99 -38 -169 -4 -39 20 -57 36 -67 60 -8 19 -19 34 -25 34 -12 0
-34 21 -327 308 -397 390 -492 485 -492 493 0 5 -4 9 -10 9 -5 0 -20 9 -33 20
-13 12 -53 35 -88 51 -35 17 -77 41 -94 53 -16 12 -68 41 -115 64 -47 23 -115
64 -151 90 -105 75 -256 221 -303 292 -51 76 -82 106 -151 146 -27 15 -63 36
-80 46 -16 9 -50 27 -75 39 -25 12 -58 31 -75 43 -16 12 -65 39 -107 60 -43
21 -80 41 -83 46 -3 5 -37 30 -75 55 -38 25 -77 56 -87 69 -10 12 -25 26 -34
32 -29 16 -118 128 -146 181 -14 29 -34 60 -45 69 -10 10 -18 25 -18 35 0 9
-6 30 -14 46 -8 15 -22 53 -31 85 -12 36 -29 67 -51 88 -19 17 -46 51 -60 75
-14 24 -34 47 -44 50 -11 3 -31 20 -45 37 l-26 30 -42 -16 c-82 -31 -189 -12
-252 44 -16 15 -37 31 -46 36 -18 10 -83 86 -141 167 -21 29 -56 73 -78 99
-22 26 -40 49 -40 52 0 3 -35 41 -77 84 -43 44 -94 99 -113 123 -50 62 -274
283 -345 340 -67 54 -83 68 -105 93 -30 33 -96 89 -130 111 -19 12 -53 39 -74
59 -22 20 -87 68 -145 108 -59 39 -108 74 -111 77 -3 4 -23 18 -46 32 -22 15
-57 43 -79 63 -21 20 -45 36 -54 36 -9 1 -33 23 -54 50 -22 26 -50 51 -63 54
-34 9 -124 63 -159 96 -16 15 -48 39 -70 53 -22 15 -59 40 -83 57 -23 16 -51
30 -60 30 -23 0 -129 55 -143 73 -14 19 -117 88 -159 108 -25 11 -58 27 -75
34 -122 57 -189 84 -227 90 -24 4 -65 16 -93 26 -27 11 -59 19 -70 19 -11 0
-38 9 -59 21 -21 11 -70 24 -110 29 -39 5 -91 14 -116 20 -25 6 -77 15 -115
20 -39 4 -88 15 -110 22 -51 18 -142 84 -150 108 -3 11 -29 36 -58 57 -70 50
-83 66 -108 132 -42 110 -22 346 35 410 30 33 95 76 137 90 128 42 362 59 432
32z m-5348 -122 c157 -32 216 -59 271 -120 31 -35 57 -142 49 -198 -9 -58 -40
-143 -63 -168 -52 -58 -105 -83 -212 -98 -58 -9 -118 -20 -134 -25 -16 -6 -41
-10 -55 -10 -27 0 -143 -32 -199 -56 -18 -8 -51 -16 -75 -19 -39 -6 -79 -21
-247 -98 -151 -68 -268 -133 -305 -168 -17 -16 -36 -29 -42 -29 -6 0 -17 -7
-24 -16 -8 -9 -31 -28 -52 -41 -21 -13 -46 -31 -56 -41 -22 -21 -66 -48 -108
-68 -51 -22 -148 -5 -209 38 -56 39 -142 141 -151 178 -6 28 -96 150 -143 195
-16 16 -30 34 -30 40 0 7 -9 20 -21 31 -30 27 -69 116 -69 158 0 48 35 148 58
163 9 7 28 23 42 36 32 31 111 72 175 91 28 8 76 22 108 32 63 18 138 16 426
-11 223 -22 276 -20 368 14 77 28 170 82 186 107 4 7 29 20 56 29 27 9 55 23
61 31 7 7 24 14 39 14 14 1 49 7 76 15 54 15 190 12 280 -6z m-2266 -490 c73
-33 105 -50 126 -70 11 -10 54 -47 95 -81 41 -35 88 -79 105 -98 16 -19 52
-57 79 -85 26 -27 56 -61 64 -75 9 -14 22 -28 29 -33 16 -10 73 -110 100 -177
31 -74 31 -178 2 -246 -27 -61 -99 -153 -120 -154 -9 0 -33 -16 -54 -36 -22
-20 -57 -48 -79 -63 -23 -14 -43 -28 -46 -32 -3 -3 -52 -38 -111 -77 -58 -40
-123 -88 -145 -108 -21 -20 -55 -47 -74 -59 -34 -22 -100 -78 -130 -111 -22
-25 -38 -39 -105 -93 -71 -57 -295 -278 -345 -340 -19 -24 -70 -79 -112 -123
-43 -43 -78 -81 -78 -84 0 -3 -18 -26 -40 -52 -22 -26 -57 -70 -78 -99 -58
-81 -123 -157 -141 -167 -9 -5 -29 -21 -46 -36 -65 -59 -166 -74 -265 -41 -42
15 -67 33 -107 77 -29 31 -53 62 -53 68 -2 49 -145 264 -176 265 -6 1 -19 10
-29 20 -24 27 -118 81 -190 110 -33 13 -67 30 -76 37 -8 8 -21 14 -28 14 -12
0 -93 59 -99 72 -2 4 -17 23 -33 44 -41 52 -40 100 7 170 20 30 42 54 49 54 7
0 25 10 39 21 33 26 175 99 192 99 6 0 37 11 69 25 31 14 91 30 133 36 85 11
206 36 237 49 11 5 40 11 64 15 52 7 146 45 283 115 54 28 104 50 112 50 8 0
21 8 28 18 7 11 24 25 38 32 14 7 49 32 79 54 29 23 71 52 92 66 44 29 68 53
95 95 10 17 42 62 70 100 88 121 145 280 175 490 13 93 51 192 95 251 13 17
24 36 24 41 0 6 16 25 35 42 34 29 40 31 117 31 61 0 93 -5 127 -21z m-2104
-2085 c87 -27 114 -41 196 -95 63 -43 209 -185 225 -220 57 -119 68 -157 72
-239 4 -86 -24 -240 -48 -264 -5 -5 -10 -20 -10 -31 0 -12 -8 -29 -18 -39 -11
-9 -31 -40 -45 -69 -28 -53 -117 -165 -146 -181 -9 -6 -24 -20 -34 -32 -10
-13 -49 -44 -87 -69 -38 -25 -72 -50 -75 -55 -3 -5 -40 -25 -83 -46 -42 -21
-90 -48 -107 -60 -16 -12 -50 -31 -75 -43 -25 -12 -58 -30 -75 -39 -16 -10
-55 -32 -86 -50 -31 -18 -64 -41 -74 -52 -10 -11 -26 -20 -35 -20 -9 0 -29
-13 -45 -30 -16 -16 -33 -30 -37 -30 -12 0 -120 -73 -178 -120 -25 -19 -63
-48 -85 -62 -22 -14 -62 -47 -88 -72 -27 -25 -53 -46 -57 -46 -10 0 -85 -65
-140 -120 -19 -19 -51 -46 -70 -59 -19 -14 -52 -42 -73 -63 -21 -21 -43 -38
-48 -38 -5 0 -9 -4 -9 -9 0 -8 -95 -103 -492 -493 -293 -287 -315 -308 -327
-308 -6 0 -17 -15 -25 -34 -10 -24 -28 -40 -67 -60 -79 -39 -110 -35 -202 27
-43 28 -86 57 -95 62 -60 36 -110 73 -125 93 -11 12 -34 39 -53 59 -19 20 -34
39 -34 44 0 4 -10 20 -23 36 -25 31 -67 137 -67 171 0 22 -11 72 -37 170 -11
43 -27 67 -86 129 -90 95 -108 141 -83 220 19 59 81 123 121 123 13 0 34 4 47
9 67 25 109 31 283 41 196 12 304 28 357 55 17 8 38 15 46 15 28 0 185 77 285
139 47 29 276 210 323 255 6 6 24 22 40 35 16 14 64 55 106 92 42 38 85 75 95
83 10 9 45 41 78 72 33 31 77 67 97 81 20 14 39 31 42 39 3 8 12 14 20 14 8 0
17 8 20 18 4 10 26 37 50 60 25 23 67 78 94 122 40 65 55 104 82 208 18 70 43
148 56 173 13 26 24 56 24 68 0 24 38 101 50 101 4 0 10 10 14 23 12 48 221
218 350 284 131 67 222 73 371 27z"/>
</g>
</svg>
