<?xml version="1.0" standalone="no"?>
<!DOCTYPE svg PUBLIC "-//W3C//DTD SVG 20010904//EN"
 "http://www.w3.org/TR/2001/REC-SVG-20010904/DTD/svg10.dtd">
<svg version="1.0" xmlns="http://www.w3.org/2000/svg"
 viewBox="0 0 4841.000000 3346.000000"
 preserveAspectRatio="xMidYMid meet">
<metadata>
Created by potrace 1.16, written by Peter Selinger 2001-2019
</metadata>
<g transform="translate(0.000000,3346.000000) scale(0.100000,-0.100000)" stroke="none">
<path d="M13669 32866 c-69 -27 -87 -39 -99 -60 -7 -13 -23 -29 -35 -36 -24
-13 -77 -88 -95 -134 -15 -40 -12 -143 5 -206 51 -184 56 -226 46 -365 -14
-181 -25 -229 -80 -345 -36 -76 -92 -152 -147 -197 -78 -65 -132 -156 -144
-242 -7 -56 -6 -61 38 -188 36 -103 104 -123 256 -73 80 27 114 32 184 32 77
0 99 -4 187 -38 81 -31 113 -38 171 -39 61 0 76 4 113 28 59 39 84 98 78 180
-4 67 -23 125 -50 155 -30 32 -88 180 -103 260 -33 179 -36 213 -24 316 13
115 27 153 75 212 19 23 35 45 35 49 0 4 13 24 28 44 15 20 39 63 52 96 22 52
25 75 25 175 0 93 -4 122 -19 149 -64 119 -161 199 -270 223 -64 15 -196 17
-227 4z"/>
<path d="M34555 32870 c-11 -5 -31 -9 -45 -9 -56 -2 -169 -79 -221 -151 -59
-81 -64 -97 -64 -220 0 -100 3 -123 25 -175 13 -33 37 -76 52 -96 15 -20 28
-40 28 -44 0 -4 16 -26 35 -49 48 -59 62 -97 75 -212 12 -103 9 -137 -24 -316
-15 -80 -73 -228 -103 -260 -27 -30 -46 -88 -50 -155 -6 -82 19 -141 78 -180
37 -24 52 -28 113 -28 58 1 90 8 171 39 88 34 110 38 187 38 70 0 104 -5 184
-32 152 -50 220 -30 256 73 44 127 45 132 38 188 -12 86 -66 177 -144 242 -55
45 -111 121 -147 197 -55 116 -66 164 -80 345 -10 139 -5 181 46 365 17 63 20
166 5 206 -18 47 -71 121 -96 134 -13 8 -24 17 -24 20 0 18 -53 58 -92 70 -52
16 -176 22 -203 10z"/>
<path d="M9716 31353 c-39 -6 -101 -53 -144 -110 -21 -26 -43 -52 -50 -56 -7
-4 -19 -25 -28 -45 -8 -20 -23 -46 -33 -57 -27 -30 -40 -58 -67 -148 -35 -122
-29 -274 16 -406 15 -43 21 -87 22 -163 3 -202 -65 -362 -208 -490 -121 -107
-166 -352 -85 -455 28 -35 54 -41 80 -20 9 8 32 20 51 27 19 7 49 19 65 26
123 51 270 64 350 29 126 -54 239 -70 285 -38 86 57 131 135 138 239 4 62 1
79 -22 130 -15 33 -42 75 -60 94 -42 43 -109 183 -132 270 -12 48 -15 86 -10
146 9 121 20 147 147 336 86 129 86 130 98 207 11 69 10 78 -15 150 -14 42
-48 110 -75 152 -27 41 -49 80 -49 86 0 6 -18 27 -41 46 -57 49 -131 65 -233
50z"/>
<path d="M38538 31349 c-38 -11 -118 -73 -118 -92 0 -6 -22 -45 -49 -86 -27
-42 -61 -110 -75 -152 -25 -72 -26 -81 -15 -150 12 -77 12 -78 98 -207 127
-189 138 -215 147 -336 5 -60 2 -98 -10 -146 -23 -87 -90 -227 -132 -270 -18
-19 -45 -61 -60 -94 -23 -51 -26 -68 -22 -130 7 -104 52 -182 138 -239 46 -32
159 -16 285 38 80 35 227 22 350 -29 17 -7 46 -19 65 -26 19 -7 42 -19 51 -27
26 -21 52 -15 80 20 81 103 36 348 -85 455 -143 128 -211 288 -208 490 1 76 7
120 22 163 45 132 51 284 16 406 -27 90 -40 118 -67 148 -10 11 -25 37 -33 57
-9 20 -21 41 -28 45 -7 4 -29 30 -50 56 -60 80 -106 107 -191 112 -39 2 -88 0
-109 -6z"/>
<path d="M13505 30895 c-27 -8 -59 -19 -70 -24 -11 -6 -39 -15 -63 -21 -48
-12 -142 -63 -212 -114 -61 -44 -106 -136 -120 -242 -10 -73 -9 -87 16 -179
47 -174 50 -250 24 -464 -13 -102 -29 -199 -35 -216 -7 -16 -18 -66 -24 -110
-18 -121 -31 -183 -46 -212 -8 -15 -17 -52 -20 -82 -10 -85 -32 -196 -59 -297
-31 -111 -40 -137 -58 -155 -8 -8 -25 -36 -38 -63 -13 -27 -38 -72 -57 -100
-18 -28 -33 -55 -33 -60 0 -5 -15 -25 -32 -46 -49 -56 -110 -157 -119 -199
-16 -76 -9 -203 12 -217 6 -3 21 -23 34 -45 33 -52 86 -85 167 -103 58 -13 79
-14 172 -1 58 7 110 16 115 19 16 10 173 -14 240 -36 65 -22 163 -69 191 -93
21 -17 44 -24 129 -34 47 -6 83 -6 100 0 33 13 90 67 147 141 66 85 77 118 78
228 0 98 2 93 -59 225 -27 58 -47 131 -48 175 -2 84 13 434 23 515 5 44 12
170 15 280 8 287 34 518 69 600 7 16 21 56 32 89 10 32 26 69 36 81 10 13 18
28 18 34 0 7 7 22 15 35 23 35 48 253 35 308 -5 24 -10 59 -10 78 0 19 -9 53
-20 75 -11 22 -19 45 -20 51 0 22 -58 64 -130 95 -208 88 -305 108 -395 84z"/>
<path d="M34770 30900 c-49 -7 -143 -40 -260 -89 -72 -31 -130 -73 -130 -95
-1 -6 -9 -29 -20 -51 -11 -22 -20 -56 -20 -75 0 -19 -5 -54 -10 -78 -13 -55
12 -273 35 -308 8 -13 15 -28 15 -35 0 -6 8 -21 18 -34 10 -12 26 -49 36 -81
11 -33 25 -73 32 -89 35 -82 61 -313 69 -600 3 -110 10 -236 15 -280 10 -81
25 -431 23 -515 -2 -60 -32 -149 -91 -269 -23 -46 -22 -210 1 -264 33 -76 157
-216 208 -236 17 -6 53 -6 100 0 85 10 108 17 129 34 28 24 126 71 191 93 67
22 224 46 240 36 5 -3 57 -12 115 -19 93 -13 114 -12 172 1 81 18 134 51 167
103 13 22 28 42 34 45 21 14 28 141 12 217 -9 42 -70 143 -118 199 -18 21 -33
41 -33 46 0 5 -15 32 -33 60 -19 28 -44 73 -57 100 -13 27 -30 55 -38 63 -33
34 -98 284 -117 452 -3 30 -12 67 -20 82 -15 29 -28 91 -46 212 -6 44 -17 94
-24 110 -6 17 -22 114 -35 216 -26 214 -23 290 24 464 25 92 26 106 16 179
-14 106 -59 198 -120 242 -73 53 -167 103 -218 115 -26 7 -51 15 -57 20 -13 9
-128 39 -146 38 -8 -1 -34 -5 -59 -9z"/>
<path d="M17362 30579 c-51 -16 -74 -32 -131 -87 -65 -63 -70 -71 -84 -137
-12 -57 -14 -96 -6 -205 4 -74 11 -144 14 -155 3 -11 -5 -78 -20 -149 -35
-177 -67 -239 -188 -371 -41 -44 -82 -96 -92 -115 -9 -19 -28 -44 -40 -55 -30
-26 -85 -175 -85 -230 0 -34 7 -53 33 -86 63 -82 66 -83 270 -90 157 -5 189
-9 237 -28 30 -12 64 -31 75 -40 11 -10 49 -33 83 -52 55 -28 74 -33 135 -33
64 -1 76 2 114 29 31 22 49 45 65 85 40 97 27 189 -56 396 -93 233 -111 341
-86 534 14 108 45 162 154 271 82 83 94 100 105 147 22 90 2 149 -76 230 -73
74 -180 141 -239 147 -27 3 -65 8 -84 10 -19 2 -63 -5 -98 -16z"/>
<path d="M30893 30590 c-63 -7 -82 -14 -145 -55 -77 -51 -159 -129 -182 -174
-24 -45 -29 -97 -15 -153 11 -47 23 -64 105 -147 109 -109 140 -163 154 -271
25 -193 7 -301 -86 -534 -83 -207 -96 -299 -56 -396 16 -40 34 -63 65 -85 38
-27 50 -30 114 -29 61 0 80 5 135 33 34 19 72 42 83 52 11 9 45 28 75 40 48
19 80 23 237 28 204 7 207 8 271 90 25 33 32 52 32 86 0 55 -55 204 -85 230
-12 11 -31 36 -40 55 -10 19 -51 71 -92 115 -121 132 -153 194 -188 371 -15
71 -23 138 -20 149 3 11 10 81 14 155 8 109 6 148 -6 205 -14 66 -19 74 -84
137 -58 57 -79 70 -135 88 -36 11 -69 19 -73 19 -3 -1 -39 -5 -78 -9z"/>
<path d="M9360 29303 c-81 -40 -109 -62 -190 -143 -127 -126 -148 -186 -118
-322 6 -29 20 -65 30 -80 10 -14 18 -29 18 -32 0 -3 11 -29 24 -58 47 -104 56
-131 56 -172 0 -22 5 -59 10 -81 5 -22 14 -125 19 -230 6 -104 16 -228 21
-275 23 -188 28 -409 14 -563 -7 -82 -18 -164 -23 -181 -5 -17 -12 -49 -16
-71 -3 -22 -15 -69 -25 -105 -30 -104 -51 -211 -50 -260 1 -59 29 -160 47
-167 7 -3 27 -24 42 -47 52 -74 65 -83 130 -91 l61 -7 75 57 c119 89 171 109
285 108 53 0 121 -8 155 -17 70 -19 204 -21 254 -4 59 20 180 114 187 146 3
15 10 37 15 50 21 53 -1 157 -46 216 -18 23 -38 59 -44 79 -7 20 -24 53 -38
74 -29 43 -75 148 -105 238 -43 134 -72 368 -83 675 -3 91 -11 187 -17 213 -6
29 -8 81 -4 128 9 97 26 140 99 243 39 53 39 54 40 157 2 73 -3 121 -15 159
-9 30 -22 76 -29 103 -23 91 -192 227 -282 227 -40 0 -125 27 -148 47 -20 17
-114 33 -194 33 -51 0 -74 -7 -155 -47z"/>
<path d="M38767 29340 c-27 -5 -56 -15 -65 -23 -24 -20 -109 -47 -149 -47 -90
0 -259 -136 -282 -227 -7 -27 -20 -73 -29 -103 -12 -38 -17 -86 -15 -159 1
-103 1 -104 40 -157 73 -103 90 -146 99 -243 4 -47 2 -99 -4 -128 -6 -26 -14
-122 -17 -213 -11 -307 -40 -541 -83 -675 -30 -90 -76 -195 -105 -238 -14 -21
-31 -54 -38 -74 -6 -20 -26 -56 -44 -79 -45 -59 -67 -163 -46 -216 5 -13 12
-35 15 -50 7 -32 128 -126 187 -146 50 -17 184 -15 254 4 34 9 102 17 155 17
114 1 166 -19 285 -108 l75 -57 61 7 c65 8 78 17 130 91 15 23 35 44 42 47 18
7 46 108 47 167 1 49 -20 156 -50 260 -10 36 -22 83 -25 105 -4 22 -11 54 -16
71 -5 17 -16 99 -23 181 -14 154 -9 375 14 563 5 47 15 171 21 275 5 105 14
208 19 230 5 22 10 59 10 81 0 41 9 68 56 172 13 29 24 55 24 58 0 3 8 18 18
32 10 15 24 51 30 80 30 136 9 196 -118 322 -81 82 -109 103 -191 143 -87 43
-101 47 -165 46 -38 -1 -91 -5 -117 -9z"/>
<path d="M16868 28716 c-116 -42 -196 -115 -256 -232 -25 -50 -48 -170 -62
-324 -11 -128 -17 -166 -30 -195 -5 -11 -15 -52 -24 -91 -8 -39 -33 -118 -55
-174 -23 -56 -41 -106 -41 -112 0 -9 -33 -80 -129 -278 -28 -58 -69 -130 -91
-160 -21 -30 -42 -67 -45 -83 -4 -15 -28 -51 -54 -80 -92 -102 -191 -281 -207
-372 -15 -88 -9 -183 13 -213 38 -52 68 -59 252 -60 183 -1 239 -10 284 -48
16 -13 34 -24 40 -24 11 0 108 -77 215 -171 42 -37 110 -74 167 -91 48 -14
118 8 170 54 45 40 115 165 115 206 0 11 7 39 16 63 12 34 17 116 24 349 5
168 14 355 20 415 13 128 45 333 59 379 5 17 22 72 36 121 50 169 107 330 136
382 16 29 29 61 29 72 0 10 8 38 19 62 47 109 32 287 -35 420 -26 53 -46 76
-96 114 -104 79 -134 89 -278 92 -110 2 -133 0 -192 -21z"/>
<path d="M31212 28725 c-48 -15 -74 -30 -150 -88 -127 -96 -189 -367 -121
-526 11 -24 19 -52 19 -62 0 -11 13 -43 29 -72 29 -52 86 -213 136 -382 14
-49 31 -104 36 -121 14 -46 46 -251 59 -379 6 -60 15 -247 20 -415 7 -233 12
-315 24 -349 9 -24 16 -52 16 -63 0 -41 70 -166 115 -206 52 -46 122 -68 170
-54 57 17 125 54 167 91 107 94 204 171 215 171 6 0 24 11 40 24 45 38 101 47
284 48 184 1 214 8 252 60 22 30 28 125 13 213 -16 91 -115 270 -207 372 -26
29 -50 65 -54 80 -3 16 -24 53 -45 83 -22 30 -63 102 -91 160 -96 198 -129
269 -129 278 0 6 -18 56 -41 112 -22 56 -47 135 -55 174 -9 39 -19 80 -24 91
-13 29 -19 67 -30 195 -25 284 -71 398 -196 491 -86 63 -175 89 -303 88 -58 0
-125 -6 -149 -14z"/>
<path d="M13020 27811 c-8 -6 -26 -11 -39 -11 -57 0 -227 -69 -316 -128 -163
-109 -214 -175 -215 -281 0 -68 5 -88 49 -211 15 -41 35 -97 45 -125 27 -75
36 -153 37 -325 1 -122 -2 -165 -16 -200 -9 -25 -23 -94 -31 -155 -32 -238
-44 -322 -54 -365 -17 -83 -31 -162 -56 -334 -14 -94 -29 -191 -34 -216 -22
-109 -32 -165 -55 -330 -14 -96 -30 -195 -35 -220 -12 -64 -38 -213 -51 -295
-5 -38 -14 -86 -19 -105 -5 -20 -17 -83 -25 -140 -36 -230 -57 -304 -116 -398
-41 -65 -123 -163 -144 -171 -11 -4 -90 -73 -148 -129 -71 -68 -115 -188 -124
-339 -5 -90 -3 -111 17 -174 29 -95 86 -158 168 -188 85 -31 115 -33 205 -16
113 22 397 22 435 1 15 -9 70 -27 122 -42 52 -14 102 -32 110 -39 8 -7 29 -17
45 -21 17 -4 77 -31 134 -61 57 -29 112 -53 122 -53 10 0 21 -5 25 -11 4 -7
24 -9 53 -6 36 4 52 12 76 40 16 19 38 37 47 40 36 13 100 185 118 321 21 150
-5 287 -72 380 -15 21 -28 47 -28 57 0 10 -11 47 -24 82 -27 72 -34 213 -16
327 6 36 22 144 36 240 14 96 29 202 34 235 5 33 16 110 24 170 9 61 20 135
26 165 5 30 19 107 30 170 12 63 28 165 36 225 25 187 31 227 47 305 8 41 27
152 41 245 15 94 31 197 36 230 6 33 15 94 20 135 5 41 14 98 20 125 24 117
40 212 40 241 0 16 7 39 15 50 8 10 15 25 15 31 0 7 13 41 29 75 16 35 35 78
42 97 8 19 33 71 56 115 156 303 147 282 148 375 0 47 -2 106 -4 131 -11 146
-126 313 -212 309 -13 -1 -60 3 -104 9 -75 10 -169 48 -215 87 -35 30 -105 56
-173 65 -39 5 -92 12 -117 15 -25 3 -52 1 -60 -4z"/>
<path d="M35320 27817 c-3 -3 -44 -10 -92 -16 -81 -9 -150 -34 -188 -66 -46
-39 -140 -77 -215 -87 -44 -6 -91 -10 -104 -9 -86 4 -201 -163 -212 -309 -2
-25 -4 -84 -4 -131 1 -93 -8 -72 148 -375 23 -44 48 -96 56 -115 7 -19 26 -62
42 -97 16 -34 29 -68 29 -75 0 -6 7 -21 15 -31 8 -11 15 -34 15 -50 0 -29 16
-124 40 -241 6 -27 15 -84 20 -125 5 -41 14 -102 20 -135 5 -33 21 -136 36
-230 14 -93 33 -204 41 -245 16 -78 22 -118 47 -305 8 -60 24 -162 36 -225 11
-63 25 -140 30 -170 6 -30 17 -104 26 -165 8 -60 19 -137 24 -170 5 -33 20
-139 34 -235 14 -96 30 -204 36 -240 18 -114 11 -255 -16 -327 -13 -35 -24
-72 -24 -82 0 -10 -13 -36 -28 -57 -67 -93 -93 -230 -72 -380 18 -136 82 -308
118 -321 9 -3 31 -21 47 -40 24 -28 40 -36 76 -40 29 -3 49 -1 53 6 4 6 15 11
25 11 10 0 65 24 122 53 57 30 118 57 134 61 17 4 37 14 45 21 8 7 58 25 110
39 52 15 107 33 122 42 38 21 322 21 435 -1 90 -17 120 -15 205 16 82 30 139
93 168 188 20 63 22 84 17 174 -9 151 -53 271 -124 339 -58 56 -137 125 -148
129 -21 8 -103 106 -144 171 -59 94 -80 168 -116 398 -8 57 -20 120 -25 140
-5 19 -14 67 -19 105 -13 82 -39 231 -51 295 -5 25 -21 124 -35 220 -23 165
-33 221 -55 330 -5 25 -20 122 -34 216 -25 172 -39 251 -56 334 -10 43 -22
127 -54 365 -8 61 -22 130 -31 155 -14 35 -17 78 -16 200 1 172 10 250 37 325
10 28 30 84 45 125 44 123 49 143 49 211 -1 46 -7 75 -23 105 -52 97 -273 245
-427 286 -91 25 -183 41 -190 35z"/>
<path d="M4295 27641 c-11 -5 -32 -10 -46 -10 -40 -1 -107 -65 -120 -114 -6
-23 -11 -43 -10 -44 0 -2 -6 -17 -13 -35 -10 -24 -12 -48 -5 -86 12 -80 37
-158 54 -172 8 -7 15 -18 15 -25 0 -7 28 -39 61 -71 34 -33 66 -63 71 -69 46
-52 68 -80 68 -90 0 -6 11 -22 25 -35 14 -13 25 -29 25 -36 0 -6 6 -17 14 -23
8 -7 17 -24 21 -38 3 -15 15 -38 25 -52 10 -14 24 -46 31 -71 7 -25 18 -49 25
-55 6 -5 14 -21 18 -35 4 -14 13 -47 20 -75 36 -135 41 -266 12 -323 -29 -58
-47 -143 -40 -190 8 -57 24 -84 84 -143 49 -47 65 -53 154 -50 44 1 88 28 149
90 47 47 143 99 207 111 81 15 154 55 181 97 21 32 29 65 36 145 5 52 3 62
-23 95 -41 54 -62 70 -119 89 -27 9 -62 25 -77 35 -14 11 -31 19 -36 19 -16 0
-92 67 -123 108 -43 55 -42 54 -74 116 -16 32 -40 72 -52 89 -13 17 -23 39
-23 49 0 10 -3 18 -7 18 -5 0 -16 21 -27 48 -10 26 -25 61 -32 77 -24 55 -56
150 -61 180 -3 17 -9 35 -14 41 -5 5 -11 52 -13 102 -9 161 -61 253 -171 306
-60 28 -175 43 -210 27z"/>
<path d="M43980 27641 c-104 -23 -190 -97 -223 -189 -10 -29 -20 -93 -23 -144
-2 -50 -8 -97 -13 -102 -5 -6 -11 -24 -14 -41 -5 -30 -37 -125 -61 -180 -7
-16 -22 -51 -32 -77 -11 -27 -22 -48 -26 -48 -5 0 -8 -8 -8 -18 0 -10 -10 -32
-22 -49 -13 -17 -36 -57 -53 -89 -32 -62 -31 -61 -74 -116 -31 -41 -107 -108
-123 -108 -5 0 -22 -8 -36 -19 -15 -10 -49 -26 -77 -35 -57 -19 -78 -35 -119
-89 -26 -33 -28 -43 -23 -95 7 -80 15 -113 36 -145 27 -42 100 -82 181 -97 64
-12 160 -64 207 -111 61 -62 105 -89 149 -90 89 -3 105 3 154 50 60 59 76 86
84 143 7 47 -11 132 -40 190 -29 57 -24 188 12 323 7 28 16 61 20 75 4 14 12
30 18 35 7 6 18 30 25 55 7 25 21 57 31 71 10 14 22 37 25 52 4 14 13 31 21
38 8 6 14 17 14 23 0 7 11 23 25 36 14 13 25 29 25 35 0 10 22 38 68 90 5 6
37 36 71 69 33 32 61 64 61 71 0 7 7 18 15 25 17 14 42 92 54 172 7 40 5 62
-6 88 -8 19 -14 37 -14 40 0 3 -4 22 -10 42 -12 47 -77 104 -127 112 -72 12
-137 15 -172 7z"/>
<path d="M9717 26436 c-46 -9 -72 -23 -133 -71 -112 -89 -171 -149 -185 -192
-6 -21 -20 -54 -30 -73 -27 -50 -27 -197 0 -231 10 -14 26 -47 34 -75 8 -28
24 -69 35 -91 12 -22 24 -64 27 -94 4 -30 11 -67 15 -84 5 -16 12 -151 15
-300 3 -148 10 -358 16 -465 9 -172 14 -250 34 -545 5 -76 9 -118 24 -270 6
-55 15 -147 21 -205 5 -58 13 -112 16 -120 4 -8 10 -58 15 -110 8 -94 27 -249
49 -405 15 -100 6 -296 -15 -338 -8 -17 -15 -35 -15 -41 -1 -30 -73 -150 -135
-224 -63 -74 -85 -107 -141 -206 -8 -15 -20 -69 -26 -120 l-11 -91 48 -95 c63
-126 134 -185 276 -230 93 -29 167 -26 364 17 63 13 82 13 187 -1 117 -17 184
-35 224 -61 12 -7 59 -17 105 -20 90 -7 142 5 199 45 15 11 34 20 42 20 15 0
58 50 114 135 35 52 43 74 57 162 9 56 17 127 17 158 0 61 -35 194 -55 210
-17 14 -35 51 -35 70 0 9 -15 42 -33 73 -18 31 -44 84 -57 117 -32 83 -48 122
-77 180 -23 49 -53 172 -74 305 -5 36 -16 103 -24 150 -14 80 -22 143 -45 365
-5 50 -12 105 -15 124 -5 36 -28 212 -45 346 -5 44 -14 103 -19 130 -6 28 -10
83 -10 124 -1 41 -5 88 -10 105 -14 46 -41 235 -42 286 0 25 -7 63 -15 85 -33
91 -48 619 -18 667 5 7 11 35 16 63 4 27 19 93 34 145 17 63 28 131 31 201 9
186 -26 303 -108 354 -20 13 -40 29 -44 34 -12 20 -112 42 -239 52 -72 5 -165
18 -207 29 -43 11 -81 20 -86 19 -4 -1 -34 -6 -66 -13z"/>
<path d="M38535 26430 c-38 -11 -128 -24 -200 -29 -128 -10 -228 -32 -240 -52
-4 -5 -24 -21 -44 -34 -82 -51 -117 -168 -108 -354 3 -70 14 -138 31 -201 15
-52 30 -118 34 -145 5 -28 11 -56 16 -63 30 -48 15 -576 -18 -667 -8 -22 -15
-60 -15 -85 -1 -51 -28 -240 -42 -286 -5 -17 -9 -64 -10 -105 0 -41 -4 -96
-10 -124 -5 -27 -14 -86 -19 -130 -17 -134 -40 -310 -45 -346 -3 -19 -10 -74
-15 -124 -23 -222 -31 -285 -45 -365 -8 -47 -19 -114 -24 -150 -21 -133 -51
-256 -74 -305 -29 -58 -45 -97 -77 -180 -13 -33 -39 -86 -57 -117 -18 -31 -33
-64 -33 -73 0 -19 -18 -56 -35 -70 -20 -16 -55 -149 -55 -210 0 -31 8 -102 17
-158 14 -88 22 -110 57 -162 56 -85 99 -135 114 -135 8 0 27 -9 42 -20 57 -40
109 -52 199 -45 46 3 93 13 105 20 40 26 107 44 224 61 105 14 124 14 187 1
197 -43 271 -46 364 -17 142 45 213 104 276 230 l48 95 -11 91 c-6 51 -18 105
-26 120 -56 99 -78 132 -141 206 -62 74 -134 194 -135 224 0 6 -7 24 -15 41
-21 42 -30 238 -15 338 22 156 41 311 49 405 5 52 11 102 15 110 3 8 11 62 16
120 6 58 15 150 21 205 15 152 19 194 24 270 20 295 25 373 34 545 6 107 13
317 16 465 3 149 10 284 15 300 4 17 11 54 15 84 3 30 15 72 27 94 11 22 27
63 35 91 8 28 24 61 34 75 25 32 27 180 3 226 -9 17 -24 51 -34 77 -19 50 -61
94 -189 197 -73 58 -80 61 -186 76 -16 2 -61 -5 -100 -15z"/>
<path d="M15767 26176 c-97 -34 -118 -56 -204 -219 -36 -68 -99 -236 -123
-327 -13 -47 -29 -105 -36 -130 -7 -25 -18 -77 -23 -117 -6 -39 -15 -83 -20
-96 -6 -14 -15 -52 -21 -86 -6 -33 -17 -72 -24 -87 -8 -14 -17 -58 -21 -98 -4
-39 -13 -87 -21 -106 -7 -19 -25 -80 -38 -135 -49 -199 -64 -253 -93 -331 -16
-43 -42 -115 -58 -159 -66 -191 -79 -225 -120 -310 -24 -49 -59 -124 -79 -167
-20 -42 -56 -100 -82 -130 -25 -29 -51 -63 -57 -75 -26 -49 -170 -255 -209
-300 -22 -26 -47 -62 -55 -81 -7 -18 -28 -49 -46 -70 -59 -67 -104 -126 -120
-159 -9 -17 -27 -40 -39 -50 -13 -10 -43 -45 -67 -78 -25 -33 -57 -76 -71 -95
-15 -19 -33 -46 -40 -60 -7 -14 -35 -51 -62 -83 -45 -54 -48 -62 -48 -113 0
-125 75 -182 240 -184 203 -3 611 -137 739 -244 69 -58 142 -88 213 -89 35 0
82 5 105 12 49 14 155 106 171 148 12 34 26 129 52 373 20 174 31 254 50 360
4 25 13 74 20 110 6 36 20 94 30 129 11 35 20 76 20 93 0 16 6 41 14 56 7 15
24 68 36 117 12 50 26 95 31 101 10 12 45 108 58 159 4 17 22 64 39 105 17 41
36 94 41 116 6 23 19 52 29 65 11 13 32 58 48 99 15 41 40 95 55 120 15 25 31
57 34 73 4 15 11 30 16 33 5 3 9 13 9 22 0 10 27 64 60 122 33 58 62 119 66
135 3 17 17 41 29 55 13 14 54 84 91 155 37 72 80 145 95 163 42 48 174 326
198 417 38 144 50 209 57 290 5 74 3 86 -25 153 -50 119 -75 149 -239 279
-157 126 -173 131 -372 137 -155 5 -169 4 -233 -18z"/>
<path d="M32275 26189 c-69 -8 -112 -33 -237 -132 -164 -130 -189 -159 -239
-279 -28 -67 -30 -79 -25 -153 7 -81 19 -146 57 -290 24 -91 156 -369 198
-417 15 -18 58 -91 95 -163 37 -71 78 -141 91 -155 12 -14 26 -38 29 -55 4
-16 33 -77 66 -135 33 -58 60 -112 60 -122 0 -9 4 -19 9 -22 5 -3 12 -18 16
-33 3 -16 19 -48 34 -73 15 -25 40 -79 55 -120 16 -41 37 -86 48 -99 10 -13
23 -42 29 -65 5 -22 24 -75 41 -116 17 -41 35 -88 39 -105 13 -51 48 -147 58
-159 5 -6 19 -51 31 -101 12 -49 29 -102 36 -117 8 -15 14 -40 14 -56 0 -17 9
-58 20 -93 10 -35 24 -93 30 -129 7 -36 16 -85 20 -110 19 -106 30 -186 50
-360 26 -244 40 -339 52 -373 16 -42 122 -134 171 -148 23 -7 70 -12 105 -12
71 1 144 31 213 89 128 107 536 241 739 244 165 2 240 59 240 184 0 51 -3 59
-48 113 -27 32 -55 69 -62 83 -7 14 -25 41 -40 60 -14 19 -46 62 -71 95 -24
33 -54 68 -67 78 -12 10 -30 33 -39 50 -16 33 -61 92 -120 159 -18 21 -39 52
-46 70 -8 19 -33 55 -55 81 -39 45 -183 251 -209 300 -6 12 -32 46 -57 75 -26
30 -62 88 -82 130 -20 43 -55 118 -79 167 -41 85 -54 119 -120 310 -16 44 -42
116 -58 159 -29 78 -44 132 -93 331 -13 55 -31 116 -38 135 -8 19 -17 67 -21
106 -4 40 -13 84 -21 98 -7 15 -18 54 -24 87 -6 34 -15 72 -21 86 -5 13 -14
57 -20 96 -5 40 -16 92 -23 117 -7 25 -23 83 -36 130 -52 196 -165 437 -233
497 -59 51 -151 74 -292 71 -66 -2 -143 -6 -170 -9z"/>
<path d="M5470 25910 c-19 -5 -69 -18 -110 -29 -41 -12 -91 -21 -110 -21 -49
0 -144 -48 -215 -109 -82 -70 -104 -123 -104 -251 -1 -201 30 -292 118 -352
74 -51 143 -115 189 -176 66 -89 109 -155 117 -182 4 -14 19 -42 32 -63 53
-83 94 -265 128 -560 17 -143 31 -180 113 -284 35 -45 63 -54 104 -32 30 16
106 96 113 119 8 25 152 126 207 145 25 8 102 17 188 21 131 6 149 9 183 31
24 15 46 41 58 66 42 93 22 130 -155 292 -79 71 -154 143 -167 160 -13 16 -57
61 -99 100 -224 207 -296 336 -287 512 3 48 13 129 23 180 l18 91 -39 119
c-33 102 -44 123 -79 156 -23 21 -52 44 -66 51 -34 18 -117 26 -160 16z"/>
<path d="M42828 25911 c-41 -9 -68 -25 -119 -72 -29 -28 -43 -56 -74 -152
l-39 -119 18 -91 c10 -51 20 -132 23 -180 9 -176 -63 -305 -287 -512 -42 -39
-86 -84 -99 -100 -13 -17 -88 -89 -167 -160 -177 -162 -197 -199 -155 -292 12
-25 34 -51 58 -66 34 -22 52 -25 183 -31 86 -4 163 -13 188 -21 55 -19 199
-120 207 -145 7 -23 83 -103 113 -119 41 -22 69 -13 104 32 82 104 96 141 113
284 34 295 75 477 128 560 13 21 28 49 32 63 8 27 51 93 117 182 46 61 115
125 189 176 88 60 119 151 118 352 0 128 -22 181 -104 251 -70 59 -166 109
-212 109 -35 0 -158 27 -182 40 -25 12 -113 19 -153 11z"/>
<path d="M6475 24023 c-53 -20 -105 -29 -215 -38 -102 -8 -155 -17 -180 -30
-44 -23 -120 -86 -120 -99 0 -6 -12 -36 -27 -66 -59 -122 -73 -172 -73 -260 0
-49 6 -92 16 -116 17 -40 97 -179 142 -247 38 -58 141 -126 220 -148 126 -34
211 -96 257 -185 10 -22 42 -79 71 -129 61 -107 182 -329 239 -440 47 -90 50
-96 98 -180 19 -33 53 -96 77 -140 79 -150 173 -320 185 -335 7 -8 29 -58 50
-110 20 -52 43 -104 50 -115 7 -11 15 -38 17 -60 3 -22 10 -53 16 -70 27 -77
54 -239 71 -427 7 -82 10 -90 46 -130 21 -24 45 -47 53 -52 20 -11 172 -9 206
4 58 22 144 90 174 137 39 64 146 179 194 209 64 41 160 87 198 95 178 40 271
80 323 139 16 19 44 64 61 100 26 55 31 77 31 140 0 62 -5 85 -29 135 -16 33
-43 72 -60 87 -17 15 -112 68 -211 117 -337 166 -497 303 -849 724 -49 59 -93
107 -98 107 -5 0 -21 19 -36 43 -15 24 -57 77 -94 118 -37 40 -80 92 -96 114
-17 22 -55 67 -86 100 -31 33 -67 83 -82 112 -14 29 -32 57 -40 64 -7 6 -25
50 -39 97 -14 48 -30 97 -35 110 -5 12 -14 73 -20 135 -13 146 -33 224 -81
324 -46 96 -87 146 -140 174 -50 25 -99 23 -184 -8z"/>
<path d="M41749 24030 c-52 -27 -93 -79 -138 -173 -48 -100 -68 -178 -81 -324
-6 -62 -15 -123 -20 -135 -5 -13 -21 -62 -35 -110 -14 -47 -32 -91 -39 -97 -8
-7 -26 -35 -40 -64 -15 -29 -51 -79 -82 -112 -31 -33 -69 -78 -86 -100 -16
-22 -59 -74 -96 -114 -37 -41 -79 -94 -94 -118 -15 -24 -31 -43 -36 -43 -5 0
-49 -48 -98 -107 -352 -421 -512 -558 -849 -724 -99 -49 -194 -102 -211 -117
-17 -15 -44 -54 -60 -87 -24 -50 -29 -73 -29 -135 0 -63 5 -85 31 -140 66
-139 137 -183 384 -239 38 -8 134 -54 198 -95 48 -30 155 -145 194 -209 30
-47 116 -115 174 -137 34 -13 186 -15 206 -4 8 5 32 28 53 52 36 40 39 48 46
130 17 188 44 350 71 427 6 17 13 48 16 70 2 22 10 49 17 60 7 11 30 63 50
115 21 52 43 102 50 110 12 15 106 185 185 335 24 44 58 107 77 140 48 84 51
90 98 180 57 111 178 333 239 440 29 50 61 107 71 129 46 89 131 151 257 185
79 22 182 90 220 148 45 68 125 207 142 247 10 24 16 67 16 116 0 88 -14 138
-73 260 -15 30 -27 60 -27 66 0 13 -76 76 -120 99 -25 13 -78 22 -180 30 -110
9 -163 18 -219 38 -87 32 -132 33 -182 7z"/>
<path d="M12145 22810 c-11 -5 -36 -9 -55 -10 -19 0 -60 -9 -90 -20 -30 -11
-72 -19 -93 -20 -53 0 -153 -36 -212 -75 -119 -79 -169 -133 -197 -215 -8 -25
-21 -61 -27 -80 -7 -19 -18 -73 -26 -120 -15 -88 -8 -152 19 -195 7 -11 16
-39 20 -62 4 -28 26 -72 62 -125 107 -159 148 -257 159 -388 9 -108 7 -352 -4
-445 -6 -44 -17 -206 -25 -360 -9 -154 -18 -293 -21 -310 -10 -52 -25 -255
-30 -405 -3 -80 -9 -172 -14 -205 -5 -33 -9 -96 -10 -140 -1 -44 -4 -92 -7
-107 -6 -32 -24 -274 -30 -418 -2 -58 -11 -177 -19 -265 -22 -219 -33 -371
-40 -560 -4 -88 -9 -163 -12 -168 -5 -9 -20 -209 -28 -381 -8 -173 -57 -376
-119 -486 -17 -30 -45 -77 -63 -105 -18 -27 -33 -53 -33 -57 0 -3 -13 -35 -29
-70 -58 -129 -65 -177 -54 -386 5 -103 8 -216 7 -252 -2 -36 -4 -132 -6 -215
l-3 -150 35 -75 c66 -143 122 -201 248 -257 52 -23 72 -25 248 -30 163 -5 203
-3 270 12 44 10 91 27 106 37 14 10 51 30 81 46 123 61 282 264 302 384 4 23
13 56 21 73 9 23 13 76 12 176 l-1 143 -37 81 c-21 45 -41 96 -45 113 -3 17
-24 49 -45 71 -26 26 -41 53 -45 78 -4 21 -12 54 -20 73 -23 62 -67 279 -72
358 -2 42 0 122 6 177 6 55 20 215 31 355 11 140 22 264 25 275 3 11 10 72 15
135 18 228 31 378 46 530 9 85 22 229 30 320 8 91 19 215 24 275 10 103 30
323 50 550 33 357 99 1013 109 1070 5 28 21 82 35 120 15 39 31 81 35 95 25
78 110 205 194 292 110 114 225 290 256 389 5 19 24 74 40 122 23 65 31 106
31 156 0 70 -31 194 -51 207 -6 3 -27 31 -46 62 -41 64 -151 175 -197 200
-129 69 -273 134 -338 151 -44 12 -125 23 -190 26 -62 3 -124 7 -138 9 -14 2
-34 0 -45 -4z"/>
<path d="M36105 22809 c-74 -5 -164 -17 -210 -29 -67 -18 -209 -81 -341 -152
-46 -25 -156 -136 -197 -200 -19 -31 -40 -59 -46 -62 -20 -13 -51 -137 -51
-207 0 -50 8 -91 31 -156 16 -48 35 -103 40 -122 31 -99 146 -275 256 -389 84
-87 169 -214 194 -292 4 -14 20 -56 35 -95 14 -38 30 -92 35 -120 10 -57 76
-713 109 -1070 20 -227 40 -447 50 -550 5 -60 16 -184 24 -275 8 -91 21 -235
30 -320 15 -152 28 -302 46 -530 5 -63 12 -124 15 -135 3 -11 14 -135 25 -275
11 -140 25 -300 31 -355 6 -55 8 -135 6 -177 -5 -79 -49 -296 -72 -358 -8 -19
-16 -52 -20 -73 -4 -25 -19 -52 -45 -78 -21 -22 -42 -54 -45 -71 -4 -17 -24
-68 -45 -113 l-37 -81 -1 -143 c-1 -100 3 -153 12 -176 8 -17 17 -50 21 -73
20 -120 179 -323 302 -384 30 -16 67 -36 81 -46 15 -10 62 -27 106 -37 67 -15
107 -17 270 -12 176 5 196 7 248 30 126 56 182 114 248 257 l35 75 -3 150 c-2
83 -4 179 -6 215 -1 36 2 149 7 252 11 209 4 257 -54 386 -16 35 -29 67 -29
70 0 4 -15 30 -33 57 -18 28 -46 75 -63 105 -62 110 -111 313 -119 486 -8 172
-23 372 -28 381 -3 5 -8 80 -12 168 -7 189 -18 341 -40 560 -8 88 -17 207 -19
265 -6 144 -24 386 -30 418 -3 15 -6 63 -7 107 -1 44 -5 107 -10 140 -5 33
-11 125 -14 205 -5 150 -20 353 -30 405 -3 17 -12 156 -21 310 -8 154 -19 316
-25 360 -11 93 -13 337 -4 445 11 131 52 229 159 388 36 53 58 97 62 125 4 23
13 51 20 62 27 43 34 107 19 195 -8 47 -19 101 -26 120 -6 19 -19 55 -27 80
-28 82 -78 136 -197 215 -59 39 -159 75 -210 75 -20 0 -61 8 -93 19 -31 10
-77 21 -102 24 -25 3 -52 7 -60 9 -8 3 -73 1 -145 -3z"/>
<path d="M14180 22086 c-58 -12 -147 -59 -167 -87 -7 -10 -28 -27 -47 -38 -27
-17 -48 -50 -100 -151 -37 -74 -72 -159 -81 -197 -9 -38 -23 -89 -31 -116 -26
-78 -15 -407 19 -557 14 -63 30 -128 36 -145 22 -67 60 -255 66 -326 8 -102
-11 -256 -41 -335 -13 -35 -24 -75 -24 -88 0 -13 -13 -66 -29 -117 -32 -107
-63 -231 -91 -369 -23 -118 -64 -310 -79 -370 -11 -45 -60 -313 -107 -575 -13
-77 -33 -189 -44 -250 -11 -60 -24 -142 -29 -182 -5 -39 -11 -75 -14 -80 -3
-4 -12 -89 -21 -188 -9 -99 -24 -216 -32 -260 -9 -44 -20 -127 -24 -185 -12
-144 -29 -292 -36 -310 -6 -14 -19 -139 -30 -275 -2 -33 -11 -89 -19 -125 -7
-36 -19 -94 -25 -130 -20 -114 -148 -366 -241 -474 -52 -60 -71 -90 -124 -194
-59 -117 -75 -192 -75 -358 0 -183 22 -253 125 -389 83 -109 150 -169 232
-204 39 -17 79 -31 88 -31 9 0 30 -7 47 -16 48 -25 259 -35 383 -18 203 27
322 74 415 165 118 114 170 218 170 337 0 54 -16 139 -31 157 -11 15 -37 90
-60 173 -11 41 -26 84 -33 95 -7 12 -21 56 -31 97 -9 41 -21 91 -26 111 -5 20
-15 83 -21 140 -15 120 -12 502 3 531 6 11 19 72 29 136 10 64 26 158 35 207
9 50 20 115 25 145 17 103 49 285 58 335 6 28 18 95 27 150 10 55 21 113 26
129 5 16 9 43 9 59 0 40 34 229 60 337 11 44 29 148 39 225 5 33 13 80 19 105
6 25 16 79 22 120 6 41 21 125 32 185 11 61 24 137 29 170 16 119 28 185 35
197 8 13 13 37 34 188 6 47 16 99 20 115 12 39 69 368 81 470 10 83 80 306
121 387 43 84 97 154 145 186 125 83 241 219 310 362 68 143 79 207 64 380 -7
73 -16 141 -22 151 -5 10 -9 25 -9 34 0 9 -22 63 -49 120 -44 93 -59 113 -133
185 -45 44 -87 80 -93 80 -5 0 -23 13 -40 29 -40 38 -210 106 -315 125 -47 9
-107 21 -133 26 -65 13 -229 11 -297 -4z"/>
<path d="M33930 22090 c-19 -5 -75 -16 -124 -25 -109 -19 -280 -87 -321 -126
-17 -16 -35 -29 -40 -29 -6 0 -48 -36 -93 -80 -74 -72 -89 -92 -133 -185 -27
-57 -49 -111 -49 -120 0 -9 -4 -24 -9 -34 -6 -10 -15 -78 -22 -151 -15 -173
-4 -237 64 -380 69 -143 185 -279 310 -362 48 -32 102 -102 145 -186 41 -81
111 -304 121 -387 12 -102 69 -431 81 -470 4 -16 14 -68 20 -115 21 -151 26
-175 34 -188 7 -12 19 -78 35 -197 5 -33 18 -109 29 -170 11 -60 26 -144 32
-185 6 -41 16 -95 22 -120 6 -25 14 -72 19 -105 10 -77 28 -181 39 -225 26
-108 60 -297 60 -337 0 -16 4 -43 9 -59 5 -16 16 -74 26 -129 9 -55 21 -122
27 -150 9 -50 41 -232 58 -335 5 -30 16 -95 25 -145 9 -49 25 -143 35 -207 10
-64 23 -125 29 -136 15 -29 18 -411 3 -531 -6 -57 -16 -120 -21 -140 -5 -20
-17 -70 -26 -111 -10 -41 -24 -85 -31 -97 -7 -11 -22 -54 -33 -95 -23 -83 -49
-158 -60 -173 -15 -18 -31 -103 -31 -157 0 -119 52 -223 170 -337 93 -91 212
-138 415 -165 124 -17 335 -7 383 18 17 9 38 16 47 16 9 0 49 14 88 31 82 35
149 95 232 204 103 136 125 206 125 389 0 166 -16 241 -75 358 -53 104 -72
134 -124 194 -93 108 -221 360 -241 474 -6 36 -18 94 -25 130 -8 36 -17 92
-19 125 -11 136 -24 261 -30 275 -7 18 -24 166 -36 310 -4 58 -15 141 -24 185
-8 44 -23 161 -32 260 -9 99 -18 184 -21 188 -3 5 -9 41 -14 80 -5 40 -18 122
-29 182 -11 61 -31 173 -44 250 -47 262 -96 530 -107 575 -15 60 -56 252 -79
370 -28 138 -59 262 -91 369 -16 51 -29 104 -29 117 0 13 -11 53 -24 88 -30
79 -49 233 -41 335 6 71 44 259 66 326 6 17 22 82 36 145 34 150 45 479 19
557 -8 27 -22 78 -31 116 -9 38 -44 123 -81 197 -52 101 -73 134 -100 151 -19
11 -40 28 -47 38 -21 30 -120 79 -181 90 -68 13 -234 13 -286 1z"/>
<path d="M9975 21674 c-88 -14 -195 -57 -245 -100 -28 -24 -56 -44 -61 -44
-12 0 -59 -76 -70 -114 -19 -63 -40 -232 -34 -271 3 -22 1 -71 -3 -110 -5 -39
-5 -101 0 -140 5 -38 9 -83 9 -100 1 -41 26 -180 43 -240 8 -27 20 -68 26 -90
7 -22 31 -92 54 -155 24 -63 48 -140 54 -170 7 -30 16 -73 21 -95 19 -79 35
-171 37 -215 1 -25 9 -106 18 -180 8 -74 20 -211 27 -305 6 -93 15 -213 19
-265 4 -52 13 -162 19 -245 7 -82 17 -188 22 -235 12 -93 13 -118 26 -450 9
-232 9 -300 -1 -505 -9 -193 -40 -494 -66 -650 -10 -60 -24 -159 -30 -220 -12
-119 -41 -242 -65 -279 -9 -13 -13 -30 -10 -37 3 -8 1 -46 -5 -84 -36 -240
-49 -340 -51 -396 -1 -35 -2 -78 -2 -94 -1 -30 70 -183 102 -219 18 -21 166
-119 196 -130 21 -8 207 -41 309 -56 42 -6 76 -5 115 4 74 18 181 63 206 87
11 11 39 33 62 50 40 29 53 49 107 172 20 45 46 185 45 247 -1 57 -27 284 -39
330 -5 19 -23 112 -40 205 -18 94 -40 206 -51 250 -10 44 -21 109 -25 145 -4
36 -13 82 -20 104 -8 21 -14 64 -14 95 0 31 -7 88 -16 126 -8 39 -19 99 -24
135 -16 133 -59 578 -64 675 -3 55 -11 159 -18 230 -6 72 -13 173 -14 225 -1
52 -4 169 -7 260 -8 227 -10 788 -3 799 4 5 8 67 10 138 4 109 10 152 45 288
23 88 57 198 77 244 47 110 130 266 166 313 15 20 42 67 60 105 17 37 37 75
44 84 8 8 28 56 46 105 29 80 32 101 32 204 1 132 -8 158 -96 267 -78 96 -144
131 -307 164 -121 25 -186 47 -272 94 -64 36 -254 63 -344 49z"/>
<path d="M38235 21669 c-70 -14 -147 -39 -165 -54 -32 -27 -140 -63 -255 -85
-150 -28 -226 -69 -302 -163 -89 -109 -98 -135 -97 -267 0 -103 3 -124 32
-204 18 -49 38 -97 46 -105 7 -9 27 -47 44 -84 18 -38 45 -85 60 -105 36 -47
119 -203 166 -313 20 -46 54 -156 77 -244 35 -136 41 -179 45 -288 2 -71 6
-133 10 -138 7 -11 5 -572 -3 -799 -3 -91 -6 -208 -7 -260 -1 -52 -8 -153 -14
-225 -7 -71 -15 -175 -18 -230 -5 -97 -48 -542 -64 -675 -5 -36 -16 -96 -24
-135 -9 -38 -16 -95 -16 -126 0 -31 -6 -74 -14 -95 -7 -22 -16 -68 -20 -104
-4 -36 -15 -101 -25 -145 -11 -44 -33 -156 -51 -250 -17 -93 -35 -186 -40
-205 -12 -46 -38 -273 -39 -330 -1 -62 25 -202 45 -247 54 -123 67 -143 107
-172 23 -17 51 -39 62 -50 25 -24 132 -69 206 -87 39 -9 73 -10 115 -4 102 15
288 48 309 56 30 11 178 109 196 130 32 36 103 189 102 219 0 16 -1 59 -2 94
-2 56 -15 156 -51 396 -6 38 -8 76 -5 84 3 7 -1 24 -10 37 -24 37 -53 160 -65
279 -6 61 -20 160 -30 220 -26 156 -57 457 -66 650 -10 205 -10 273 -1 505 13
332 14 357 26 450 5 47 15 153 22 235 6 83 15 193 19 245 4 52 13 172 19 265
7 94 19 231 27 305 9 74 17 155 18 180 2 44 18 136 37 215 5 22 14 65 21 95 6
30 30 107 54 170 23 63 47 133 54 155 6 22 18 63 26 90 17 60 42 199 43 240 0
17 4 62 9 100 5 39 5 101 0 140 -4 39 -6 88 -3 110 6 39 -15 208 -34 271 -11
38 -58 114 -70 114 -5 0 -33 20 -61 44 -93 79 -301 124 -445 95z"/>
<path d="M8014 20717 c-61 -12 -111 -40 -195 -111 -20 -17 -55 -46 -78 -64
-74 -60 -112 -158 -156 -404 -42 -237 -33 -379 31 -529 13 -31 24 -67 24 -81
0 -13 4 -28 8 -33 8 -10 23 -49 81 -205 37 -101 109 -371 117 -438 3 -26 12
-64 20 -85 8 -20 14 -54 14 -74 0 -19 4 -52 9 -72 5 -20 15 -74 21 -121 6 -47
18 -108 26 -135 8 -28 18 -97 24 -153 5 -57 14 -120 19 -140 5 -20 17 -82 26
-137 9 -55 22 -128 30 -162 11 -44 12 -69 5 -88 -6 -15 -8 -31 -5 -36 4 -5 13
-55 21 -111 9 -57 19 -107 24 -113 4 -5 15 -55 24 -110 22 -135 65 -370 76
-423 6 -23 10 -57 10 -75 0 -17 7 -63 14 -102 8 -39 16 -135 17 -215 1 -136
-3 -189 -31 -349 -6 -35 -9 -69 -6 -76 2 -7 0 -65 -5 -131 -15 -184 9 -318 88
-498 65 -146 172 -300 240 -345 60 -40 147 -57 213 -41 28 7 56 17 63 24 32
30 125 96 136 96 6 0 14 7 17 15 11 29 135 78 244 97 144 24 252 76 309 148
23 28 41 55 41 58 0 4 7 63 15 132 l15 125 -26 80 c-34 101 -55 144 -112 225
-70 98 -120 148 -197 198 -38 25 -76 54 -84 65 -8 11 -25 29 -38 41 -21 18
-53 70 -114 187 -11 19 -26 71 -33 115 -8 43 -22 99 -30 123 -9 24 -16 65 -16
90 0 26 -9 90 -21 142 -11 52 -24 121 -29 155 -4 34 -12 70 -18 81 -6 11 -16
60 -23 109 -6 49 -17 103 -25 119 -7 17 -15 55 -18 85 -4 53 -33 187 -61 280
-7 25 -21 99 -30 165 -17 123 -31 200 -61 340 -9 44 -23 114 -30 155 -8 41
-21 107 -29 145 -36 162 -52 433 -36 589 25 228 69 438 115 546 32 72 59 233
58 341 0 86 -16 157 -52 234 -10 22 -28 62 -40 90 -12 27 -37 69 -57 93 -50
61 -158 140 -217 158 -65 20 -243 26 -322 11z"/>
<path d="M40113 20715 c-73 -16 -90 -24 -165 -82 -71 -54 -121 -114 -148 -178
-12 -28 -30 -68 -40 -90 -36 -77 -52 -148 -52 -234 -1 -108 26 -269 58 -341
46 -108 90 -318 115 -546 16 -156 0 -427 -36 -589 -8 -38 -21 -104 -29 -145
-7 -41 -21 -111 -30 -155 -30 -140 -44 -217 -61 -340 -9 -66 -23 -140 -30
-165 -28 -93 -57 -227 -61 -280 -3 -30 -11 -68 -18 -85 -8 -16 -19 -70 -25
-119 -7 -49 -17 -98 -23 -109 -6 -11 -14 -47 -18 -81 -5 -34 -18 -103 -29
-155 -12 -52 -21 -116 -21 -142 0 -25 -7 -66 -16 -90 -8 -24 -22 -80 -30 -123
-7 -44 -22 -96 -33 -115 -61 -117 -93 -169 -114 -187 -13 -12 -30 -30 -38 -41
-8 -11 -45 -40 -84 -65 -77 -50 -127 -100 -197 -198 -57 -81 -78 -124 -112
-225 l-26 -80 15 -125 c8 -69 15 -128 15 -132 0 -3 18 -30 41 -58 57 -72 165
-124 309 -148 109 -19 233 -68 244 -97 3 -8 11 -15 17 -15 11 0 104 -66 136
-96 7 -7 35 -17 63 -24 66 -16 153 1 213 41 68 45 175 199 240 345 79 180 103
314 88 498 -5 66 -7 124 -5 131 3 7 0 41 -6 76 -28 160 -32 213 -31 349 1 80
9 176 17 215 7 39 14 85 14 102 0 18 4 52 10 75 11 53 54 288 76 423 9 55 20
105 24 110 5 6 15 56 24 113 8 56 17 106 21 111 3 5 1 21 -5 36 -7 19 -6 44 5
88 8 34 21 107 30 162 9 55 21 117 26 137 5 20 14 83 19 140 6 56 16 125 24
153 8 27 20 88 26 135 6 47 16 101 21 121 5 20 9 53 9 72 0 20 6 54 14 74 8
21 17 59 20 85 8 67 80 337 117 438 58 156 73 195 81 205 4 5 8 20 8 33 0 14
11 50 24 81 64 150 73 292 31 529 -44 246 -82 344 -156 404 -23 18 -58 47 -78
64 -92 77 -135 100 -209 112 -92 15 -190 14 -269 -3z"/>
<path d="M21425 19115 c-27 -8 -62 -14 -76 -15 -15 0 -32 -7 -39 -14 -6 -8
-34 -22 -61 -31 -27 -9 -52 -22 -56 -29 -16 -25 -109 -79 -186 -107 -92 -34
-145 -36 -368 -14 -288 27 -363 29 -426 11 -32 -10 -80 -24 -108 -32 -64 -19
-143 -60 -175 -91 -14 -13 -33 -29 -42 -36 -23 -15 -58 -115 -58 -163 0 -42
39 -131 69 -158 12 -11 21 -24 21 -31 0 -6 14 -24 30 -40 47 -45 137 -167 143
-195 9 -37 95 -139 151 -178 61 -43 158 -60 209 -38 42 20 86 47 108 68 10 10
35 28 56 41 21 13 44 32 52 41 7 9 18 16 24 16 6 0 25 13 42 29 37 35 154 100
305 168 168 77 208 92 247 98 24 3 57 11 75 19 56 24 172 56 199 56 14 0 39 4
55 10 16 5 76 16 134 25 88 13 112 20 150 47 61 44 76 62 99 122 31 84 35 135
15 207 -19 70 -38 96 -100 140 -90 62 -377 105 -489 74z"/>
<path d="M26790 19120 c-193 -21 -289 -56 -356 -131 -31 -35 -57 -142 -49
-198 9 -58 40 -143 63 -168 52 -58 105 -83 212 -98 58 -9 118 -20 134 -25 16
-6 41 -10 55 -10 27 0 143 -32 199 -56 18 -8 51 -16 75 -19 39 -6 79 -21 247
-98 151 -68 268 -133 305 -168 17 -16 36 -29 42 -29 6 0 17 -7 24 -16 8 -9 31
-28 52 -41 21 -13 46 -31 56 -41 22 -21 66 -48 108 -68 51 -22 148 -5 209 38
56 39 142 141 151 178 6 28 96 150 143 195 16 16 30 34 30 40 0 7 9 20 21 31
30 27 69 116 69 158 0 48 -35 148 -58 163 -9 7 -28 23 -42 36 -32 31 -111 72
-175 91 -27 8 -76 22 -108 32 -63 18 -138 16 -426 -11 -223 -22 -276 -20 -368
14 -77 28 -170 82 -186 107 -4 7 -29 20 -56 29 -27 9 -55 23 -61 31 -7 7 -25
14 -41 14 -15 0 -40 5 -56 11 -36 14 -130 18 -213 9z"/>
<path d="M19195 18609 c-19 -17 -35 -36 -35 -42 0 -5 -11 -24 -24 -41 -44 -59
-82 -158 -95 -251 -30 -210 -87 -369 -175 -490 -28 -38 -60 -83 -70 -100 -27
-42 -51 -66 -95 -95 -21 -14 -63 -43 -92 -66 -30 -22 -65 -47 -79 -54 -14 -7
-31 -21 -38 -32 -7 -10 -20 -18 -28 -18 -8 0 -58 -22 -112 -50 -137 -70 -231
-108 -283 -115 -24 -4 -53 -10 -64 -15 -31 -13 -152 -38 -237 -49 -42 -6 -102
-22 -133 -36 -32 -14 -63 -25 -69 -25 -17 0 -159 -73 -192 -99 -14 -11 -32
-21 -39 -21 -7 0 -29 -24 -49 -54 -47 -70 -48 -118 -7 -170 16 -21 31 -40 33
-44 6 -13 87 -72 99 -72 7 0 20 -6 28 -14 9 -7 43 -24 76 -37 72 -29 166 -83
190 -110 10 -10 23 -19 29 -20 31 -1 174 -216 176 -265 0 -6 24 -37 53 -68 40
-44 65 -62 107 -77 99 -33 200 -18 265 41 17 15 37 31 46 36 18 10 83 86 141
167 21 29 56 73 78 99 22 26 40 49 40 52 0 3 35 41 78 84 42 44 93 99 112 123
50 62 274 283 345 340 67 54 83 68 105 93 30 33 96 89 130 111 19 12 53 39 74
59 22 20 87 68 145 108 59 39 108 74 111 77 3 4 23 18 46 32 22 15 57 43 79
63 21 20 45 36 54 36 21 1 93 93 120 154 29 68 29 172 -2 246 -27 67 -84 167
-100 177 -7 5 -20 19 -29 33 -8 14 -38 48 -64 75 -27 28 -63 66 -79 85 -17 19
-64 63 -105 98 -41 34 -84 71 -95 81 -21 20 -53 37 -126 70 -34 16 -66 21
-127 21 -77 0 -83 -2 -117 -31z"/>
<path d="M28970 18619 c-75 -35 -104 -51 -125 -70 -11 -10 -54 -47 -95 -81
-41 -35 -88 -79 -105 -98 -16 -19 -52 -57 -79 -85 -26 -27 -56 -61 -64 -75 -9
-14 -22 -28 -29 -33 -16 -10 -73 -110 -100 -177 -31 -74 -31 -178 -2 -246 27
-61 99 -153 120 -154 9 0 33 -16 54 -36 22 -20 57 -48 79 -63 23 -14 43 -28
46 -32 3 -3 52 -38 111 -77 58 -40 123 -88 145 -108 21 -20 55 -47 74 -59 34
-22 100 -78 130 -111 22 -25 38 -39 105 -93 71 -57 295 -278 345 -340 19 -24
70 -79 113 -123 42 -43 77 -81 77 -84 0 -3 18 -26 40 -52 22 -26 57 -70 78
-99 58 -81 123 -157 141 -167 9 -5 30 -21 46 -36 65 -59 166 -74 265 -41 42
15 67 33 108 77 28 31 52 62 52 68 2 49 145 264 176 265 6 1 19 10 29 20 24
27 118 81 190 110 33 13 67 30 76 37 8 8 21 14 28 14 12 0 93 59 99 72 2 4 17
23 33 44 41 52 40 100 -7 170 -20 30 -42 54 -49 54 -7 0 -25 10 -39 21 -33 26
-175 99 -192 99 -6 0 -37 11 -69 25 -31 14 -91 30 -133 36 -85 11 -206 36
-237 49 -11 5 -40 11 -64 15 -52 7 -146 45 -283 115 -54 28 -104 50 -112 50
-8 0 -21 8 -28 18 -7 11 -24 25 -38 32 -14 7 -49 32 -79 54 -29 23 -71 52 -92
66 -44 29 -68 53 -95 95 -10 17 -42 62 -70 100 -88 121 -145 280 -175 490 -13
93 -51 192 -95 251 -13 17 -24 36 -24 41 0 6 -16 25 -35 42 -34 29 -40 31
-118 31 -62 0 -93 -5 -127 -21z"/>
<path d="M17090 16555 c-108 -24 -264 -120 -403 -248 -37 -34 -70 -72 -73 -84
-4 -13 -10 -23 -14 -23 -12 0 -50 -77 -50 -101 0 -12 -11 -42 -24 -68 -13 -25
-38 -103 -56 -173 -27 -104 -42 -143 -82 -208 -27 -44 -69 -99 -94 -122 -24
-23 -46 -50 -50 -60 -3 -10 -12 -18 -20 -18 -8 0 -17 -6 -20 -14 -3 -8 -22
-25 -42 -39 -20 -14 -64 -50 -97 -81 -33 -31 -68 -63 -78 -72 -10 -8 -53 -45
-95 -83 -42 -37 -90 -78 -106 -92 -16 -13 -34 -29 -40 -35 -47 -45 -276 -226
-323 -255 -100 -62 -257 -139 -285 -139 -8 0 -29 -7 -46 -15 -53 -27 -161 -43
-357 -55 -174 -10 -216 -16 -283 -41 -13 -5 -34 -9 -47 -9 -40 0 -102 -64
-121 -123 -25 -79 -7 -125 83 -220 59 -62 75 -86 86 -129 26 -98 37 -148 37
-170 0 -34 42 -140 67 -171 13 -16 23 -32 23 -36 0 -5 15 -24 34 -44 19 -20
42 -47 53 -59 15 -20 65 -57 125 -93 9 -5 52 -34 95 -62 92 -62 123 -66 202
-27 39 20 57 36 67 60 8 19 19 34 25 34 12 0 34 21 327 308 397 390 492 485
492 493 0 5 4 9 9 9 5 0 27 17 48 38 21 21 54 49 73 63 19 13 51 40 70 59 55
55 130 120 140 120 4 0 30 21 57 46 26 25 66 58 88 72 22 14 60 43 85 62 58
47 166 120 178 120 4 0 21 14 37 30 16 17 36 30 45 30 9 0 25 9 35 20 10 11
43 34 74 52 31 18 70 40 86 50 17 9 50 27 75 39 25 12 59 31 75 43 17 12 65
39 107 60 43 21 80 41 83 46 3 5 37 30 75 55 38 25 77 56 87 69 10 12 25 26
34 32 29 16 118 128 146 181 14 29 34 60 45 69 10 10 18 27 18 39 0 11 5 26
10 31 24 24 52 178 48 264 -4 82 -15 120 -72 239 -16 35 -162 177 -225 220
-82 54 -109 68 -196 95 -99 31 -174 37 -245 21z"/>
<path d="M31175 16560 c-57 -8 -164 -43 -211 -68 -102 -56 -283 -214 -310
-273 -57 -119 -68 -157 -72 -239 -4 -86 24 -240 48 -264 5 -5 10 -20 10 -31 0
-12 8 -29 18 -39 11 -9 31 -40 45 -69 28 -53 117 -165 146 -181 9 -6 24 -20
34 -32 10 -13 49 -44 87 -69 38 -25 72 -50 75 -55 3 -5 40 -25 83 -46 42 -21
91 -48 107 -60 17 -12 50 -31 75 -43 25 -12 59 -30 75 -39 17 -10 55 -32 86
-50 31 -18 64 -41 74 -52 10 -11 26 -20 35 -20 9 0 29 -13 45 -30 16 -16 33
-30 37 -30 12 0 120 -73 178 -120 25 -19 63 -48 85 -62 22 -14 62 -47 88 -72
27 -25 53 -46 57 -46 10 0 85 -65 140 -120 19 -19 51 -46 70 -59 19 -14 52
-42 73 -63 21 -21 43 -38 48 -38 5 0 9 -4 9 -9 0 -8 95 -103 492 -493 293
-287 315 -308 327 -308 6 0 17 -15 25 -34 10 -24 28 -40 67 -60 79 -39 110
-35 202 27 43 28 86 57 95 62 60 36 110 73 125 93 11 12 34 39 53 59 19 20 34
39 34 44 0 4 10 20 23 36 25 31 67 137 67 171 0 22 11 72 37 170 11 43 27 67
86 129 90 95 108 141 83 220 -19 59 -81 123 -121 123 -13 0 -34 4 -47 9 -67
25 -109 31 -283 41 -196 12 -304 28 -357 55 -17 8 -38 15 -46 15 -28 0 -185
77 -285 139 -56 34 -284 217 -371 296 -14 13 -168 148 -193 169 -10 9 -45 41
-78 72 -33 31 -77 67 -97 81 -20 14 -39 31 -42 39 -3 8 -12 14 -20 14 -8 0
-17 8 -20 18 -4 10 -26 37 -50 60 -25 23 -67 78 -94 122 -40 65 -55 104 -82
208 -18 70 -43 148 -56 173 -13 26 -24 56 -24 68 0 24 -38 101 -50 101 -4 0
-10 10 -14 23 -12 48 -222 218 -350 283 -61 32 -180 67 -211 63 -5 -1 -33 -5
-60 -9z"/>
<path d="M11060 15428 c-24 -4 -95 -32 -156 -62 -95 -47 -116 -62 -146 -103
-94 -132 -120 -303 -78 -508 13 -61 27 -118 32 -128 5 -10 13 -70 19 -135 7
-94 6 -134 -7 -210 -26 -155 -55 -226 -176 -426 -111 -185 -135 -274 -103
-382 19 -65 108 -151 224 -217 63 -36 220 -187 267 -257 76 -113 138 -192 166
-213 61 -46 219 -29 291 30 22 19 53 41 68 49 31 15 153 135 210 205 20 24 59
89 87 144 44 87 54 117 73 225 18 108 20 142 13 250 -5 69 -9 208 -9 310 0
167 2 190 22 240 12 30 27 73 32 95 6 23 43 95 82 160 40 66 88 155 107 199
33 77 72 237 72 301 0 39 -40 134 -78 182 -42 54 -167 104 -347 139 -49 9
-101 23 -115 29 -14 7 -74 22 -135 34 -60 12 -137 29 -170 36 -75 18 -186 24
-245 13z"/>
<path d="M37205 15433 c-22 -2 -67 -10 -100 -18 -33 -8 -109 -24 -170 -36 -60
-12 -121 -27 -135 -34 -14 -6 -65 -20 -115 -29 -180 -35 -305 -85 -347 -139
-38 -48 -78 -143 -78 -182 0 -64 39 -224 72 -301 19 -44 67 -133 107 -199 39
-65 76 -137 82 -160 5 -22 20 -65 32 -95 20 -50 22 -73 22 -240 0 -102 -4
-241 -9 -310 -7 -108 -5 -142 13 -250 19 -108 29 -138 73 -225 28 -55 67 -120
87 -144 57 -70 179 -190 210 -205 15 -8 46 -30 68 -49 72 -59 230 -76 291 -30
28 21 90 100 166 213 47 70 204 221 267 257 116 66 205 152 224 217 32 108 8
197 -103 382 -121 200 -150 271 -176 426 -13 76 -14 116 -7 210 6 65 14 125
19 135 5 10 19 67 32 128 42 204 16 376 -77 506 -25 35 -53 57 -111 87 -147
77 -217 94 -337 85z"/>
<path d="M9259 15246 c-3 -3 -21 -6 -40 -7 -25 -2 -45 -13 -76 -43 -81 -80
-110 -106 -119 -106 -16 0 -74 -58 -74 -74 0 -9 -4 -16 -9 -16 -11 0 -18 -20
-27 -75 -3 -22 -10 -47 -14 -55 -40 -77 -21 -322 30 -387 12 -15 28 -41 36
-58 7 -16 18 -37 23 -45 6 -8 17 -33 26 -55 9 -22 23 -51 30 -65 7 -14 16 -47
20 -75 4 -27 11 -55 16 -61 5 -6 13 -34 19 -63 5 -29 17 -67 25 -84 8 -18 26
-63 39 -102 35 -101 61 -169 68 -180 3 -5 9 -26 13 -45 16 -74 160 -389 183
-397 6 -3 12 -13 12 -23 0 -11 18 -40 40 -65 22 -25 45 -55 50 -66 6 -10 15
-19 21 -19 6 0 25 -10 42 -22 26 -19 42 -22 101 -20 39 2 102 10 141 18 85 19
300 125 329 163 12 14 34 38 51 54 16 15 26 27 22 27 -4 0 -2 10 5 23 20 36
38 89 44 132 4 22 10 48 15 57 5 9 9 31 9 48 0 17 4 39 9 48 5 9 11 43 14 74
3 32 13 97 22 145 33 188 44 326 40 518 -5 267 -39 414 -132 571 -74 127 -152
170 -352 194 -47 6 -91 16 -99 23 -8 7 -16 10 -16 8 -3 -10 -195 52 -229 74
-12 7 -42 16 -67 19 -97 11 -235 18 -241 12z"/>
<path d="M39040 15247 c-3 -2 -43 -7 -89 -10 -48 -4 -93 -13 -106 -21 -28 -18
-184 -72 -235 -80 -3 -1 -10 -4 -16 -8 -6 -4 -49 -12 -95 -18 -127 -15 -179
-31 -245 -74 -49 -32 -68 -53 -107 -120 -93 -157 -127 -304 -132 -571 -4 -192
7 -330 40 -518 9 -48 19 -113 22 -145 3 -31 9 -65 14 -74 5 -9 9 -31 9 -48 0
-17 4 -39 9 -48 5 -9 11 -35 15 -57 6 -43 24 -96 44 -132 7 -13 9 -23 5 -23
-4 0 6 -12 22 -27 17 -16 39 -40 51 -54 29 -38 244 -144 329 -163 39 -8 102
-16 141 -18 59 -2 75 1 101 20 17 12 36 22 42 22 6 0 15 9 21 19 5 11 28 41
50 66 22 25 40 54 40 65 0 10 6 20 13 23 22 8 166 323 182 397 4 19 10 40 13
45 7 11 33 79 68 180 13 39 31 84 39 102 8 17 20 55 25 84 6 29 14 57 19 63 5
6 12 34 16 61 4 28 13 61 20 75 7 14 21 43 30 65 9 22 20 47 26 55 5 8 16 29
23 45 8 17 24 43 36 58 51 65 70 310 30 387 -4 8 -11 33 -14 55 -9 55 -16 75
-27 75 -5 0 -9 7 -9 16 0 16 -58 74 -74 74 -9 0 -50 36 -117 105 -21 22 -47
41 -56 42 -75 9 -169 14 -173 10z"/>
<path d="M7960 15073 c-36 -5 -80 -37 -80 -59 0 -16 39 -30 157 -53 144 -28
193 -56 322 -181 86 -83 136 -203 182 -435 14 -75 -27 -337 -73 -465 -34 -94
-114 -217 -162 -251 -23 -16 -59 -41 -81 -57 -22 -16 -58 -35 -80 -42 -22 -7
-45 -17 -51 -22 -7 -5 -42 -11 -80 -15 -76 -7 -114 -33 -114 -77 0 -14 -7 -51
-15 -83 -21 -80 -7 -144 56 -254 27 -48 49 -93 49 -102 0 -8 6 -28 14 -44 7
-15 23 -48 35 -73 12 -25 39 -67 61 -95 22 -27 49 -69 59 -92 20 -43 95 -107
139 -118 36 -9 75 16 102 65 14 25 39 59 55 76 17 17 57 62 90 99 57 63 222
192 275 214 59 25 107 61 135 100 27 38 29 48 30 130 0 82 -2 91 -32 139 -18
29 -46 92 -63 140 -16 48 -39 98 -49 112 -10 14 -22 41 -26 60 -4 19 -17 64
-30 100 -12 36 -30 101 -39 144 -9 44 -25 108 -36 144 -11 35 -27 114 -35 176
-8 61 -22 143 -30 181 -9 39 -20 99 -25 135 -14 118 -35 166 -121 283 -51 68
-89 102 -145 131 -43 21 -200 63 -339 89 -11 2 -36 2 -55 0z"/>
<path d="M40365 15069 c-16 -4 -79 -20 -140 -34 -184 -45 -232 -73 -314 -182
-86 -117 -107 -165 -121 -283 -5 -36 -16 -96 -25 -135 -8 -38 -22 -120 -30
-181 -8 -62 -24 -141 -35 -176 -11 -36 -27 -100 -36 -144 -9 -43 -27 -108 -39
-144 -13 -36 -26 -81 -30 -100 -4 -19 -16 -46 -26 -60 -10 -14 -33 -64 -49
-112 -17 -48 -45 -111 -63 -140 -30 -48 -32 -57 -32 -139 1 -82 3 -92 30 -130
28 -39 76 -75 135 -100 53 -22 218 -151 275 -214 33 -37 74 -82 90 -99 17 -17
41 -51 55 -76 27 -49 66 -74 102 -65 44 11 119 75 139 118 10 23 37 65 59 92
22 28 49 70 61 95 12 25 28 58 35 73 8 16 14 36 14 44 0 9 22 54 49 102 63
110 77 174 56 254 -8 32 -15 69 -15 83 0 44 -38 70 -114 77 -38 4 -73 10 -80
15 -6 5 -29 15 -51 22 -22 7 -58 26 -80 42 -22 16 -58 41 -81 57 -48 34 -128
157 -162 251 -46 128 -87 390 -73 465 46 232 96 352 182 435 129 125 178 153
322 181 161 32 181 44 135 86 -26 23 -98 34 -143 22z"/>
<path d="M12585 14934 c-100 -51 -143 -92 -204 -194 -38 -64 -111 -238 -111
-267 0 -7 -7 -27 -15 -44 -9 -16 -29 -84 -44 -152 -16 -67 -45 -183 -65 -257
-19 -74 -51 -202 -70 -283 -33 -142 -34 -151 -20 -197 14 -47 51 -87 111 -118
40 -21 154 -25 243 -9 47 9 144 19 215 22 120 6 208 22 245 45 29 18 170 165
170 177 0 7 39 59 88 117 48 58 102 136 121 173 19 37 44 79 56 93 24 27 49
74 90 165 28 63 75 249 75 298 0 85 -120 218 -290 321 -144 87 -215 116 -346
142 -122 23 -148 20 -249 -32z"/>
<path d="M35569 14965 c-124 -25 -199 -56 -339 -141 -170 -103 -290 -236 -290
-321 0 -49 47 -235 75 -298 41 -91 66 -138 90 -165 12 -14 37 -56 56 -93 19
-37 73 -115 122 -173 48 -58 87 -110 87 -117 0 -12 141 -159 170 -177 37 -23
125 -39 245 -45 72 -3 168 -13 215 -22 89 -16 203 -12 243 9 60 31 97 71 111
118 14 46 13 55 -20 197 -19 81 -51 209 -70 283 -20 74 -49 190 -65 257 -15
68 -35 136 -44 152 -8 17 -15 37 -15 44 0 29 -73 203 -111 267 -61 102 -104
143 -204 194 -100 51 -134 55 -256 31z"/>
<path d="M7748 14848 c-38 -23 -98 -78 -98 -90 0 -5 -8 -21 -19 -36 -84 -122
-107 -171 -116 -247 -3 -27 -11 -70 -16 -95 -10 -45 -14 -204 -5 -218 3 -5 8
-31 12 -58 7 -53 53 -151 118 -254 23 -36 47 -77 53 -92 7 -16 17 -28 23 -28
6 0 29 -17 53 -38 23 -22 51 -42 62 -45 11 -3 38 -13 60 -21 22 -8 58 -15 79
-16 53 0 174 37 211 65 128 97 195 214 230 400 9 50 20 110 25 134 4 24 4 57
-1 74 -5 18 -9 50 -9 72 -1 121 -68 264 -170 362 -123 118 -213 154 -382 151
-57 0 -85 -6 -110 -20z"/>
<path d="M40400 14856 c-76 -17 -147 -59 -230 -139 -102 -98 -169 -241 -170
-362 0 -22 -4 -54 -9 -72 -5 -17 -5 -50 -1 -74 5 -24 16 -84 25 -134 35 -186
102 -303 230 -400 37 -28 158 -65 211 -65 21 1 57 8 79 16 22 8 49 18 60 21
11 3 39 23 62 45 24 21 47 38 53 38 6 0 16 12 23 28 6 15 30 56 53 92 65 103
111 201 118 254 4 27 9 53 12 58 9 14 5 173 -5 218 -5 25 -13 68 -16 95 -9 76
-32 125 -116 247 -11 15 -19 31 -19 36 0 13 -73 78 -107 95 -35 18 -178 20
-253 3z"/>
<path d="M13860 14583 c-66 -27 -170 -116 -170 -146 0 -7 -22 -63 -50 -125
-27 -61 -54 -130 -59 -154 -26 -113 -115 -355 -185 -500 -25 -53 -46 -99 -46
-102 0 -4 -16 -30 -37 -58 -74 -106 -97 -201 -72 -293 12 -44 77 -160 120
-215 15 -19 32 -51 38 -71 6 -20 23 -47 38 -60 14 -13 34 -43 45 -66 10 -23
23 -45 28 -48 6 -4 21 -28 35 -55 13 -26 43 -70 66 -96 23 -27 48 -63 56 -82
29 -69 106 -163 155 -188 56 -28 78 -30 124 -8 43 21 99 110 117 190 8 32 24
79 37 104 31 61 103 150 142 177 44 30 148 61 277 83 154 26 182 36 227 74 36
31 42 42 53 103 9 49 10 75 2 96 -6 15 -8 27 -5 27 10 0 -70 92 -126 145 -180
171 -271 290 -369 483 -72 143 -147 346 -181 495 -52 222 -65 252 -134 292
-24 14 -47 25 -52 25 -5 -1 -38 -13 -74 -27z"/>
<path d="M34423 14585 c-68 -41 -81 -71 -133 -292 -34 -149 -109 -352 -181
-495 -98 -193 -189 -312 -369 -483 -56 -53 -136 -145 -126 -145 3 0 1 -12 -5
-27 -8 -21 -7 -47 2 -96 11 -61 17 -72 53 -103 45 -38 73 -48 227 -74 129 -22
233 -53 277 -83 39 -27 111 -116 142 -177 13 -25 29 -72 37 -104 18 -80 74
-169 117 -190 46 -22 68 -20 124 8 49 25 126 119 155 188 8 19 33 55 56 82 23
26 53 70 66 96 14 27 29 51 35 55 5 3 18 25 28 48 11 23 31 53 45 66 15 13 32
40 38 60 6 20 23 52 38 71 43 55 108 171 120 215 25 92 2 187 -72 293 -21 28
-37 54 -37 58 0 3 -21 49 -46 102 -70 145 -159 387 -185 500 -5 24 -32 93 -59
154 -28 62 -50 117 -50 123 0 28 -84 106 -143 134 -92 44 -106 45 -154 16z"/>
<path d="M7185 13313 c-16 -2 -55 -11 -85 -21 -30 -9 -59 -17 -65 -17 -102
-10 -237 -74 -388 -182 -61 -44 -116 -133 -147 -237 -10 -34 -25 -81 -33 -106
-8 -25 -20 -65 -26 -90 -31 -119 -50 -179 -69 -220 -11 -25 -23 -59 -27 -75
-9 -43 -37 -105 -46 -105 -5 0 -17 -31 -29 -69 -11 -37 -29 -80 -40 -93 -10
-14 -40 -65 -66 -113 -26 -49 -61 -108 -78 -131 -17 -23 -48 -70 -69 -105 -81
-135 -104 -173 -178 -281 -78 -117 -84 -127 -159 -250 -24 -40 -50 -79 -58
-87 -7 -7 -21 -30 -32 -50 -10 -21 -26 -43 -35 -51 -8 -7 -36 -52 -62 -99 -26
-47 -49 -88 -53 -91 -13 -11 -180 -270 -215 -335 -21 -38 -57 -97 -80 -130
-23 -33 -51 -78 -63 -100 -11 -22 -29 -49 -39 -60 -10 -11 -38 -54 -62 -95
-24 -41 -65 -104 -91 -140 -26 -36 -60 -90 -75 -120 -39 -76 -92 -160 -146
-229 -45 -57 -77 -107 -153 -241 -20 -36 -73 -108 -116 -160 -44 -52 -110
-133 -147 -180 -37 -47 -75 -92 -84 -100 -9 -8 -59 -69 -110 -135 -91 -117
-115 -146 -172 -209 -16 -17 -74 -89 -129 -161 -56 -71 -124 -155 -153 -185
-28 -30 -101 -120 -163 -200 -62 -80 -135 -172 -162 -205 -28 -33 -87 -107
-131 -164 -45 -57 -89 -111 -98 -120 -10 -10 -46 -55 -81 -102 -35 -46 -98
-124 -140 -174 -42 -49 -123 -151 -180 -225 -56 -74 -122 -155 -145 -180 -24
-25 -89 -106 -146 -180 -56 -74 -128 -164 -159 -200 -31 -36 -91 -109 -134
-163 -44 -54 -131 -156 -195 -225 -64 -70 -140 -157 -170 -192 -30 -36 -64
-74 -76 -85 -11 -11 -48 -51 -80 -90 -57 -67 -108 -125 -205 -230 -25 -27 -74
-83 -109 -125 -78 -92 -184 -210 -231 -259 -20 -20 -83 -92 -140 -161 -58 -69
-115 -133 -127 -143 -13 -10 -84 -91 -159 -180 -75 -89 -156 -180 -179 -202
-23 -22 -96 -103 -161 -180 -65 -77 -145 -167 -176 -200 l-58 -60 0 -1313 c0
-904 3 -1311 10 -1307 6 4 52 68 103 142 156 229 264 385 311 448 25 33 88
125 142 205 53 80 109 159 123 175 15 17 72 99 128 181 56 83 111 162 122 175
12 13 72 97 134 187 314 455 552 790 596 841 12 14 67 88 124 165 56 76 116
156 133 175 17 20 70 92 119 161 48 69 109 150 135 180 26 30 93 120 149 199
57 79 129 175 160 215 32 39 93 121 137 181 43 61 84 115 90 120 7 6 46 57 87
115 42 58 101 137 131 175 30 39 105 140 167 225 62 85 126 169 141 185 16 17
79 98 139 180 129 177 315 423 362 480 19 22 69 90 112 150 44 61 82 112 85
115 3 3 21 25 40 50 19 25 42 52 51 60 10 8 70 82 135 165 66 82 135 166 154
185 19 20 84 99 145 175 60 77 118 149 130 160 32 32 108 124 197 237 45 56
87 108 93 113 7 6 41 45 76 89 35 43 93 113 129 156 36 44 109 134 164 202 54
68 114 139 133 158 67 69 110 126 163 215 55 93 59 99 162 225 34 41 83 108
110 149 26 40 63 90 81 111 17 20 48 60 67 89 45 66 175 230 241 302 28 31 57
68 64 82 7 15 23 36 35 49 13 13 38 46 56 75 18 28 47 62 63 75 16 12 53 52
82 88 29 36 59 69 66 73 7 4 44 50 83 102 40 52 99 121 133 154 34 33 78 81
97 107 48 64 212 239 275 294 28 25 75 73 103 105 106 122 243 265 253 265 4
0 75 66 158 148 83 81 183 177 223 213 49 44 86 89 112 135 82 147 106 194
106 205 0 6 14 40 31 76 27 56 31 76 31 143 -1 81 -26 177 -62 235 -17 27 -73
81 -158 150 -17 15 -30 31 -26 36 3 5 1 9 -5 9 -5 0 -31 28 -57 63 -26 34 -51
64 -56 65 -4 2 -8 9 -8 15 0 7 -23 50 -51 97 -28 47 -59 99 -69 115 -9 17 -34
57 -54 90 -20 33 -36 68 -36 78 0 21 -55 133 -70 142 -5 3 -10 20 -10 37 0 40
-28 84 -83 130 -63 52 -133 67 -252 51z"/>
<path d="M41051 13309 c-41 -13 -115 -73 -142 -115 -10 -17 -19 -45 -19 -62 0
-17 -5 -34 -10 -37 -15 -9 -70 -121 -70 -142 0 -10 -16 -45 -36 -78 -20 -33
-45 -73 -54 -90 -10 -16 -41 -68 -69 -115 -28 -47 -51 -90 -51 -97 0 -6 -4
-13 -8 -15 -5 -1 -30 -31 -56 -65 -26 -35 -52 -63 -57 -63 -6 0 -8 -4 -5 -9 4
-5 -9 -21 -26 -36 -85 -69 -141 -123 -158 -150 -36 -58 -61 -154 -62 -235 0
-67 4 -87 31 -143 17 -36 31 -70 31 -76 0 -11 24 -58 106 -205 26 -46 63 -91
112 -135 40 -36 140 -132 223 -213 83 -82 154 -148 158 -148 10 0 147 -143
253 -265 28 -32 75 -80 103 -105 63 -55 227 -230 275 -294 19 -26 63 -74 97
-107 34 -33 93 -102 133 -154 39 -52 76 -98 83 -102 7 -4 37 -37 66 -73 29
-36 66 -76 82 -88 16 -13 45 -47 63 -75 18 -29 43 -62 56 -75 12 -13 28 -34
35 -49 7 -14 36 -51 64 -82 66 -72 196 -236 241 -302 19 -29 50 -69 67 -89 18
-21 55 -71 81 -111 27 -41 76 -108 110 -149 103 -126 107 -132 162 -225 53
-89 96 -146 163 -215 19 -19 79 -90 133 -158 55 -68 128 -158 164 -202 36 -43
94 -113 129 -156 35 -44 69 -83 76 -89 6 -5 48 -57 93 -113 89 -113 165 -205
197 -237 12 -11 70 -83 130 -160 61 -76 126 -155 145 -175 19 -19 88 -103 154
-185 65 -83 125 -157 135 -165 9 -8 32 -35 51 -60 19 -25 37 -47 40 -50 3 -3
41 -54 85 -115 43 -60 93 -128 112 -150 47 -57 233 -303 362 -480 60 -82 123
-163 139 -180 15 -16 79 -100 141 -185 62 -85 137 -186 167 -225 30 -38 89
-117 131 -175 41 -58 80 -109 87 -115 6 -5 47 -59 90 -120 44 -60 105 -142
137 -181 31 -40 103 -136 160 -215 56 -79 123 -169 149 -199 26 -30 87 -111
135 -180 49 -69 102 -141 119 -161 17 -19 77 -99 133 -175 57 -77 112 -151
124 -165 44 -51 282 -386 596 -841 62 -90 122 -174 134 -187 11 -13 66 -92
122 -175 56 -82 113 -164 128 -181 14 -16 70 -95 123 -175 54 -80 117 -172
142 -205 47 -63 155 -219 311 -448 51 -74 97 -138 103 -142 7 -4 10 403 10
1307 l0 1313 -58 60 c-31 33 -111 123 -176 200 -65 77 -138 158 -161 180 -23
22 -104 113 -179 202 -75 89 -146 170 -159 180 -12 10 -69 74 -127 143 -57 69
-120 141 -140 161 -47 49 -153 167 -231 259 -35 42 -84 98 -109 125 -97 105
-148 163 -205 230 -32 39 -69 79 -80 90 -12 11 -46 49 -76 85 -30 35 -106 122
-170 192 -64 69 -151 171 -195 225 -43 54 -103 127 -134 163 -31 36 -103 126
-159 200 -57 74 -122 155 -146 180 -23 25 -89 106 -145 180 -57 74 -138 176
-180 225 -42 50 -105 128 -140 174 -35 47 -71 92 -81 102 -9 9 -53 63 -98 120
-44 57 -103 131 -131 164 -27 33 -100 125 -162 205 -62 80 -135 170 -163 200
-29 30 -97 114 -153 185 -55 72 -113 144 -129 161 -57 63 -81 92 -172 209 -51
66 -101 127 -110 135 -9 8 -47 53 -84 100 -37 47 -103 128 -147 180 -43 52
-96 124 -116 160 -76 134 -108 184 -153 241 -54 69 -107 153 -146 229 -15 30
-49 84 -75 120 -26 36 -67 99 -91 140 -24 41 -52 84 -62 95 -10 11 -28 38 -39
60 -12 22 -40 67 -63 100 -23 33 -59 92 -80 130 -35 65 -202 324 -215 335 -4
3 -27 44 -53 91 -26 47 -54 92 -62 99 -9 8 -25 30 -35 51 -11 20 -25 43 -32
50 -8 8 -34 47 -58 87 -75 123 -81 133 -159 250 -74 108 -97 146 -178 281 -21
35 -52 82 -69 105 -17 23 -52 82 -78 131 -26 48 -56 99 -66 113 -11 13 -29 56
-40 93 -12 38 -24 69 -29 69 -9 0 -37 62 -46 105 -4 16 -16 50 -27 75 -19 41
-38 101 -69 220 -6 25 -18 65 -26 90 -8 25 -23 72 -33 106 -31 104 -86 193
-147 237 -151 108 -270 165 -386 182 -12 2 -44 11 -72 20 -62 20 -209 28 -254
14z"/>
<path d="M12270 13113 c-81 -5 -165 -24 -183 -41 -11 -9 -40 -28 -65 -42 -49
-27 -51 -29 -158 -250 -30 -63 -67 -131 -83 -150 -15 -19 -37 -52 -50 -72 -12
-20 -30 -40 -41 -43 -10 -3 -34 -21 -52 -39 -76 -77 -313 -182 -467 -207 -74
-12 -183 -68 -253 -129 -42 -38 -73 -80 -126 -173 -107 -188 -122 -222 -142
-324 -16 -83 -16 -100 -4 -146 15 -57 26 -68 92 -94 36 -14 52 -15 91 -6 25 7
75 18 111 27 36 9 103 18 150 21 156 9 215 17 242 31 15 8 58 14 95 15 66 1
248 36 308 59 17 6 48 15 70 20 122 25 259 66 360 107 87 36 189 76 272 107
40 15 76 32 79 38 4 5 44 27 90 48 76 36 158 80 387 212 45 26 89 48 98 48 9
0 47 11 83 25 37 14 78 25 93 25 37 0 172 39 201 58 30 20 52 63 52 103 0 26
-12 44 -70 100 -39 38 -74 69 -79 69 -10 0 -169 208 -191 250 -20 38 -128 153
-185 197 -54 42 -160 93 -193 93 -11 0 -32 4 -46 10 -44 16 -144 31 -281 40
-71 5 -137 10 -145 12 -8 3 -35 3 -60 1z"/>
<path d="M36045 13109 c-22 -5 -70 -8 -108 -8 -72 -1 -241 -25 -283 -41 -14
-6 -35 -10 -46 -10 -33 0 -139 -51 -193 -93 -57 -44 -165 -159 -185 -197 -22
-42 -181 -250 -191 -250 -5 0 -40 -31 -79 -69 -58 -56 -70 -74 -70 -100 0 -40
22 -83 52 -103 29 -19 164 -58 201 -58 15 0 56 -11 93 -25 36 -14 74 -25 83
-25 9 0 53 -22 98 -48 229 -132 311 -176 387 -212 46 -21 86 -43 90 -48 3 -6
39 -23 79 -38 83 -31 185 -71 272 -107 101 -41 238 -82 360 -107 22 -5 54 -14
70 -20 60 -23 242 -58 308 -59 37 -1 80 -7 95 -15 27 -14 86 -22 242 -31 47
-3 114 -12 150 -21 36 -9 86 -20 111 -27 39 -9 55 -8 91 6 66 26 77 37 92 94
12 46 12 63 -4 146 -20 102 -35 136 -142 324 -53 93 -84 135 -126 173 -70 61
-179 117 -253 129 -154 25 -391 130 -467 207 -18 18 -42 36 -52 39 -11 3 -29
23 -41 43 -13 20 -35 53 -50 72 -16 19 -53 87 -83 150 -107 221 -109 223 -158
250 -25 14 -54 33 -65 42 -31 28 -202 51 -278 37z"/>
<path d="M9967 12964 c-3 -3 -132 -6 -287 -5 -155 0 -313 -4 -352 -9 -88 -11
-218 -71 -284 -132 -164 -150 -190 -370 -64 -533 48 -62 41 -56 230 -197 74
-55 163 -123 197 -150 35 -28 89 -58 125 -71 35 -12 83 -34 108 -48 159 -92
286 -144 475 -194 124 -33 151 -36 199 -24 52 13 92 54 141 144 15 28 54 91
86 142 33 50 68 112 79 137 11 26 41 77 67 114 25 37 57 96 70 132 21 58 23
70 12 115 -6 28 -26 74 -45 102 -19 29 -34 56 -34 59 0 4 -16 24 -35 45 -19
22 -35 46 -35 55 0 9 -17 35 -37 58 -21 23 -51 58 -68 80 -30 38 -124 110
-180 138 -47 24 -188 48 -279 48 -45 0 -85 -3 -89 -6z"/>
<path d="M38175 12952 c-44 -10 -91 -24 -105 -32 -56 -30 -147 -101 -175 -136
-16 -22 -47 -57 -67 -80 -21 -23 -38 -49 -38 -58 0 -9 -16 -33 -35 -55 -19
-21 -35 -41 -35 -45 0 -3 -15 -30 -34 -59 -19 -28 -39 -74 -45 -102 -11 -45
-9 -57 12 -115 13 -36 45 -95 70 -132 26 -37 56 -88 67 -114 11 -25 46 -87 79
-137 32 -51 71 -114 86 -142 71 -130 133 -168 239 -145 230 51 394 114 576
219 25 14 73 36 108 48 36 13 90 43 125 71 34 27 123 95 197 150 189 141 182
135 230 197 126 163 100 383 -64 533 -67 62 -196 121 -288 133 -40 5 -161 9
-268 8 -107 -2 -276 0 -375 4 -153 6 -192 4 -260 -11z"/>
<path d="M8430 11614 c-46 -12 -108 -44 -194 -101 -73 -48 -277 -251 -310
-308 -16 -28 -40 -63 -53 -80 -67 -84 -164 -252 -220 -379 -15 -34 -34 -72
-43 -86 -29 -46 -92 -225 -104 -300 -3 -19 -13 -48 -21 -64 -8 -15 -19 -53
-24 -85 -5 -31 -14 -69 -20 -84 -6 -16 -11 -44 -11 -63 0 -19 -9 -53 -19 -77
-27 -60 -39 -102 -56 -194 -7 -45 -20 -94 -28 -110 -8 -15 -18 -44 -22 -63 -4
-19 -16 -49 -26 -66 -10 -17 -27 -66 -38 -110 -22 -92 -36 -134 -62 -190 -11
-22 -19 -47 -19 -55 0 -8 -4 -19 -10 -25 -9 -9 -50 -113 -70 -176 -5 -15 -17
-45 -28 -65 -24 -47 -72 -158 -72 -168 0 -4 -32 -73 -71 -154 -82 -170 -73
-153 -140 -272 -61 -109 -88 -162 -108 -210 -8 -19 -24 -47 -36 -64 -12 -16
-36 -60 -54 -97 -17 -37 -37 -73 -44 -80 -7 -7 -55 -87 -106 -178 -52 -91
-104 -178 -116 -195 -13 -16 -60 -97 -105 -180 -45 -82 -86 -152 -89 -155 -7
-5 -64 -101 -139 -235 -24 -44 -57 -98 -72 -120 -15 -22 -55 -92 -90 -155 -35
-63 -87 -151 -115 -195 -29 -44 -83 -136 -121 -205 -37 -69 -74 -130 -80 -137
-6 -6 -44 -72 -84 -145 -41 -73 -95 -164 -120 -203 -26 -38 -67 -106 -90 -150
-43 -79 -106 -174 -123 -186 -5 -4 -30 -36 -56 -71 -140 -196 -197 -274 -207
-283 -7 -5 -52 -66 -100 -135 -48 -69 -106 -148 -130 -175 -23 -28 -93 -123
-154 -210 -62 -88 -116 -162 -119 -165 -15 -12 -85 -105 -166 -220 -49 -69
-94 -129 -101 -135 -6 -5 -44 -57 -85 -114 -41 -57 -97 -136 -126 -175 -29
-39 -100 -142 -157 -228 -58 -87 -115 -167 -125 -177 -11 -11 -70 -93 -131
-183 -61 -90 -166 -242 -234 -338 -69 -96 -167 -238 -219 -315 -53 -77 -124
-172 -159 -210 -35 -39 -108 -129 -163 -200 -55 -72 -107 -137 -115 -145 -18
-16 -51 -57 -180 -220 -200 -254 -323 -404 -369 -455 -15 -16 -72 -86 -127
-154 -54 -69 -114 -141 -132 -160 -19 -20 -95 -112 -170 -206 -75 -93 -145
-176 -154 -183 -10 -7 -70 -79 -134 -160 -64 -81 -135 -166 -158 -189 -22 -24
-37 -43 -32 -43 4 0 -25 -37 -65 -82 -40 -46 -80 -91 -88 -100 -13 -17 38 -18
1052 -18 l1067 0 37 61 c21 34 62 89 90 123 29 34 110 133 180 221 69 88 132
164 140 168 7 4 73 83 147 175 74 92 163 200 198 241 35 41 99 118 143 172 74
91 147 179 317 383 38 45 111 135 164 201 54 66 127 154 164 195 36 41 119
141 182 221 64 81 122 150 128 154 7 4 65 73 129 154 64 80 155 191 203 246
92 107 177 213 312 390 46 61 109 142 139 180 31 39 104 135 163 215 59 80
124 163 145 185 20 22 90 111 155 198 66 88 133 176 149 196 17 21 77 99 135
175 196 257 255 333 313 407 32 41 116 151 186 244 70 94 135 176 144 184 9 7
69 84 132 170 64 86 143 190 178 232 34 42 97 123 139 180 105 140 194 256
311 404 31 39 104 135 163 215 59 80 119 156 132 170 13 14 76 95 140 180 63
85 132 173 151 196 20 22 65 80 101 128 36 49 88 114 115 146 28 32 77 90 110
129 33 40 93 108 133 152 39 44 72 83 72 87 0 4 30 32 67 62 112 93 267 238
288 270 11 16 33 35 50 42 16 7 53 33 80 59 28 25 70 57 95 69 46 23 122 79
129 93 12 30 131 112 247 172 104 54 121 65 230 147 50 37 97 68 104 68 19 0
126 69 245 159 55 41 102 77 105 80 3 4 23 19 45 36 21 16 46 36 55 45 9 8 48
42 88 74 40 33 79 71 87 86 7 14 32 39 55 55 54 37 237 244 269 304 8 14 26
42 41 61 38 48 131 211 165 290 16 36 42 87 57 113 36 62 63 135 98 267 16 58
36 128 45 155 19 57 37 207 41 343 1 52 5 100 8 108 10 26 -32 177 -72 264
-35 73 -47 90 -91 119 -62 41 -157 62 -261 60 -41 -1 -140 1 -220 4 -309 14
-529 17 -575 8 -30 -6 -58 -5 -74 1 -14 5 -68 11 -119 14 -52 2 -97 6 -101 8
-3 2 -51 12 -106 21 -55 9 -104 21 -110 25 -5 5 -53 20 -105 35 -52 14 -113
32 -135 40 -142 48 -335 70 -400 45 -15 -6 -55 -12 -89 -14 -33 -2 -82 -11
-108 -20 -40 -14 -55 -15 -90 -5 -53 14 -104 69 -113 122 -4 21 -14 52 -22 70
-21 43 -81 117 -96 117 -6 0 -29 8 -51 19 -119 54 -217 69 -306 45z"/>
<path d="M39820 11618 c-63 -15 -114 -32 -150 -50 -19 -10 -40 -18 -46 -18
-15 0 -75 -73 -97 -117 -8 -18 -18 -49 -22 -70 -9 -53 -60 -108 -113 -122 -35
-10 -50 -9 -90 5 -26 9 -75 18 -108 20 -34 2 -74 8 -89 14 -65 25 -258 3 -400
-45 -22 -8 -83 -26 -135 -40 -52 -15 -99 -30 -105 -35 -5 -4 -55 -16 -110 -25
-55 -9 -103 -19 -106 -21 -4 -2 -49 -6 -101 -8 -51 -3 -105 -9 -119 -14 -16
-6 -44 -7 -74 -1 -46 9 -266 6 -575 -8 -80 -3 -179 -5 -220 -4 -104 2 -199
-19 -261 -60 -44 -29 -56 -46 -91 -119 -40 -87 -82 -238 -72 -264 3 -8 7 -56
8 -108 4 -136 22 -286 41 -343 9 -27 29 -97 45 -155 35 -132 62 -205 98 -267
15 -26 41 -77 57 -113 34 -79 127 -242 165 -290 15 -19 33 -47 41 -61 32 -60
215 -267 269 -304 23 -16 48 -41 55 -55 8 -15 47 -53 87 -86 40 -32 79 -66 88
-74 9 -9 34 -29 55 -45 22 -17 42 -32 45 -36 3 -3 50 -39 105 -80 119 -90 226
-159 245 -159 7 0 54 -31 104 -68 109 -82 126 -93 230 -147 116 -60 235 -142
247 -172 7 -14 83 -70 129 -93 25 -12 68 -44 95 -69 28 -26 64 -52 80 -59 17
-7 39 -26 50 -42 21 -32 176 -177 288 -270 37 -30 67 -58 67 -62 0 -4 33 -43
73 -87 39 -44 99 -112 132 -152 33 -39 83 -97 110 -129 28 -32 79 -97 115
-146 36 -48 81 -106 101 -128 19 -23 88 -111 151 -196 64 -85 127 -166 140
-180 13 -14 73 -90 132 -170 59 -80 132 -176 163 -215 117 -148 206 -264 311
-404 42 -57 105 -138 139 -180 35 -42 114 -146 178 -232 63 -86 123 -163 132
-170 9 -8 74 -90 144 -184 70 -93 154 -203 186 -244 58 -74 117 -150 313 -407
58 -76 119 -154 135 -175 17 -20 83 -108 149 -196 65 -87 135 -176 155 -198
21 -22 86 -105 145 -185 59 -80 132 -176 163 -215 30 -38 93 -119 139 -180
135 -177 220 -283 312 -390 48 -55 139 -166 203 -246 64 -81 122 -150 129
-154 6 -4 64 -73 128 -154 63 -80 146 -180 182 -221 37 -41 110 -129 164 -195
53 -66 126 -156 164 -201 170 -204 243 -292 317 -383 44 -54 108 -131 143
-172 35 -41 124 -149 198 -241 74 -92 140 -171 147 -175 8 -4 71 -80 140 -168
70 -88 151 -187 180 -221 28 -34 69 -89 90 -123 l37 -61 1067 0 c1014 0 1065
1 1052 18 -8 9 -48 54 -88 99 -40 46 -69 83 -65 83 5 0 -10 19 -32 42 -23 24
-94 109 -158 190 -64 81 -124 153 -134 160 -9 7 -79 90 -154 183 -75 94 -151
186 -170 206 -18 19 -78 91 -132 160 -55 68 -112 138 -127 154 -46 51 -169
201 -369 455 -129 163 -162 204 -180 220 -8 8 -60 73 -115 145 -55 71 -128
161 -163 200 -35 38 -106 133 -159 210 -52 77 -150 219 -219 315 -68 96 -173
248 -234 338 -61 90 -120 172 -131 183 -10 10 -67 90 -125 177 -57 86 -128
189 -157 228 -29 39 -85 118 -126 175 -41 57 -79 109 -85 114 -7 6 -52 66
-101 135 -81 115 -151 208 -166 220 -3 3 -57 77 -119 165 -61 87 -131 182
-154 210 -24 27 -82 106 -130 175 -48 69 -93 130 -100 135 -10 9 -67 87 -207
283 -26 35 -51 67 -56 71 -17 12 -80 107 -123 186 -23 44 -64 112 -90 150 -25
39 -79 130 -120 203 -40 73 -78 139 -84 145 -6 7 -43 68 -80 137 -38 69 -92
161 -121 205 -28 44 -80 132 -115 195 -35 63 -75 133 -90 155 -15 22 -48 76
-72 120 -75 134 -132 230 -139 235 -3 3 -44 73 -89 155 -45 83 -92 164 -105
180 -12 17 -64 104 -116 195 -51 91 -99 171 -106 178 -7 7 -27 43 -44 80 -18
37 -42 81 -54 97 -12 17 -28 45 -36 64 -20 48 -47 101 -108 210 -67 119 -58
102 -140 272 -39 81 -71 150 -71 154 0 10 -48 121 -72 168 -11 20 -23 50 -28
65 -20 63 -61 167 -70 176 -6 6 -10 17 -10 25 0 8 -8 33 -19 55 -26 56 -40 98
-62 190 -11 44 -28 93 -38 110 -10 17 -22 47 -26 66 -4 19 -14 48 -22 63 -8
16 -21 65 -28 110 -17 92 -29 134 -56 194 -10 24 -19 58 -19 77 0 19 -5 47
-11 63 -6 15 -15 53 -20 84 -5 32 -16 70 -24 85 -8 16 -18 45 -21 64 -12 75
-75 254 -104 300 -9 14 -28 52 -43 86 -56 127 -153 295 -220 379 -13 17 -37
52 -53 80 -33 57 -237 260 -310 308 -84 55 -158 94 -194 102 -53 12 -121 13
-160 3z"/>
</g>
</svg>
